<svg width="500" height="500" xmlns="http://www.w3.org/2000/svg" xmlns:xlink="http://www.w3.org/1999/xlink">
 <style> .axisLabel {font: bold 20px sans-serif;} </style>
 <rect x="10" y="10" rx="10" ry="10" width="480" height="480" style="fill:rgb(232,232,232);stroke-width:2;stroke:rgb(0,0,0)"/>
 <line x1="20" x2="480" y1="250" y2="250" stroke="black" stroke-width="4"/>
<line x1="480" x2="480" y1="240" y2="260" stroke="black" stroke-width="2"/>
<text x="475" y="285" class="axisLabel">8</text>
<line x1="451.25" x2="451.25" y1="240" y2="260" stroke="black" stroke-width="2"/>
<text x="446.25" y="285" class="axisLabel">7</text>
<line x1="422.5" x2="422.5" y1="240" y2="260" stroke="black" stroke-width="2"/>
<text x="417.5" y="285" class="axisLabel">6</text>
<line x1="393.75" x2="393.75" y1="240" y2="260" stroke="black" stroke-width="2"/>
<text x="388.75" y="285" class="axisLabel">5</text>
<line x1="365" x2="365" y1="240" y2="260" stroke="black" stroke-width="2"/>
<text x="360" y="285" class="axisLabel">4</text>
<line x1="336.25" x2="336.25" y1="240" y2="260" stroke="black" stroke-width="2"/>
<text x="331.25" y="285" class="axisLabel">3</text>
<line x1="307.5" x2="307.5" y1="240" y2="260" stroke="black" stroke-width="2"/>
<text x="302.5" y="285" class="axisLabel">2</text>
<line x1="278.75" x2="278.75" y1="240" y2="260" stroke="black" stroke-width="2"/>
<text x="273.75" y="285" class="axisLabel">1</text>
<line x1="250" x2="250" y1="20" y2="480" stroke="black" stroke-width="4"/>
<line x1="221.25" x2="221.25" y1="240" y2="260" stroke="black" stroke-width="2"/>
<text x="216.25" y="285" class="axisLabel">-1</text>
<line x1="192.5" x2="192.5" y1="240" y2="260" stroke="black" stroke-width="2"/>
<text x="187.5" y="285" class="axisLabel">-2</text>
<line x1="163.75" x2="163.75" y1="240" y2="260" stroke="black" stroke-width="2"/>
<text x="158.75" y="285" class="axisLabel">-3</text>
<line x1="135" x2="135" y1="240" y2="260" stroke="black" stroke-width="2"/>
<text x="130" y="285" class="axisLabel">-4</text>
<line x1="106.25" x2="106.25" y1="240" y2="260" stroke="black" stroke-width="2"/>
<text x="101.25" y="285" class="axisLabel">-5</text>
<line x1="77.5" x2="77.5" y1="240" y2="260" stroke="black" stroke-width="2"/>
<text x="72.5" y="285" class="axisLabel">-6</text>
<line x1="48.75" x2="48.75" y1="240" y2="260" stroke="black" stroke-width="2"/>
<text x="43.75" y="285" class="axisLabel">-7</text>
<line x1="20" x2="20" y1="240" y2="260" stroke="black" stroke-width="2"/>
<text x="15" y="285" class="axisLabel">-8</text>
<line x1="240" x2="260" y1="480" y2="480" stroke="black" stroke-width="2"/>
<text x="285" y="485" class="axisLabel">-8</text>
<line x1="240" x2="260" y1="451.25" y2="451.25" stroke="black" stroke-width="2"/>
<text x="285" y="456.25" class="axisLabel">-7</text>
<line x1="240" x2="260" y1="422.5" y2="422.5" stroke="black" stroke-width="2"/>
<text x="285" y="427.5" class="axisLabel">-6</text>
<line x1="240" x2="260" y1="393.75" y2="393.75" stroke="black" stroke-width="2"/>
<text x="285" y="398.75" class="axisLabel">-5</text>
<line x1="240" x2="260" y1="365" y2="365" stroke="black" stroke-width="2"/>
<text x="285" y="370" class="axisLabel">-4</text>
<line x1="240" x2="260" y1="336.25" y2="336.25" stroke="black" stroke-width="2"/>
<text x="285" y="341.25" class="axisLabel">-3</text>
<line x1="240" x2="260" y1="307.5" y2="307.5" stroke="black" stroke-width="2"/>
<text x="285" y="312.5" class="axisLabel">-2</text>
<line x1="240" x2="260" y1="278.75" y2="278.75" stroke="black" stroke-width="2"/>
<text x="285" y="283.75" class="axisLabel">-1</text>
<line x1="240" x2="260" y1="221.25" y2="221.25" stroke="black" stroke-width="2"/>
<text x="285" y="226.25" class="axisLabel">1</text>
<line x1="240" x2="260" y1="192.5" y2="192.5" stroke="black" stroke-width="2"/>
<text x="285" y="197.5" class="axisLabel">2</text>
<line x1="240" x2="260" y1="163.75" y2="163.75" stroke="black" stroke-width="2"/>
<text x="285" y="168.75" class="axisLabel">3</text>
<line x1="240" x2="260" y1="135" y2="135" stroke="black" stroke-width="2"/>
<text x="285" y="140" class="axisLabel">4</text>
<line x1="240" x2="260" y1="106.25" y2="106.25" stroke="black" stroke-width="2"/>
<text x="285" y="111.25" class="axisLabel">5</text>
<line x1="240" x2="260" y1="77.5" y2="77.5" stroke="black" stroke-width="2"/>
<text x="285" y="82.5" class="axisLabel">6</text>
<line x1="240" x2="260" y1="48.75" y2="48.75" stroke="black" stroke-width="2"/>
<text x="285" y="53.75" class="axisLabel">7</text>
<line x1="240" x2="260" y1="20" y2="20" stroke="black" stroke-width="2"/>
<text x="285" y="25" class="axisLabel">8</text>

<line x1="27.999999999999943" x2="28.999999999999943" y1="307.24897500257094" y2="307.0999064750253" stroke="blue" stroke-width="5"/>
<line x1="28.999999999999943" x2="29.999999999999943" y1="307.0999064750253" y2="306.9165428416932" stroke="blue" stroke-width="5"/>
<line x1="29.999999999999943" x2="30.999999999999943" y1="306.9165428416932" y2="306.69910591901015" stroke="blue" stroke-width="5"/>
<line x1="30.999999999999943" x2="31.999999999999943" y1="306.69910591901015" y2="306.4478587421389" stroke="blue" stroke-width="5"/>
<line x1="31.999999999999943" x2="32.99999999999994" y1="306.4478587421389" y2="306.1631052467739" stroke="blue" stroke-width="5"/>
<line x1="32.999999999999915" x2="33.999999999999915" y1="306.1631052467739" y2="305.8451899014676" stroke="blue" stroke-width="5"/>
<line x1="33.999999999999915" x2="34.999999999999915" y1="305.8451899014676" y2="305.49449729092436" stroke="blue" stroke-width="5"/>
<line x1="34.999999999999915" x2="35.999999999999915" y1="305.49449729092436" y2="305.111451650765" stroke="blue" stroke-width="5"/>
<line x1="43.99999999999986" x2="44.99999999999986" y1="300.9459209028139" y2="300.29704013913243" stroke="blue" stroke-width="5"/>
<line x1="44.99999999999986" x2="45.99999999999986" y1="300.29704013913243" y2="299.62209375080386" stroke="blue" stroke-width="5"/>
<line x1="45.99999999999986" x2="46.99999999999986" y1="299.62209375080386" y2="298.9218982258053" stroke="blue" stroke-width="5"/>
<line x1="46.99999999999986" x2="47.99999999999986" y1="298.92189822580536" y2="298.19730059619394" stroke="blue" stroke-width="5"/>
<line x1="47.99999999999983" x2="48.99999999999983" y1="298.19730059619394" y2="297.4491774134455" stroke="blue" stroke-width="5"/>
<line x1="48.99999999999983" x2="49.99999999999983" y1="297.4491774134455" y2="296.6784336880833" stroke="blue" stroke-width="5"/>
<line x1="49.99999999999983" x2="50.99999999999983" y1="296.6784336880833" y2="295.8860017948797" stroke="blue" stroke-width="5"/>
<line x1="50.99999999999983" x2="51.99999999999983" y1="295.8860017948797" y2="295.07284034495484" stroke="blue" stroke-width="5"/>
<line x1="59.99999999999977" x2="60.99999999999977" y1="287.9440307254262" y2="286.99117307251174" stroke="blue" stroke-width="5"/>
<line x1="60.99999999999977" x2="61.99999999999977" y1="286.99117307251174" y2="286.0283460074379" stroke="blue" stroke-width="5"/>
<line x1="61.999999999999744" x2="62.999999999999744" y1="286.0283460074379" y2="285.0567142697104" stroke="blue" stroke-width="5"/>
<line x1="62.999999999999744" x2="63.999999999999744" y1="285.0567142697104" y2="284.07745324991686" stroke="blue" stroke-width="5"/>
<line x1="63.999999999999744" x2="64.99999999999974" y1="284.07745324991686" y2="283.0917475678476" stroke="blue" stroke-width="5"/>
<line x1="64.99999999999974" x2="65.99999999999974" y1="283.0917475678476" y2="282.10078963945193" stroke="blue" stroke-width="5"/>
<line x1="65.99999999999974" x2="66.99999999999974" y1="282.10078963945193" y2="281.10577823436296" stroke="blue" stroke-width="5"/>
<line x1="66.99999999999972" x2="67.99999999999972" y1="281.105778234363" y2="280.10791702573664" stroke="blue" stroke-width="5"/>
<line x1="75.99999999999969" x2="76.99999999999969" y1="272.16733769160373" y2="271.1980801889554" stroke="blue" stroke-width="5"/>
<line x1="76.99999999999966" x2="77.99999999999966" y1="271.19808018895543" y2="270.2379583033519" stroke="blue" stroke-width="5"/>
<line x1="77.99999999999966" x2="78.99999999999966" y1="270.2379583033519" y2="269.2881335018217" stroke="blue" stroke-width="5"/>
<line x1="78.99999999999966" x2="79.99999999999966" y1="269.2881335018217" y2="268.34975479492954" stroke="blue" stroke-width="5"/>
<line x1="79.99999999999966" x2="80.99999999999966" y1="268.34975479492954" y2="267.42395734680906" stroke="blue" stroke-width="5"/>
<line x1="80.99999999999966" x2="81.99999999999966" y1="267.42395734680906" y2="266.5118611019456" stroke="blue" stroke-width="5"/>
<line x1="81.99999999999963" x2="82.99999999999963" y1="266.5118611019456" y2="265.6145694303709" stroke="blue" stroke-width="5"/>
<line x1="82.99999999999963" x2="83.99999999999963" y1="265.6145694303709" y2="264.7331677929074" stroke="blue" stroke-width="5"/>
<line x1="91.99999999999957" x2="92.99999999999957" y1="258.37732391976914" y2="257.684193160705" stroke="blue" stroke-width="5"/>
<line x1="92.99999999999957" x2="93.99999999999957" y1="257.684193160705" y2="257.016545874564" stroke="blue" stroke-width="5"/>
<line x1="93.99999999999957" x2="94.99999999999957" y1="257.016545874564" y2="256.37518971954165" stroke="blue" stroke-width="5"/>
<line x1="94.99999999999957" x2="95.99999999999957" y1="256.37518971954165" y2="255.76090054924464" stroke="blue" stroke-width="5"/>
<line x1="95.99999999999957" x2="96.99999999999957" y1="255.76090054924464" y2="255.1744214741341" stroke="blue" stroke-width="5"/>
<line x1="96.99999999999955" x2="97.99999999999955" y1="255.1744214741341" y2="254.61646196257965" stroke="blue" stroke-width="5"/>
<line x1="97.99999999999955" x2="98.99999999999955" y1="254.61646196257965" y2="254.08769698260943" stroke="blue" stroke-width="5"/>
<line x1="98.99999999999955" x2="99.99999999999955" y1="254.08769698260943" y2="253.58876618539625" stroke="blue" stroke-width="5"/>
<line x1="107.99999999999949" x2="108.99999999999949" y1="250.73588213653048" y2="250.5280683301733" stroke="blue" stroke-width="5"/>
<line x1="108.99999999999949" x2="109.99999999999949" y1="250.5280683301733" y2="250.35439481746997" stroke="blue" stroke-width="5"/>
<line x1="109.99999999999949" x2="110.99999999999949" y1="250.35439481746997" y2="250.21507169264055" stroke="blue" stroke-width="5"/>
<line x1="110.99999999999949" x2="111.99999999999949" y1="250.21507169264055" y2="250.11026749596962" stroke="blue" stroke-width="5"/>
<line x1="111.99999999999946" x2="112.99999999999946" y1="250.11026749596962" y2="250.04010900992168" stroke="blue" stroke-width="5"/>
<line x1="112.99999999999946" x2="113.99999999999946" y1="250.04010900992168" y2="250.00468110577148" stroke="blue" stroke-width="5"/>
<line x1="113.99999999999946" x2="114.99999999999946" y1="250.00468110577148" y2="250.00402664093446" stroke="blue" stroke-width="5"/>
<line x1="114.99999999999946" x2="115.99999999999946" y1="250.00402664093446" y2="250.03814640712196" stroke="blue" stroke-width="5"/>
<line x1="123.9999999999994" x2="124.9999999999994" y1="251.54923636056247" y2="251.88945871687665" stroke="blue" stroke-width="5"/>
<line x1="124.99999999999939" x2="125.99999999999939" y1="251.88945871687665" y2="252.2621744821408" stroke="blue" stroke-width="5"/>
<line x1="125.99999999999939" x2="126.99999999999939" y1="252.2621744821408" y2="252.66693277914985" stroke="blue" stroke-width="5"/>
<line x1="126.99999999999939" x2="127.99999999999939" y1="252.66693277914985" y2="253.1032439685948" stroke="blue" stroke-width="5"/>
<line x1="127.99999999999937" x2="128.99999999999937" y1="253.1032439685948" y2="253.5705802413836" stroke="blue" stroke-width="5"/>
<line x1="128.99999999999937" x2="129.99999999999937" y1="253.5705802413836" y2="254.06837625713572" stroke="blue" stroke-width="5"/>
<line x1="129.99999999999937" x2="130.99999999999937" y1="254.06837625713572" y2="254.5960298280791" stroke="blue" stroke-width="5"/>
<line x1="130.99999999999937" x2="131.99999999999937" y1="254.5960298280791" y2="255.15290264752124" stroke="blue" stroke-width="5"/>
<line x1="139.99999999999932" x2="140.99999999999932" y1="260.57191236064506" y2="261.3574901300968" stroke="blue" stroke-width="5"/>
<line x1="140.99999999999932" x2="141.99999999999932" y1="261.3574901300968" y2="262.16410775611405" stroke="blue" stroke-width="5"/>
<line x1="141.9999999999993" x2="142.9999999999993" y1="262.16410775611405" y2="262.99078946698353" stroke="blue" stroke-width="5"/>
<line x1="142.9999999999993" x2="143.9999999999993" y1="262.99078946698353" y2="263.83653521930995" stroke="blue" stroke-width="5"/>
<line x1="143.9999999999993" x2="144.9999999999993" y1="263.83653521930995" y2="264.7003219077767" stroke="blue" stroke-width="5"/>
<line x1="144.99999999999926" x2="145.99999999999926" y1="264.70032190777664" y2="265.58110460280386" stroke="blue" stroke-width="5"/>
<line x1="145.99999999999926" x2="146.99999999999926" y1="265.58110460280386" y2="266.47781781460844" stroke="blue" stroke-width="5"/>
<line x1="146.99999999999926" x2="147.99999999999926" y1="266.47781781460844" y2="267.38937678213534" stroke="blue" stroke-width="5"/>
<line x1="155.9999999999992" x2="156.9999999999992" y1="275.0808229636544" y2="276.0746649831047" stroke="blue" stroke-width="5"/>
<line x1="156.9999999999992" x2="157.9999999999992" y1="276.0746649831047" y2="277.0717433764563" stroke="blue" stroke-width="5"/>
<line x1="157.9999999999992" x2="158.9999999999992" y1="277.0717433764563" y2="278.0708519701012" stroke="blue" stroke-width="5"/>
<line x1="158.9999999999992" x2="159.9999999999992" y1="278.0708519701012" y2="279.07078213448216" stroke="blue" stroke-width="5"/>
<line x1="159.9999999999992" x2="160.9999999999992" y1="279.07078213448216" y2="280.07032424618137" stroke="blue" stroke-width="5"/>
<line x1="160.9999999999992" x2="161.9999999999992" y1="280.07032424618137" y2="281.06826915121127" stroke="blue" stroke-width="5"/>
<line x1="161.99999999999918" x2="162.99999999999918" y1="281.0682691512112" y2="282.0634096277379" stroke="blue" stroke-width="5"/>
<line x1="162.99999999999918" x2="163.99999999999918" y1="282.0634096277379" y2="283.05454184646675" stroke="blue" stroke-width="5"/>
<line x1="171.99999999999912" x2="172.99999999999912" y1="290.6971089089127" y2="291.59926885919293" stroke="blue" stroke-width="5"/>
<line x1="172.99999999999912" x2="173.99999999999912" y1="291.59926885919293" y2="292.48588494744337" stroke="blue" stroke-width="5"/>
<line x1="173.9999999999991" x2="174.9999999999991" y1="292.48588494744337" y2="293.355884627179" stroke="blue" stroke-width="5"/>
<line x1="174.9999999999991" x2="175.9999999999991" y1="293.3558846271791" y2="294.2082154529157" stroke="blue" stroke-width="5"/>
<line x1="175.9999999999991" x2="176.9999999999991" y1="294.2082154529157" y2="295.04184635332115" stroke="blue" stroke-width="5"/>
<line x1="176.9999999999991" x2="177.9999999999991" y1="295.04184635332115" y2="295.85576887851073" stroke="blue" stroke-width="5"/>
<line x1="177.9999999999991" x2="178.9999999999991" y1="295.85576887851073" y2="296.648998419977" stroke="blue" stroke-width="5"/>
<line x1="178.9999999999991" x2="179.9999999999991" y1="296.6489984199769" y2="297.42057540167804" stroke="blue" stroke-width="5"/>
<line x1="187.99999999999903" x2="188.99999999999903" y1="302.7076997116793" y2="303.24590136468464" stroke="blue" stroke-width="5"/>
<line x1="188.99999999999903" x2="189.99999999999903" y1="303.24590136468464" y2="303.75447013232656" stroke="blue" stroke-width="5"/>
<line x1="189.99999999999903" x2="190.99999999999903" y1="303.75447013232656" y2="304.2327907949499" stroke="blue" stroke-width="5"/>
<line x1="190.999999999999" x2="191.999999999999" y1="304.2327907949499" y2="304.680284724271" stroke="blue" stroke-width="5"/>
<line x1="191.999999999999" x2="192.999999999999" y1="304.680284724271" y2="305.0964105833491" stroke="blue" stroke-width="5"/>
<line x1="192.999999999999" x2="193.999999999999" y1="305.0964105833491" y2="305.4806649814456" stroke="blue" stroke-width="5"/>
<line x1="193.999999999999" x2="194.999999999999" y1="305.4806649814456" y2="305.83258308298" stroke="blue" stroke-width="5"/>
<line x1="194.999999999999" x2="195.999999999999" y1="305.83258308298" y2="306.1517391698454" stroke="blue" stroke-width="5"/>
<line x1="203.999999999999" x2="204.999999999999" y1="307.4877410874432" y2="307.49955258616814" stroke="blue" stroke-width="5"/>
<line x1="204.999999999999" x2="205.999999999999" y1="307.49955258616814" y2="307.4765855240492" stroke="blue" stroke-width="5"/>
<line x1="205.999999999999" x2="206.999999999999" y1="307.4765855240492" y2="307.4188676845229" stroke="blue" stroke-width="5"/>
<line x1="206.99999999999903" x2="207.99999999999903" y1="307.4188676845229" y2="307.3264688893157" stroke="blue" stroke-width="5"/>
<line x1="207.99999999999903" x2="208.99999999999903" y1="307.3264688893157" y2="307.19950091397993" stroke="blue" stroke-width="5"/>
<line x1="208.99999999999903" x2="209.99999999999903" y1="307.19950091397993" y2="307.03811735267817" stroke="blue" stroke-width="5"/>
<line x1="209.99999999999903" x2="210.99999999999903" y1="307.03811735267817" y2="306.84251343237923" stroke="blue" stroke-width="5"/>
<line x1="210.99999999999903" x2="211.99999999999903" y1="306.84251343237923" y2="306.61292577669053" stroke="blue" stroke-width="5"/>
<line x1="219.99999999999903" x2="220.99999999999903" y1="303.59459347370375" y2="303.07645005081383" stroke="blue" stroke-width="5"/>
<line x1="220.99999999999903" x2="221.99999999999903" y1="303.07645005081383" y2="302.52887872915335" stroke="blue" stroke-width="5"/>
<line x1="221.99999999999903" x2="222.99999999999903" y1="302.52887872915335" y2="301.9525419100751" stroke="blue" stroke-width="5"/>
<line x1="222.99999999999903" x2="223.99999999999903" y1="301.9525419100751" y2="301.3481367927814" stroke="blue" stroke-width="5"/>
<line x1="223.99999999999903" x2="224.99999999999903" y1="301.3481367927814" y2="300.71639453091655" stroke="blue" stroke-width="5"/>
<line x1="224.99999999999903" x2="225.99999999999903" y1="300.71639453091655" y2="300.0580793480846" stroke="blue" stroke-width="5"/>
<line x1="225.99999999999903" x2="226.99999999999903" y1="300.0580793480846" y2="299.373987613362" stroke="blue" stroke-width="5"/>
<line x1="226.99999999999903" x2="227.99999999999903" y1="299.373987613362" y2="298.66494687792346" stroke="blue" stroke-width="5"/>
<line x1="235.99999999999903" x2="236.99999999999903" y1="292.20322761416867" y2="291.31150745599115" stroke="blue" stroke-width="5"/>
<line x1="236.99999999999903" x2="237.99999999999903" y1="291.31150745599115" y2="290.40459154302613" stroke="blue" stroke-width="5"/>
<line x1="237.99999999999903" x2="238.99999999999903" y1="290.40459154302613" y2="289.48357697861695" stroke="blue" stroke-width="5"/>
<line x1="238.99999999999903" x2="239.99999999999903" y1="289.48357697861695" y2="288.5495779213569" stroke="blue" stroke-width="5"/>
<line x1="239.99999999999903" x2="240.99999999999903" y1="288.54957792135684" y2="287.6037242372827" stroke="blue" stroke-width="5"/>
<line x1="240.99999999999903" x2="241.99999999999903" y1="287.6037242372827" y2="286.6471601330669" stroke="blue" stroke-width="5"/>
<line x1="241.99999999999903" x2="242.99999999999903" y1="286.6471601330669" y2="285.6810427718619" stroke="blue" stroke-width="5"/>
<line x1="242.99999999999903" x2="243.99999999999903" y1="285.6810427718619" y2="284.7065408734705" stroke="blue" stroke-width="5"/>
<line x1="251.99999999999903" x2="252.99999999999903" y1="276.75161271621926" y2="275.755441271205" stroke="blue" stroke-width="5"/>
<line x1="252.99999999999903" x2="253.99999999999903" y1="275.755441271205" y2="274.7628923675376" stroke="blue" stroke-width="5"/>
<line x1="253.99999999999903" x2="254.99999999999903" y1="274.7628923675376" y2="273.7751666994657" stroke="blue" stroke-width="5"/>
<line x1="254.99999999999903" x2="255.99999999999903" y1="273.7751666994657" y2="272.79345912653145" stroke="blue" stroke-width="5"/>
<line x1="255.99999999999903" x2="256.99999999999903" y1="272.79345912653145" y2="271.81895722814" stroke="blue" stroke-width="5"/>
<line x1="256.99999999999903" x2="257.99999999999903" y1="271.81895722814" y2="270.85283986693497" stroke="blue" stroke-width="5"/>
<line x1="257.99999999999903" x2="258.99999999999903" y1="270.85283986693497" y2="269.89627576271914" stroke="blue" stroke-width="5"/>
<line x1="258.99999999999903" x2="259.99999999999903" y1="269.89627576271914" y2="268.9504220786449" stroke="blue" stroke-width="5"/>
<line x1="267.99999999999903" x2="268.99999999999903" y1="261.9031207475813" y2="261.10314736677924" stroke="blue" stroke-width="5"/>
<line x1="268.99999999999903" x2="269.99999999999903" y1="261.10314736677924" y2="260.3245215229925" stroke="blue" stroke-width="5"/>
<line x1="269.99999999999903" x2="270.99999999999903" y1="260.3245215229925" y2="259.5681851260543" stroke="blue" stroke-width="5"/>
<line x1="270.99999999999903" x2="271.99999999999903" y1="259.5681851260543" y2="258.83505312207797" stroke="blue" stroke-width="5"/>
<line x1="271.99999999999903" x2="272.99999999999903" y1="258.83505312207797" y2="258.1260123866394" stroke="blue" stroke-width="5"/>
<line x1="272.99999999999903" x2="273.99999999999903" y1="258.1260123866394" y2="257.4419206519167" stroke="blue" stroke-width="5"/>
<line x1="273.99999999999903" x2="274.99999999999903" y1="257.4419206519167" y2="256.7836054690847" stroke="blue" stroke-width="5"/>
<line x1="274.99999999999903" x2="275.99999999999903" y1="256.78360546908465" y2="256.1518632072198" stroke="blue" stroke-width="5"/>
<line x1="283.99999999999903" x2="284.99999999999903" y1="252.13909826438294" y2="251.77675877593143" stroke="blue" stroke-width="5"/>
<line x1="284.99999999999903" x2="285.99999999999903" y1="251.77675877593143" y2="251.44704903043865" stroke="blue" stroke-width="5"/>
<line x1="285.99999999999903" x2="286.99999999999903" y1="251.44704903043862" y2="251.15036788038793" stroke="blue" stroke-width="5"/>
<line x1="286.99999999999903" x2="287.99999999999903" y1="251.15036788038793" y2="250.88707422330992" stroke="blue" stroke-width="5"/>
<line x1="287.99999999999903" x2="288.99999999999903" y1="250.88707422330992" y2="250.65748656762116" stroke="blue" stroke-width="5"/>
<line x1="288.99999999999903" x2="289.99999999999903" y1="250.65748656762116" y2="250.4618826473222" stroke="blue" stroke-width="5"/>
<line x1="289.99999999999903" x2="290.99999999999903" y1="250.46188264732217" y2="250.30049908602035" stroke="blue" stroke-width="5"/>
<line x1="290.99999999999903" x2="291.99999999999903" y1="250.30049908602035" y2="250.17353111068448" stroke="blue" stroke-width="5"/>
<line x1="299.9999999999991" x2="300.9999999999991" y1="250.40637438714774" y2="250.59102459782838" stroke="blue" stroke-width="5"/>
<line x1="300.9999999999991" x2="301.9999999999991" y1="250.59102459782838" y2="250.80973894346863" stroke="blue" stroke-width="5"/>
<line x1="301.9999999999991" x2="302.9999999999991" y1="250.8097389434686" y2="251.06225284359698" stroke="blue" stroke-width="5"/>
<line x1="302.9999999999991" x2="303.9999999999991" y1="251.06225284359698" y2="251.34826083015403" stroke="blue" stroke-width="5"/>
<line x1="303.9999999999991" x2="304.9999999999991" y1="251.348260830154" y2="251.6674169170193" stroke="blue" stroke-width="5"/>
<line x1="304.9999999999991" x2="305.9999999999991" y1="251.6674169170193" y2="252.0193350185537" stroke="blue" stroke-width="5"/>
<line x1="305.9999999999991" x2="306.9999999999991" y1="252.0193350185537" y2="252.40358941665014" stroke="blue" stroke-width="5"/>
<line x1="306.9999999999991" x2="307.9999999999991" y1="252.4035894166501" y2="252.81971527572813" stroke="blue" stroke-width="5"/>
<line x1="315.99999999999903" x2="316.99999999999903" y1="257.22789354662115" y2="257.9038051314654" stroke="blue" stroke-width="5"/>
<line x1="316.99999999999903" x2="317.99999999999903" y1="257.90380513146533" y2="258.6049345228971" stroke="blue" stroke-width="5"/>
<line x1="317.999999999999" x2="318.999999999999" y1="258.6049345228971" y2="259.3304335591537" stroke="blue" stroke-width="5"/>
<line x1="318.999999999999" x2="319.999999999999" y1="259.3304335591537" y2="260.0794245983205" stroke="blue" stroke-width="5"/>
<line x1="319.999999999999" x2="320.999999999999" y1="260.0794245983205" y2="260.85100158002155" stroke="blue" stroke-width="5"/>
<line x1="320.999999999999" x2="321.999999999999" y1="260.85100158002155" y2="261.6442311214877" stroke="blue" stroke-width="5"/>
<line x1="321.999999999999" x2="322.999999999999" y1="261.6442311214877" y2="262.45815364667726" stroke="blue" stroke-width="5"/>
<line x1="322.999999999999" x2="323.999999999999" y1="262.45815364667726" y2="263.29178454708267" stroke="blue" stroke-width="5"/>
<line x1="331.9999999999989" x2="332.9999999999989" y1="270.54488833009646" y2="271.50806790988514" stroke="blue" stroke-width="5"/>
<line x1="332.9999999999989" x2="333.9999999999989" y1="271.50806790988514" y2="272.4800081121242" stroke="blue" stroke-width="5"/>
<line x1="333.9999999999989" x2="334.9999999999989" y1="272.4800081121242" y2="273.45953317307396" stroke="blue" stroke-width="5"/>
<line x1="334.9999999999989" x2="335.9999999999989" y1="273.45953317307396" y2="274.4454581535314" stroke="blue" stroke-width="5"/>
<line x1="335.9999999999989" x2="336.9999999999989" y1="274.4454581535314" y2="275.4365903722602" stroke="blue" stroke-width="5"/>
<line x1="336.99999999999886" x2="337.99999999999886" y1="275.4365903722602" y2="276.4317308487868" stroke="blue" stroke-width="5"/>
<line x1="337.99999999999886" x2="338.99999999999886" y1="276.43173084878686" y2="277.4296757538167" stroke="blue" stroke-width="5"/>
<line x1="338.99999999999886" x2="339.99999999999886" y1="277.42967575381675" y2="278.4292178655159" stroke="blue" stroke-width="5"/>
<line x1="347.99999999999886" x2="348.99999999999886" y1="286.33822542511643" y2="287.2979807529915" stroke="blue" stroke-width="5"/>
<line x1="348.99999999999886" x2="349.99999999999886" y1="287.2979807529915" y2="288.2473955210329" stroke="blue" stroke-width="5"/>
<line x1="349.9999999999988" x2="350.9999999999988" y1="288.2473955210329" y2="289.1853212146966" stroke="blue" stroke-width="5"/>
<line x1="350.9999999999988" x2="351.9999999999988" y1="289.1853212146966" y2="290.1106232178629" stroke="blue" stroke-width="5"/>
<line x1="351.9999999999988" x2="352.9999999999988" y1="290.1106232178629" y2="291.02218218538985" stroke="blue" stroke-width="5"/>
<line x1="352.9999999999988" x2="353.9999999999988" y1="291.02218218538985" y2="291.91889539719443" stroke="blue" stroke-width="5"/>
<line x1="353.9999999999988" x2="354.9999999999988" y1="291.91889539719443" y2="292.79967809222165" stroke="blue" stroke-width="5"/>
<line x1="354.9999999999988" x2="355.9999999999988" y1="292.79967809222165" y2="293.6634647806884" stroke="blue" stroke-width="5"/>
<line x1="363.99999999999875" x2="364.99999999999875" y1="299.841399455241" y2="300.50807174010214" stroke="blue" stroke-width="5"/>
<line x1="364.99999999999875" x2="365.99999999999875" y1="300.5080717401021" y2="301.1484231137216" stroke="blue" stroke-width="5"/>
<line x1="365.99999999999875" x2="366.99999999999875" y1="301.1484231137216" y2="301.7616789379849" stroke="blue" stroke-width="5"/>
<line x1="366.99999999999875" x2="367.99999999999875" y1="301.7616789379849" y2="302.3470973524777" stroke="blue" stroke-width="5"/>
<line x1="367.99999999999875" x2="368.99999999999875" y1="302.3470973524777" y2="302.90397017191987" stroke="blue" stroke-width="5"/>
<line x1="368.99999999999875" x2="369.99999999999875" y1="302.90397017191987" y2="303.4316237428633" stroke="blue" stroke-width="5"/>
<line x1="369.99999999999875" x2="370.99999999999875" y1="303.4316237428633" y2="303.9294197586155" stroke="blue" stroke-width="5"/>
<line x1="370.99999999999875" x2="371.99999999999875" y1="303.9294197586155" y2="304.3967560314044" stroke="blue" stroke-width="5"/>
<line x1="379.99999999999864" x2="380.99999999999864" y1="306.9790873126079" y2="307.1514716405729" stroke="blue" stroke-width="5"/>
<line x1="380.99999999999864" x2="381.99999999999864" y1="307.1514716405729" y2="307.28949848396337" stroke="blue" stroke-width="5"/>
<line x1="381.99999999999864" x2="382.99999999999864" y1="307.28949848396337" y2="307.39300087061656" stroke="blue" stroke-width="5"/>
<line x1="382.99999999999864" x2="383.99999999999864" y1="307.39300087061656" y2="307.46185359287796" stroke="blue" stroke-width="5"/>
<line x1="383.99999999999864" x2="384.99999999999864" y1="307.46185359287796" y2="307.4959733590655" stroke="blue" stroke-width="5"/>
<line x1="384.99999999999864" x2="385.99999999999864" y1="307.4959733590655" y2="307.49531889422855" stroke="blue" stroke-width="5"/>
<line x1="385.99999999999864" x2="386.99999999999864" y1="307.49531889422855" y2="307.4598909900784" stroke="blue" stroke-width="5"/>
<line x1="386.99999999999864" x2="387.99999999999864" y1="307.4598909900784" y2="307.3897325040305" stroke="blue" stroke-width="5"/>
<line x1="395.9999999999986" x2="396.9999999999986" y1="305.59710034520504" y2="305.2231702939216" stroke="blue" stroke-width="5"/>
<line x1="396.9999999999985" x2="397.9999999999985" y1="305.2231702939216" y2="304.8172154394335" stroke="blue" stroke-width="5"/>
<line x1="397.9999999999985" x2="398.9999999999985" y1="304.8172154394335" y2="304.3797268685346" stroke="blue" stroke-width="5"/>
<line x1="398.9999999999985" x2="399.9999999999985" y1="304.3797268685346" y2="303.9112338146047" stroke="blue" stroke-width="5"/>
<line x1="399.9999999999985" x2="400.9999999999985" y1="303.91123381460466" y2="303.41230301739154" stroke="blue" stroke-width="5"/>
<line x1="400.9999999999985" x2="401.9999999999985" y1="303.41230301739154" y2="302.88353803742143" stroke="blue" stroke-width="5"/>
<line x1="401.9999999999985" x2="402.9999999999985" y1="302.8835380374214" y2="302.325578525867" stroke="blue" stroke-width="5"/>
<line x1="402.9999999999985" x2="403.9999999999985" y1="302.325578525867" y2="301.7390994507565" stroke="blue" stroke-width="5"/>
<line x1="411.99999999999847" x2="412.99999999999847" y1="296.11252889123426" y2="295.3051383552993" stroke="blue" stroke-width="5"/>
<line x1="412.99999999999847" x2="413.99999999999847" y1="295.3051383552993" y2="294.47772093773403" stroke="blue" stroke-width="5"/>
<line x1="413.99999999999847" x2="414.99999999999847" y1="294.47772093773403" y2="293.63127757192393" stroke="blue" stroke-width="5"/>
<line x1="414.99999999999847" x2="415.99999999999847" y1="293.63127757192393" y2="292.76683220709424" stroke="blue" stroke-width="5"/>
<line x1="415.99999999999847" x2="416.99999999999847" y1="292.76683220709424" y2="291.8854305696307" stroke="blue" stroke-width="5"/>
<line x1="416.9999999999984" x2="417.9999999999984" y1="291.8854305696308" y2="290.98813889805615" stroke="blue" stroke-width="5"/>
<line x1="417.9999999999984" x2="418.9999999999984" y1="290.98813889805615" y2="290.07604265319276" stroke="blue" stroke-width="5"/>
<line x1="418.9999999999984" x2="419.9999999999984" y1="290.0760426531927" y2="289.1502452050722" stroke="blue" stroke-width="5"/>
<line x1="427.9999999999984" x2="428.9999999999984" y1="281.38786240156895" y2="280.3906857423455" stroke="blue" stroke-width="5"/>
<line x1="428.9999999999984" x2="429.9999999999984" y1="280.39068574234557" y2="279.3915243326205" stroke="blue" stroke-width="5"/>
<line x1="429.9999999999984" x2="430.9999999999984" y1="279.3915243326205" y2="278.3915868658432" stroke="blue" stroke-width="5"/>
<line x1="430.9999999999984" x2="431.9999999999984" y1="278.39158686584324" y2="277.3920829742652" stroke="blue" stroke-width="5"/>
<line x1="431.99999999999835" x2="432.99999999999835" y1="277.39208297426524" y2="276.3942217656389" stroke="blue" stroke-width="5"/>
<line x1="432.99999999999835" x2="433.99999999999835" y1="276.3942217656389" y2="275.39921036054994" stroke="blue" stroke-width="5"/>
<line x1="433.99999999999835" x2="434.99999999999835" y1="275.39921036054994" y2="274.4082524321543" stroke="blue" stroke-width="5"/>
<line x1="434.99999999999835" x2="435.99999999999835" y1="274.4082524321543" y2="273.422546750085" stroke="blue" stroke-width="5"/>
<line x1="443.9999999999983" x2="444.9999999999983" y1="265.86707630502514" y2="264.9810662520632" stroke="blue" stroke-width="5"/>
<line x1="444.9999999999983" x2="445.9999999999983" y1="264.9810662520632" y2="264.111712587011" stroke="blue" stroke-width="5"/>
<line x1="445.9999999999983" x2="446.9999999999983" y1="264.111712587011" y2="263.26006697386384" stroke="blue" stroke-width="5"/>
<line x1="446.9999999999983" x2="447.9999999999983" y1="263.26006697386384" y2="262.4271596550467" stroke="blue" stroke-width="5"/>
<line x1="447.9999999999983" x2="448.9999999999983" y1="262.4271596550467" y2="261.61399820512185" stroke="blue" stroke-width="5"/>
<line x1="448.9999999999983" x2="449.9999999999983" y1="261.6139982051219" y2="260.82156631191816" stroke="blue" stroke-width="5"/>
<line x1="449.9999999999983" x2="450.9999999999983" y1="260.8215663119182" y2="260.0508225865559" stroke="blue" stroke-width="5"/>
<line x1="450.9999999999983" x2="451.9999999999983" y1="260.05082258655597" y2="259.3026994038074" stroke="blue" stroke-width="5"/>
<line x1="459.9999999999982" x2="460.9999999999982" y1="254.23441877098298" y2="253.7269774354143" stroke="blue" stroke-width="5"/>
<line x1="460.9999999999982" x2="461.9999999999982" y1="253.7269774354143" y2="253.24980664788802" stroke="blue" stroke-width="5"/>
<line x1="461.9999999999982" x2="462.9999999999982" y1="253.24980664788802" y2="252.80348364567482" stroke="blue" stroke-width="5"/>
<line x1="462.9999999999982" x2="463.9999999999982" y1="252.80348364567482" y2="252.38854834923578" stroke="blue" stroke-width="5"/>
<line x1="463.9999999999982" x2="464.9999999999982" y1="252.38854834923578" y2="252.00550270907635" stroke="blue" stroke-width="5"/>
<line x1="464.9999999999982" x2="465.9999999999982" y1="252.00550270907635" y2="251.65481009853298" stroke="blue" stroke-width="5"/>
<line x1="465.9999999999982" x2="466.9999999999982" y1="251.654810098533" y2="251.33689475322663" stroke="blue" stroke-width="5"/>
<line x1="466.9999999999982" x2="467.9999999999982" y1="251.33689475322666" y2="251.0521412578616" stroke="blue" stroke-width="5"/>
<line x1="475.99999999999807" x2="476.99999999999807" y1="250.0006819990077" y2="250.02495762554227" stroke="blue" stroke-width="5"/>
<line x1="476.99999999999807" x2="477.99999999999807" y1="250.02495762554227" y2="250.0839821627239" stroke="blue" stroke-width="5"/>
<line x1="477.99999999999807" x2="478.99999999999807" y1="250.0839821627239" y2="250.17768420810378" stroke="blue" stroke-width="5"/>
<line x1="478.99999999999807" x2="479.99999999999807" y1="250.17768420810378" y2="250.3059504095775" stroke="blue" stroke-width="5"/>
</svg>

