<svg width="500" height="500" xmlns="http://www.w3.org/2000/svg" xmlns:xlink="http://www.w3.org/1999/xlink">
 <style> .axisLabel {font: bold 20px sans-serif;} </style>
 <rect x="10" y="10" rx="10" ry="10" width="480" height="480" style="fill:rgb(232,232,232);stroke-width:2;stroke:rgb(0,0,0)"/>
 <line x1="20" x2="480" y1="250" y2="250" stroke="black" stroke-width="4"/>
<line x1="480" x2="480" y1="240" y2="260" stroke="black" stroke-width="2"/>
<text x="475" y="285" class="axisLabel">2</text>
<line x1="365" x2="365" y1="240" y2="260" stroke="black" stroke-width="2"/>
<text x="360" y="285" class="axisLabel">1</text>
<line x1="250" x2="250" y1="20" y2="480" stroke="black" stroke-width="4"/>
<line x1="135" x2="135" y1="240" y2="260" stroke="black" stroke-width="2"/>
<text x="130" y="285" class="axisLabel">-1</text>
<line x1="20" x2="20" y1="240" y2="260" stroke="black" stroke-width="2"/>
<text x="15" y="285" class="axisLabel">-2</text>
<line x1="240" x2="260" y1="480" y2="480" stroke="black" stroke-width="2"/>
<text x="285" y="485" class="axisLabel">-2</text>
<line x1="240" x2="260" y1="365" y2="365" stroke="black" stroke-width="2"/>
<text x="285" y="370" class="axisLabel">-1</text>
<line x1="240" x2="260" y1="135" y2="135" stroke="black" stroke-width="2"/>
<text x="285" y="140" class="axisLabel">1</text>
<line x1="240" x2="260" y1="20" y2="20" stroke="black" stroke-width="2"/>
<text x="285" y="25" class="axisLabel">2</text>

<line x1="25.99999999999997" x2="26.49999999999997" y1="135" y2="135" stroke="black" stroke-width="5"/>
<line x1="26.49999999999997" x2="26.99999999999997" y1="135" y2="135" stroke="black" stroke-width="5"/>
<line x1="26.99999999999997" x2="27.49999999999997" y1="135" y2="135" stroke="black" stroke-width="5"/>
<line x1="27.499999999999943" x2="27.999999999999943" y1="135" y2="135" stroke="black" stroke-width="5"/>
<line x1="27.999999999999943" x2="28.499999999999943" y1="135" y2="135" stroke="black" stroke-width="5"/>
<line x1="28.499999999999943" x2="28.999999999999943" y1="135" y2="135" stroke="black" stroke-width="5"/>
<line x1="28.999999999999943" x2="29.499999999999943" y1="135" y2="135" stroke="black" stroke-width="5"/>
<line x1="29.499999999999943" x2="29.999999999999943" y1="135" y2="135" stroke="black" stroke-width="5"/>
<line x1="29.999999999999943" x2="30.499999999999943" y1="135" y2="135" stroke="black" stroke-width="5"/>
<line x1="30.499999999999943" x2="30.999999999999943" y1="135" y2="135" stroke="black" stroke-width="5"/>
<line x1="30.999999999999943" x2="31.499999999999943" y1="135" y2="135" stroke="black" stroke-width="5"/>
<line x1="31.499999999999943" x2="31.999999999999943" y1="135" y2="135" stroke="black" stroke-width="5"/>
<line x1="37.999999999999886" x2="38.499999999999886" y1="135" y2="135" stroke="black" stroke-width="5"/>
<line x1="38.499999999999886" x2="38.999999999999886" y1="135" y2="135" stroke="black" stroke-width="5"/>
<line x1="38.999999999999886" x2="39.499999999999886" y1="135" y2="135" stroke="black" stroke-width="5"/>
<line x1="39.499999999999886" x2="39.999999999999886" y1="135" y2="135" stroke="black" stroke-width="5"/>
<line x1="39.999999999999886" x2="40.499999999999886" y1="135" y2="135" stroke="black" stroke-width="5"/>
<line x1="40.499999999999886" x2="40.999999999999886" y1="135" y2="135" stroke="black" stroke-width="5"/>
<line x1="40.999999999999886" x2="41.499999999999886" y1="135" y2="135" stroke="black" stroke-width="5"/>
<line x1="41.499999999999886" x2="41.999999999999886" y1="135" y2="135" stroke="black" stroke-width="5"/>
<line x1="41.999999999999886" x2="42.499999999999886" y1="135" y2="135" stroke="black" stroke-width="5"/>
<line x1="42.49999999999986" x2="42.99999999999986" y1="135" y2="135" stroke="black" stroke-width="5"/>
<line x1="42.99999999999986" x2="43.49999999999986" y1="135" y2="135" stroke="black" stroke-width="5"/>
<line x1="43.49999999999986" x2="43.99999999999986" y1="135" y2="135" stroke="black" stroke-width="5"/>
<line x1="49.99999999999983" x2="50.49999999999983" y1="135" y2="135" stroke="black" stroke-width="5"/>
<line x1="50.49999999999983" x2="50.99999999999983" y1="135" y2="135" stroke="black" stroke-width="5"/>
<line x1="50.99999999999983" x2="51.49999999999983" y1="135" y2="135" stroke="black" stroke-width="5"/>
<line x1="51.49999999999983" x2="51.99999999999983" y1="135" y2="135" stroke="black" stroke-width="5"/>
<line x1="51.99999999999983" x2="52.49999999999983" y1="135" y2="135" stroke="black" stroke-width="5"/>
<line x1="52.4999999999998" x2="52.9999999999998" y1="135" y2="135" stroke="black" stroke-width="5"/>
<line x1="52.9999999999998" x2="53.4999999999998" y1="135" y2="135" stroke="black" stroke-width="5"/>
<line x1="53.4999999999998" x2="53.9999999999998" y1="135" y2="135" stroke="black" stroke-width="5"/>
<line x1="53.9999999999998" x2="54.4999999999998" y1="135" y2="135" stroke="black" stroke-width="5"/>
<line x1="54.4999999999998" x2="54.9999999999998" y1="135" y2="135" stroke="black" stroke-width="5"/>
<line x1="54.9999999999998" x2="55.4999999999998" y1="135" y2="135" stroke="black" stroke-width="5"/>
<line x1="55.4999999999998" x2="55.9999999999998" y1="135" y2="135" stroke="black" stroke-width="5"/>
<line x1="61.999999999999744" x2="62.499999999999744" y1="135" y2="135" stroke="black" stroke-width="5"/>
<line x1="62.499999999999744" x2="62.999999999999744" y1="135" y2="135" stroke="black" stroke-width="5"/>
<line x1="62.999999999999744" x2="63.499999999999744" y1="135" y2="135" stroke="black" stroke-width="5"/>
<line x1="63.499999999999744" x2="63.999999999999744" y1="135" y2="135" stroke="black" stroke-width="5"/>
<line x1="63.999999999999744" x2="64.49999999999974" y1="135" y2="135" stroke="black" stroke-width="5"/>
<line x1="64.49999999999974" x2="64.99999999999974" y1="135" y2="135" stroke="black" stroke-width="5"/>
<line x1="64.99999999999974" x2="65.49999999999974" y1="135" y2="135" stroke="black" stroke-width="5"/>
<line x1="65.49999999999974" x2="65.99999999999974" y1="135" y2="135" stroke="black" stroke-width="5"/>
<line x1="65.99999999999974" x2="66.49999999999974" y1="135" y2="135" stroke="black" stroke-width="5"/>
<line x1="66.49999999999974" x2="66.99999999999974" y1="135" y2="135" stroke="black" stroke-width="5"/>
<line x1="66.99999999999972" x2="67.49999999999972" y1="135" y2="135" stroke="black" stroke-width="5"/>
<line x1="67.49999999999972" x2="67.99999999999972" y1="135" y2="135" stroke="black" stroke-width="5"/>
<line x1="73.99999999999969" x2="74.49999999999969" y1="135" y2="135" stroke="black" stroke-width="5"/>
<line x1="74.49999999999969" x2="74.99999999999969" y1="135" y2="135" stroke="black" stroke-width="5"/>
<line x1="74.99999999999969" x2="75.49999999999969" y1="135" y2="135" stroke="black" stroke-width="5"/>
<line x1="75.49999999999969" x2="75.99999999999969" y1="135" y2="135" stroke="black" stroke-width="5"/>
<line x1="75.99999999999969" x2="76.49999999999969" y1="135" y2="135" stroke="black" stroke-width="5"/>
<line x1="76.49999999999969" x2="76.99999999999969" y1="135" y2="135" stroke="black" stroke-width="5"/>
<line x1="76.99999999999966" x2="77.49999999999966" y1="135" y2="135" stroke="black" stroke-width="5"/>
<line x1="77.49999999999966" x2="77.99999999999966" y1="135" y2="135" stroke="black" stroke-width="5"/>
<line x1="77.99999999999966" x2="78.49999999999966" y1="135" y2="135" stroke="black" stroke-width="5"/>
<line x1="78.49999999999966" x2="78.99999999999966" y1="135" y2="135" stroke="black" stroke-width="5"/>
<line x1="78.99999999999966" x2="79.49999999999966" y1="135" y2="135" stroke="black" stroke-width="5"/>
<line x1="79.49999999999966" x2="79.99999999999966" y1="135" y2="135" stroke="black" stroke-width="5"/>
<line x1="85.99999999999963" x2="86.49999999999963" y1="135" y2="135" stroke="black" stroke-width="5"/>
<line x1="86.4999999999996" x2="86.9999999999996" y1="135" y2="135" stroke="black" stroke-width="5"/>
<line x1="86.9999999999996" x2="87.4999999999996" y1="135" y2="135" stroke="black" stroke-width="5"/>
<line x1="87.4999999999996" x2="87.9999999999996" y1="135" y2="135" stroke="black" stroke-width="5"/>
<line x1="87.9999999999996" x2="88.4999999999996" y1="135" y2="135" stroke="black" stroke-width="5"/>
<line x1="88.4999999999996" x2="88.9999999999996" y1="135" y2="135" stroke="black" stroke-width="5"/>
<line x1="88.9999999999996" x2="89.4999999999996" y1="135" y2="135" stroke="black" stroke-width="5"/>
<line x1="89.4999999999996" x2="89.9999999999996" y1="135" y2="135" stroke="black" stroke-width="5"/>
<line x1="89.9999999999996" x2="90.4999999999996" y1="135" y2="135" stroke="black" stroke-width="5"/>
<line x1="90.4999999999996" x2="90.9999999999996" y1="135" y2="135" stroke="black" stroke-width="5"/>
<line x1="90.9999999999996" x2="91.4999999999996" y1="135" y2="135" stroke="black" stroke-width="5"/>
<line x1="91.49999999999957" x2="91.99999999999957" y1="135" y2="135" stroke="black" stroke-width="5"/>
<line x1="97.99999999999955" x2="98.49999999999955" y1="135" y2="135" stroke="black" stroke-width="5"/>
<line x1="98.49999999999955" x2="98.99999999999955" y1="135" y2="135" stroke="black" stroke-width="5"/>
<line x1="98.99999999999955" x2="99.49999999999955" y1="135" y2="135" stroke="black" stroke-width="5"/>
<line x1="99.49999999999955" x2="99.99999999999955" y1="135" y2="135" stroke="black" stroke-width="5"/>
<line x1="99.99999999999955" x2="100.49999999999955" y1="135" y2="135" stroke="black" stroke-width="5"/>
<line x1="100.49999999999955" x2="100.99999999999955" y1="135" y2="135" stroke="black" stroke-width="5"/>
<line x1="100.99999999999955" x2="101.49999999999955" y1="135" y2="135" stroke="black" stroke-width="5"/>
<line x1="101.49999999999952" x2="101.99999999999952" y1="135" y2="135" stroke="black" stroke-width="5"/>
<line x1="101.99999999999952" x2="102.49999999999952" y1="135" y2="135" stroke="black" stroke-width="5"/>
<line x1="102.49999999999952" x2="102.99999999999952" y1="135" y2="135" stroke="black" stroke-width="5"/>
<line x1="102.99999999999952" x2="103.49999999999952" y1="135" y2="135" stroke="black" stroke-width="5"/>
<line x1="103.49999999999952" x2="103.99999999999952" y1="135" y2="135" stroke="black" stroke-width="5"/>
<line x1="109.99999999999949" x2="110.49999999999949" y1="135" y2="135" stroke="black" stroke-width="5"/>
<line x1="110.49999999999949" x2="110.99999999999949" y1="135" y2="135" stroke="black" stroke-width="5"/>
<line x1="110.99999999999949" x2="111.49999999999949" y1="135" y2="135" stroke="black" stroke-width="5"/>
<line x1="111.49999999999946" x2="111.99999999999946" y1="135" y2="135" stroke="black" stroke-width="5"/>
<line x1="111.99999999999946" x2="112.49999999999946" y1="135" y2="135" stroke="black" stroke-width="5"/>
<line x1="112.49999999999946" x2="112.99999999999946" y1="135" y2="135" stroke="black" stroke-width="5"/>
<line x1="112.99999999999946" x2="113.49999999999946" y1="135" y2="135" stroke="black" stroke-width="5"/>
<line x1="113.49999999999946" x2="113.99999999999946" y1="135" y2="135" stroke="black" stroke-width="5"/>
<line x1="113.99999999999946" x2="114.49999999999946" y1="135" y2="135" stroke="black" stroke-width="5"/>
<line x1="114.49999999999946" x2="114.99999999999946" y1="135" y2="135" stroke="black" stroke-width="5"/>
<line x1="114.99999999999946" x2="115.49999999999946" y1="135" y2="135" stroke="black" stroke-width="5"/>
<line x1="115.49999999999946" x2="115.99999999999946" y1="135" y2="135" stroke="black" stroke-width="5"/>
<line x1="121.9999999999994" x2="122.4999999999994" y1="135" y2="135" stroke="black" stroke-width="5"/>
<line x1="122.4999999999994" x2="122.9999999999994" y1="135" y2="135" stroke="black" stroke-width="5"/>
<line x1="122.9999999999994" x2="123.4999999999994" y1="135" y2="135" stroke="black" stroke-width="5"/>
<line x1="123.4999999999994" x2="123.9999999999994" y1="135" y2="135" stroke="black" stroke-width="5"/>
<line x1="123.9999999999994" x2="124.4999999999994" y1="135" y2="135" stroke="black" stroke-width="5"/>
<line x1="124.4999999999994" x2="124.9999999999994" y1="135" y2="135" stroke="black" stroke-width="5"/>
<line x1="124.99999999999939" x2="125.49999999999939" y1="135" y2="135" stroke="black" stroke-width="5"/>
<line x1="125.49999999999939" x2="125.99999999999939" y1="135" y2="135" stroke="black" stroke-width="5"/>
<line x1="125.99999999999939" x2="126.49999999999939" y1="135" y2="135" stroke="black" stroke-width="5"/>
<line x1="126.49999999999939" x2="126.99999999999939" y1="135" y2="135" stroke="black" stroke-width="5"/>
<line x1="126.99999999999939" x2="127.49999999999939" y1="135" y2="135" stroke="black" stroke-width="5"/>
<line x1="127.49999999999937" x2="127.99999999999937" y1="135" y2="135" stroke="black" stroke-width="5"/>
<line x1="133.99999999999935" x2="134.49999999999935" y1="135" y2="135" stroke="black" stroke-width="5"/>
<line x1="134.49999999999932" x2="134.99999999999932" y1="135" y2="135" stroke="black" stroke-width="5"/>
<line x1="134.99999999999932" x2="135.49999999999932" y1="135" y2="135" stroke="black" stroke-width="5"/>
<line x1="135.49999999999932" x2="135.99999999999932" y1="135" y2="135" stroke="black" stroke-width="5"/>
<line x1="135.99999999999932" x2="136.49999999999932" y1="135" y2="135" stroke="black" stroke-width="5"/>
<line x1="136.49999999999932" x2="136.99999999999932" y1="135" y2="135" stroke="black" stroke-width="5"/>
<line x1="136.99999999999932" x2="137.49999999999932" y1="135" y2="135" stroke="black" stroke-width="5"/>
<line x1="137.49999999999932" x2="137.99999999999932" y1="135" y2="135" stroke="black" stroke-width="5"/>
<line x1="137.99999999999932" x2="138.49999999999932" y1="135" y2="135" stroke="black" stroke-width="5"/>
<line x1="138.49999999999932" x2="138.99999999999932" y1="135" y2="135" stroke="black" stroke-width="5"/>
<line x1="138.99999999999932" x2="139.49999999999932" y1="135" y2="135" stroke="black" stroke-width="5"/>
<line x1="139.49999999999932" x2="139.99999999999932" y1="135" y2="135" stroke="black" stroke-width="5"/>
<line x1="145.99999999999926" x2="146.49999999999926" y1="135" y2="135" stroke="black" stroke-width="5"/>
<line x1="146.49999999999926" x2="146.99999999999926" y1="135" y2="135" stroke="black" stroke-width="5"/>
<line x1="146.99999999999926" x2="147.49999999999926" y1="135" y2="135" stroke="black" stroke-width="5"/>
<line x1="147.49999999999926" x2="147.99999999999926" y1="135" y2="135" stroke="black" stroke-width="5"/>
<line x1="147.99999999999926" x2="148.49999999999926" y1="135" y2="135" stroke="black" stroke-width="5"/>
<line x1="148.49999999999926" x2="148.99999999999926" y1="135" y2="135" stroke="black" stroke-width="5"/>
<line x1="148.99999999999926" x2="149.49999999999926" y1="135" y2="135" stroke="black" stroke-width="5"/>
<line x1="149.49999999999926" x2="149.99999999999926" y1="135" y2="135" stroke="black" stroke-width="5"/>
<line x1="149.99999999999926" x2="150.49999999999926" y1="135" y2="135" stroke="black" stroke-width="5"/>
<line x1="150.49999999999926" x2="150.99999999999926" y1="135" y2="135" stroke="black" stroke-width="5"/>
<line x1="150.99999999999926" x2="151.49999999999926" y1="135" y2="135" stroke="black" stroke-width="5"/>
<line x1="151.49999999999926" x2="151.99999999999926" y1="135" y2="135" stroke="black" stroke-width="5"/>
<line x1="157.9999999999992" x2="158.4999999999992" y1="135" y2="135" stroke="black" stroke-width="5"/>
<line x1="158.4999999999992" x2="158.9999999999992" y1="135" y2="135" stroke="black" stroke-width="5"/>
<line x1="158.9999999999992" x2="159.4999999999992" y1="135" y2="135" stroke="black" stroke-width="5"/>
<line x1="159.4999999999992" x2="159.9999999999992" y1="135" y2="135" stroke="black" stroke-width="5"/>
<line x1="159.9999999999992" x2="160.4999999999992" y1="135" y2="135" stroke="black" stroke-width="5"/>
<line x1="160.4999999999992" x2="160.9999999999992" y1="135" y2="135" stroke="black" stroke-width="5"/>
<line x1="160.9999999999992" x2="161.4999999999992" y1="135" y2="135" stroke="black" stroke-width="5"/>
<line x1="161.4999999999992" x2="161.9999999999992" y1="135" y2="135" stroke="black" stroke-width="5"/>
<line x1="161.99999999999918" x2="162.49999999999918" y1="135" y2="135" stroke="black" stroke-width="5"/>
<line x1="162.49999999999918" x2="162.99999999999918" y1="135" y2="135" stroke="black" stroke-width="5"/>
<line x1="162.99999999999918" x2="163.49999999999918" y1="135" y2="135" stroke="black" stroke-width="5"/>
<line x1="163.49999999999918" x2="163.99999999999918" y1="135" y2="135" stroke="black" stroke-width="5"/>
<line x1="169.99999999999915" x2="170.49999999999915" y1="135" y2="135" stroke="black" stroke-width="5"/>
<line x1="170.49999999999915" x2="170.99999999999915" y1="135" y2="135" stroke="black" stroke-width="5"/>
<line x1="170.99999999999915" x2="171.49999999999915" y1="135" y2="135" stroke="black" stroke-width="5"/>
<line x1="171.49999999999912" x2="171.99999999999912" y1="135" y2="135" stroke="black" stroke-width="5"/>
<line x1="171.99999999999912" x2="172.49999999999912" y1="135" y2="135" stroke="black" stroke-width="5"/>
<line x1="172.49999999999912" x2="172.99999999999912" y1="135" y2="135" stroke="black" stroke-width="5"/>
<line x1="172.99999999999912" x2="173.49999999999912" y1="135" y2="135" stroke="black" stroke-width="5"/>
<line x1="173.49999999999912" x2="173.99999999999912" y1="135" y2="135" stroke="black" stroke-width="5"/>
<line x1="173.9999999999991" x2="174.4999999999991" y1="135" y2="135" stroke="black" stroke-width="5"/>
<line x1="174.4999999999991" x2="174.9999999999991" y1="135" y2="135" stroke="black" stroke-width="5"/>
<line x1="174.9999999999991" x2="175.4999999999991" y1="135" y2="135" stroke="black" stroke-width="5"/>
<line x1="175.4999999999991" x2="175.9999999999991" y1="135" y2="135" stroke="black" stroke-width="5"/>
<line x1="181.99999999999906" x2="182.49999999999906" y1="135" y2="135" stroke="black" stroke-width="5"/>
<line x1="182.49999999999906" x2="182.99999999999906" y1="135" y2="135" stroke="black" stroke-width="5"/>
<line x1="182.99999999999906" x2="183.49999999999906" y1="135" y2="135" stroke="black" stroke-width="5"/>
<line x1="183.49999999999906" x2="183.99999999999906" y1="135" y2="135" stroke="black" stroke-width="5"/>
<line x1="183.99999999999903" x2="184.49999999999903" y1="135" y2="135" stroke="black" stroke-width="5"/>
<line x1="184.49999999999903" x2="184.99999999999903" y1="135" y2="135" stroke="black" stroke-width="5"/>
<line x1="184.99999999999903" x2="185.49999999999903" y1="135" y2="135" stroke="black" stroke-width="5"/>
<line x1="185.49999999999903" x2="185.99999999999903" y1="135" y2="135" stroke="black" stroke-width="5"/>
<line x1="185.99999999999903" x2="186.49999999999903" y1="135" y2="135" stroke="black" stroke-width="5"/>
<line x1="186.49999999999903" x2="186.99999999999903" y1="135" y2="135" stroke="black" stroke-width="5"/>
<line x1="186.99999999999903" x2="187.49999999999903" y1="135" y2="135" stroke="black" stroke-width="5"/>
<line x1="187.49999999999903" x2="187.99999999999903" y1="135" y2="135" stroke="black" stroke-width="5"/>
<line x1="193.999999999999" x2="194.499999999999" y1="135" y2="135" stroke="black" stroke-width="5"/>
<line x1="194.49999999999898" x2="194.99999999999898" y1="135" y2="135" stroke="black" stroke-width="5"/>
<line x1="194.99999999999898" x2="195.49999999999898" y1="135" y2="135" stroke="black" stroke-width="5"/>
<line x1="195.49999999999898" x2="195.99999999999898" y1="135" y2="135" stroke="black" stroke-width="5"/>
<line x1="195.99999999999898" x2="196.49999999999898" y1="135" y2="135" stroke="black" stroke-width="5"/>
<line x1="196.49999999999898" x2="196.99999999999898" y1="135" y2="135" stroke="black" stroke-width="5"/>
<line x1="196.99999999999898" x2="197.49999999999898" y1="135" y2="135" stroke="black" stroke-width="5"/>
<line x1="197.49999999999898" x2="197.99999999999898" y1="135" y2="135" stroke="black" stroke-width="5"/>
<line x1="197.99999999999898" x2="198.49999999999898" y1="135" y2="135" stroke="black" stroke-width="5"/>
<line x1="198.49999999999898" x2="198.99999999999898" y1="135" y2="135" stroke="black" stroke-width="5"/>
<line x1="198.99999999999898" x2="199.49999999999898" y1="135" y2="135" stroke="black" stroke-width="5"/>
<line x1="199.49999999999898" x2="199.99999999999898" y1="135" y2="135" stroke="black" stroke-width="5"/>
<line x1="205.99999999999892" x2="206.49999999999892" y1="135" y2="135" stroke="black" stroke-width="5"/>
<line x1="206.49999999999892" x2="206.99999999999892" y1="135" y2="135" stroke="black" stroke-width="5"/>
<line x1="206.99999999999892" x2="207.49999999999892" y1="135" y2="135" stroke="black" stroke-width="5"/>
<line x1="207.49999999999892" x2="207.99999999999892" y1="135" y2="135" stroke="black" stroke-width="5"/>
<line x1="207.99999999999892" x2="208.49999999999892" y1="135" y2="135" stroke="black" stroke-width="5"/>
<line x1="208.49999999999892" x2="208.99999999999892" y1="135" y2="135" stroke="black" stroke-width="5"/>
<line x1="208.99999999999892" x2="209.49999999999892" y1="135" y2="135" stroke="black" stroke-width="5"/>
<line x1="209.49999999999892" x2="209.99999999999892" y1="135" y2="135" stroke="black" stroke-width="5"/>
<line x1="209.99999999999892" x2="210.49999999999892" y1="135" y2="135" stroke="black" stroke-width="5"/>
<line x1="210.4999999999989" x2="210.9999999999989" y1="135" y2="135" stroke="black" stroke-width="5"/>
<line x1="210.9999999999989" x2="211.4999999999989" y1="135" y2="135" stroke="black" stroke-width="5"/>
<line x1="211.4999999999989" x2="211.9999999999989" y1="135" y2="135" stroke="black" stroke-width="5"/>
<line x1="217.99999999999886" x2="218.49999999999886" y1="135" y2="135" stroke="black" stroke-width="5"/>
<line x1="218.49999999999886" x2="218.99999999999886" y1="135" y2="135" stroke="black" stroke-width="5"/>
<line x1="218.99999999999886" x2="219.49999999999886" y1="135" y2="135" stroke="black" stroke-width="5"/>
<line x1="219.49999999999886" x2="219.99999999999886" y1="135" y2="135" stroke="black" stroke-width="5"/>
<line x1="219.99999999999883" x2="220.49999999999883" y1="135" y2="135" stroke="black" stroke-width="5"/>
<line x1="220.49999999999883" x2="220.99999999999883" y1="135" y2="135" stroke="black" stroke-width="5"/>
<line x1="220.99999999999883" x2="221.49999999999883" y1="135" y2="135" stroke="black" stroke-width="5"/>
<line x1="221.49999999999883" x2="221.99999999999883" y1="135" y2="135" stroke="black" stroke-width="5"/>
<line x1="221.99999999999883" x2="222.49999999999883" y1="135" y2="135" stroke="black" stroke-width="5"/>
<line x1="222.49999999999883" x2="222.99999999999883" y1="135" y2="135" stroke="black" stroke-width="5"/>
<line x1="222.99999999999883" x2="223.49999999999883" y1="135" y2="135" stroke="black" stroke-width="5"/>
<line x1="223.49999999999883" x2="223.99999999999883" y1="135" y2="135" stroke="black" stroke-width="5"/>
<line x1="229.99999999999883" x2="230.49999999999883" y1="135" y2="135" stroke="black" stroke-width="5"/>
<line x1="230.49999999999883" x2="230.99999999999883" y1="135" y2="135" stroke="black" stroke-width="5"/>
<line x1="230.99999999999883" x2="231.49999999999883" y1="135" y2="135" stroke="black" stroke-width="5"/>
<line x1="231.49999999999883" x2="231.99999999999883" y1="135" y2="135" stroke="black" stroke-width="5"/>
<line x1="231.99999999999883" x2="232.49999999999883" y1="135" y2="135" stroke="black" stroke-width="5"/>
<line x1="232.49999999999883" x2="232.99999999999883" y1="135" y2="135" stroke="black" stroke-width="5"/>
<line x1="232.99999999999883" x2="233.49999999999883" y1="135" y2="135" stroke="black" stroke-width="5"/>
<line x1="233.49999999999886" x2="233.99999999999886" y1="135" y2="135" stroke="black" stroke-width="5"/>
<line x1="233.99999999999886" x2="234.49999999999886" y1="135" y2="135" stroke="black" stroke-width="5"/>
<line x1="234.49999999999883" x2="234.99999999999883" y1="135" y2="135" stroke="black" stroke-width="5"/>
<line x1="234.99999999999886" x2="235.49999999999886" y1="135" y2="135" stroke="black" stroke-width="5"/>
<line x1="235.49999999999886" x2="235.99999999999886" y1="135" y2="135" stroke="black" stroke-width="5"/>
<line x1="241.99999999999886" x2="242.49999999999886" y1="135" y2="135" stroke="black" stroke-width="5"/>
<line x1="242.49999999999886" x2="242.99999999999886" y1="135" y2="135" stroke="black" stroke-width="5"/>
<line x1="242.99999999999886" x2="243.49999999999886" y1="135" y2="135" stroke="black" stroke-width="5"/>
<line x1="243.49999999999886" x2="243.99999999999886" y1="135" y2="135" stroke="black" stroke-width="5"/>
<line x1="243.99999999999886" x2="244.49999999999886" y1="135" y2="135" stroke="black" stroke-width="5"/>
<line x1="244.49999999999886" x2="244.99999999999886" y1="135" y2="135" stroke="black" stroke-width="5"/>
<line x1="244.99999999999886" x2="245.49999999999886" y1="135" y2="135" stroke="black" stroke-width="5"/>
<line x1="245.49999999999886" x2="245.99999999999886" y1="135" y2="135" stroke="black" stroke-width="5"/>
<line x1="245.99999999999886" x2="246.49999999999886" y1="135" y2="135" stroke="black" stroke-width="5"/>
<line x1="246.49999999999886" x2="246.99999999999886" y1="135" y2="135" stroke="black" stroke-width="5"/>
<line x1="246.99999999999886" x2="247.49999999999886" y1="135" y2="135" stroke="black" stroke-width="5"/>
<line x1="247.49999999999886" x2="247.99999999999886" y1="135" y2="135" stroke="black" stroke-width="5"/>
<line x1="253.99999999999886" x2="254.49999999999886" y1="135" y2="135" stroke="black" stroke-width="5"/>
<line x1="254.49999999999886" x2="254.99999999999886" y1="135" y2="135" stroke="black" stroke-width="5"/>
<line x1="254.99999999999886" x2="255.49999999999886" y1="135" y2="135" stroke="black" stroke-width="5"/>
<line x1="255.49999999999886" x2="255.99999999999886" y1="135" y2="135" stroke="black" stroke-width="5"/>
<line x1="255.99999999999886" x2="256.49999999999886" y1="135" y2="135" stroke="black" stroke-width="5"/>
<line x1="256.49999999999886" x2="256.99999999999886" y1="135" y2="135" stroke="black" stroke-width="5"/>
<line x1="256.99999999999886" x2="257.49999999999886" y1="135" y2="135" stroke="black" stroke-width="5"/>
<line x1="257.49999999999886" x2="257.99999999999886" y1="135" y2="135" stroke="black" stroke-width="5"/>
<line x1="257.99999999999886" x2="258.49999999999886" y1="135" y2="135" stroke="black" stroke-width="5"/>
<line x1="258.49999999999886" x2="258.99999999999886" y1="135" y2="135" stroke="black" stroke-width="5"/>
<line x1="258.99999999999886" x2="259.49999999999886" y1="135" y2="135" stroke="black" stroke-width="5"/>
<line x1="259.49999999999886" x2="259.99999999999886" y1="135" y2="135" stroke="black" stroke-width="5"/>
<line x1="265.99999999999886" x2="266.49999999999886" y1="135" y2="135" stroke="black" stroke-width="5"/>
<line x1="266.49999999999886" x2="266.99999999999886" y1="135" y2="135" stroke="black" stroke-width="5"/>
<line x1="266.99999999999886" x2="267.49999999999886" y1="135" y2="135" stroke="black" stroke-width="5"/>
<line x1="267.49999999999886" x2="267.99999999999886" y1="135" y2="135" stroke="black" stroke-width="5"/>
<line x1="267.99999999999886" x2="268.49999999999886" y1="135" y2="135" stroke="black" stroke-width="5"/>
<line x1="268.49999999999886" x2="268.99999999999886" y1="135" y2="135" stroke="black" stroke-width="5"/>
<line x1="268.99999999999886" x2="269.49999999999886" y1="135" y2="135" stroke="black" stroke-width="5"/>
<line x1="269.49999999999886" x2="269.99999999999886" y1="135" y2="135" stroke="black" stroke-width="5"/>
<line x1="269.99999999999886" x2="270.49999999999886" y1="135" y2="135" stroke="black" stroke-width="5"/>
<line x1="270.49999999999886" x2="270.99999999999886" y1="135" y2="135" stroke="black" stroke-width="5"/>
<line x1="270.99999999999886" x2="271.49999999999886" y1="135" y2="135" stroke="black" stroke-width="5"/>
<line x1="271.49999999999886" x2="271.99999999999886" y1="135" y2="135" stroke="black" stroke-width="5"/>
<line x1="277.99999999999886" x2="278.49999999999886" y1="135" y2="135" stroke="black" stroke-width="5"/>
<line x1="278.49999999999886" x2="278.99999999999886" y1="135" y2="135" stroke="black" stroke-width="5"/>
<line x1="278.99999999999886" x2="279.49999999999886" y1="135" y2="135" stroke="black" stroke-width="5"/>
<line x1="279.49999999999886" x2="279.99999999999886" y1="135" y2="135" stroke="black" stroke-width="5"/>
<line x1="279.99999999999886" x2="280.49999999999886" y1="135" y2="135" stroke="black" stroke-width="5"/>
<line x1="280.49999999999886" x2="280.99999999999886" y1="135" y2="135" stroke="black" stroke-width="5"/>
<line x1="280.99999999999886" x2="281.49999999999886" y1="135" y2="135" stroke="black" stroke-width="5"/>
<line x1="281.49999999999886" x2="281.99999999999886" y1="135" y2="135" stroke="black" stroke-width="5"/>
<line x1="281.99999999999886" x2="282.49999999999886" y1="135" y2="135" stroke="black" stroke-width="5"/>
<line x1="282.49999999999886" x2="282.99999999999886" y1="135" y2="135" stroke="black" stroke-width="5"/>
<line x1="282.99999999999886" x2="283.49999999999886" y1="135" y2="135" stroke="black" stroke-width="5"/>
<line x1="283.49999999999886" x2="283.99999999999886" y1="135" y2="135" stroke="black" stroke-width="5"/>
<line x1="289.9999999999988" x2="290.4999999999988" y1="135" y2="135" stroke="black" stroke-width="5"/>
<line x1="290.4999999999988" x2="290.9999999999988" y1="135" y2="135" stroke="black" stroke-width="5"/>
<line x1="290.9999999999988" x2="291.4999999999988" y1="135" y2="135" stroke="black" stroke-width="5"/>
<line x1="291.4999999999988" x2="291.9999999999988" y1="135" y2="135" stroke="black" stroke-width="5"/>
<line x1="291.9999999999988" x2="292.4999999999988" y1="135" y2="135" stroke="black" stroke-width="5"/>
<line x1="292.4999999999988" x2="292.9999999999988" y1="135" y2="135" stroke="black" stroke-width="5"/>
<line x1="292.9999999999988" x2="293.4999999999988" y1="135" y2="135" stroke="black" stroke-width="5"/>
<line x1="293.4999999999988" x2="293.9999999999988" y1="135" y2="135" stroke="black" stroke-width="5"/>
<line x1="293.9999999999988" x2="294.4999999999988" y1="135" y2="135" stroke="black" stroke-width="5"/>
<line x1="294.49999999999875" x2="294.99999999999875" y1="135" y2="135" stroke="black" stroke-width="5"/>
<line x1="294.99999999999875" x2="295.49999999999875" y1="135" y2="135" stroke="black" stroke-width="5"/>
<line x1="295.49999999999875" x2="295.99999999999875" y1="135" y2="135" stroke="black" stroke-width="5"/>
<line x1="301.99999999999875" x2="302.49999999999875" y1="135" y2="135" stroke="black" stroke-width="5"/>
<line x1="302.49999999999875" x2="302.99999999999875" y1="135" y2="135" stroke="black" stroke-width="5"/>
<line x1="302.99999999999875" x2="303.49999999999875" y1="135" y2="135" stroke="black" stroke-width="5"/>
<line x1="303.49999999999875" x2="303.99999999999875" y1="135" y2="135" stroke="black" stroke-width="5"/>
<line x1="303.99999999999875" x2="304.49999999999875" y1="135" y2="135" stroke="black" stroke-width="5"/>
<line x1="304.49999999999875" x2="304.99999999999875" y1="135" y2="135" stroke="black" stroke-width="5"/>
<line x1="304.99999999999875" x2="305.49999999999875" y1="135" y2="135" stroke="black" stroke-width="5"/>
<line x1="305.4999999999987" x2="305.9999999999987" y1="135" y2="135" stroke="black" stroke-width="5"/>
<line x1="305.9999999999987" x2="306.4999999999987" y1="135" y2="135" stroke="black" stroke-width="5"/>
<line x1="306.4999999999987" x2="306.9999999999987" y1="135" y2="135" stroke="black" stroke-width="5"/>
<line x1="306.9999999999987" x2="307.4999999999987" y1="135" y2="135" stroke="black" stroke-width="5"/>
<line x1="307.4999999999987" x2="307.9999999999987" y1="135" y2="135" stroke="black" stroke-width="5"/>
<line x1="313.9999999999987" x2="314.4999999999987" y1="135" y2="135" stroke="black" stroke-width="5"/>
<line x1="314.49999999999864" x2="314.99999999999864" y1="135" y2="135" stroke="black" stroke-width="5"/>
<line x1="314.99999999999864" x2="315.49999999999864" y1="135" y2="135" stroke="black" stroke-width="5"/>
<line x1="315.49999999999864" x2="315.99999999999864" y1="135" y2="135" stroke="black" stroke-width="5"/>
<line x1="315.99999999999864" x2="316.49999999999864" y1="135" y2="135" stroke="black" stroke-width="5"/>
<line x1="316.49999999999864" x2="316.99999999999864" y1="135" y2="135" stroke="black" stroke-width="5"/>
<line x1="316.99999999999864" x2="317.49999999999864" y1="135" y2="135" stroke="black" stroke-width="5"/>
<line x1="317.49999999999864" x2="317.99999999999864" y1="135" y2="135" stroke="black" stroke-width="5"/>
<line x1="317.99999999999864" x2="318.49999999999864" y1="135" y2="135" stroke="black" stroke-width="5"/>
<line x1="318.49999999999864" x2="318.99999999999864" y1="135" y2="135" stroke="black" stroke-width="5"/>
<line x1="318.99999999999864" x2="319.49999999999864" y1="135" y2="135" stroke="black" stroke-width="5"/>
<line x1="319.49999999999864" x2="319.99999999999864" y1="135" y2="135" stroke="black" stroke-width="5"/>
<line x1="325.99999999999864" x2="326.49999999999864" y1="135" y2="135" stroke="black" stroke-width="5"/>
<line x1="326.49999999999864" x2="326.99999999999864" y1="135" y2="135" stroke="black" stroke-width="5"/>
<line x1="326.9999999999986" x2="327.4999999999986" y1="135" y2="135" stroke="black" stroke-width="5"/>
<line x1="327.4999999999986" x2="327.9999999999986" y1="135" y2="135" stroke="black" stroke-width="5"/>
<line x1="327.9999999999986" x2="328.4999999999986" y1="135" y2="135" stroke="black" stroke-width="5"/>
<line x1="328.4999999999986" x2="328.9999999999986" y1="135" y2="135" stroke="black" stroke-width="5"/>
<line x1="328.9999999999986" x2="329.4999999999986" y1="135" y2="135" stroke="black" stroke-width="5"/>
<line x1="329.4999999999986" x2="329.9999999999986" y1="135" y2="135" stroke="black" stroke-width="5"/>
<line x1="329.9999999999986" x2="330.4999999999986" y1="135" y2="135" stroke="black" stroke-width="5"/>
<line x1="330.4999999999986" x2="330.9999999999986" y1="135" y2="135" stroke="black" stroke-width="5"/>
<line x1="330.9999999999986" x2="331.4999999999986" y1="135" y2="135" stroke="black" stroke-width="5"/>
<line x1="331.4999999999986" x2="331.9999999999986" y1="135" y2="135" stroke="black" stroke-width="5"/>
<line x1="337.9999999999985" x2="338.4999999999985" y1="135" y2="135" stroke="black" stroke-width="5"/>
<line x1="338.4999999999985" x2="338.9999999999985" y1="135" y2="135" stroke="black" stroke-width="5"/>
<line x1="338.9999999999985" x2="339.4999999999985" y1="135" y2="135" stroke="black" stroke-width="5"/>
<line x1="339.4999999999985" x2="339.9999999999985" y1="135" y2="135" stroke="black" stroke-width="5"/>
<line x1="339.9999999999985" x2="340.4999999999985" y1="135" y2="135" stroke="black" stroke-width="5"/>
<line x1="340.4999999999985" x2="340.9999999999985" y1="135" y2="135" stroke="black" stroke-width="5"/>
<line x1="340.9999999999985" x2="341.4999999999985" y1="135" y2="135" stroke="black" stroke-width="5"/>
<line x1="341.4999999999985" x2="341.9999999999985" y1="135" y2="135" stroke="black" stroke-width="5"/>
<line x1="341.9999999999985" x2="342.4999999999985" y1="135" y2="135" stroke="black" stroke-width="5"/>
<line x1="342.4999999999985" x2="342.9999999999985" y1="135" y2="135" stroke="black" stroke-width="5"/>
<line x1="342.9999999999985" x2="343.4999999999985" y1="135" y2="135" stroke="black" stroke-width="5"/>
<line x1="343.4999999999985" x2="343.9999999999985" y1="135" y2="135" stroke="black" stroke-width="5"/>
<line x1="349.99999999999847" x2="350.49999999999847" y1="135" y2="135" stroke="black" stroke-width="5"/>
<line x1="350.49999999999847" x2="350.99999999999847" y1="135" y2="135" stroke="black" stroke-width="5"/>
<line x1="350.99999999999847" x2="351.49999999999847" y1="135" y2="135" stroke="black" stroke-width="5"/>
<line x1="351.49999999999847" x2="351.99999999999847" y1="135" y2="135" stroke="black" stroke-width="5"/>
<line x1="351.99999999999847" x2="352.49999999999847" y1="135" y2="135" stroke="black" stroke-width="5"/>
<line x1="352.49999999999847" x2="352.99999999999847" y1="135" y2="135" stroke="black" stroke-width="5"/>
<line x1="352.99999999999847" x2="353.49999999999847" y1="135" y2="135" stroke="black" stroke-width="5"/>
<line x1="353.49999999999847" x2="353.99999999999847" y1="135" y2="135" stroke="black" stroke-width="5"/>
<line x1="353.9999999999984" x2="354.4999999999984" y1="135" y2="135" stroke="black" stroke-width="5"/>
<line x1="354.4999999999984" x2="354.9999999999984" y1="135" y2="135" stroke="black" stroke-width="5"/>
<line x1="354.9999999999984" x2="355.4999999999984" y1="135" y2="135" stroke="black" stroke-width="5"/>
<line x1="355.4999999999984" x2="355.9999999999984" y1="135" y2="135" stroke="black" stroke-width="5"/>
<line x1="361.9999999999984" x2="362.4999999999984" y1="135" y2="135" stroke="black" stroke-width="5"/>
<line x1="362.4999999999984" x2="362.9999999999984" y1="135" y2="135" stroke="black" stroke-width="5"/>
<line x1="362.9999999999984" x2="363.4999999999984" y1="135" y2="135" stroke="black" stroke-width="5"/>
<line x1="363.4999999999984" x2="363.9999999999984" y1="135" y2="135" stroke="black" stroke-width="5"/>
<line x1="363.9999999999984" x2="364.4999999999984" y1="135" y2="135" stroke="black" stroke-width="5"/>
<line x1="364.4999999999984" x2="364.9999999999984" y1="135" y2="135" stroke="black" stroke-width="5"/>
<line x1="364.9999999999984" x2="365.4999999999984" y1="135" y2="135" stroke="black" stroke-width="5"/>
<line x1="365.4999999999984" x2="365.9999999999984" y1="135" y2="135" stroke="black" stroke-width="5"/>
<line x1="365.9999999999984" x2="366.4999999999984" y1="135" y2="135" stroke="black" stroke-width="5"/>
<line x1="366.4999999999984" x2="366.9999999999984" y1="135" y2="135" stroke="black" stroke-width="5"/>
<line x1="366.9999999999984" x2="367.4999999999984" y1="135" y2="135" stroke="black" stroke-width="5"/>
<line x1="367.4999999999984" x2="367.9999999999984" y1="135" y2="135" stroke="black" stroke-width="5"/>
<line x1="373.99999999999835" x2="374.49999999999835" y1="135" y2="135" stroke="black" stroke-width="5"/>
<line x1="374.49999999999835" x2="374.99999999999835" y1="135" y2="135" stroke="black" stroke-width="5"/>
<line x1="374.99999999999835" x2="375.49999999999835" y1="135" y2="135" stroke="black" stroke-width="5"/>
<line x1="375.49999999999835" x2="375.99999999999835" y1="135" y2="135" stroke="black" stroke-width="5"/>
<line x1="375.9999999999983" x2="376.4999999999983" y1="135" y2="135" stroke="black" stroke-width="5"/>
<line x1="376.4999999999983" x2="376.9999999999983" y1="135" y2="135" stroke="black" stroke-width="5"/>
<line x1="376.9999999999983" x2="377.4999999999983" y1="135" y2="135" stroke="black" stroke-width="5"/>
<line x1="377.4999999999983" x2="377.9999999999983" y1="135" y2="135" stroke="black" stroke-width="5"/>
<line x1="377.9999999999983" x2="378.4999999999983" y1="135" y2="135" stroke="black" stroke-width="5"/>
<line x1="378.4999999999983" x2="378.9999999999983" y1="135" y2="135" stroke="black" stroke-width="5"/>
<line x1="378.9999999999983" x2="379.4999999999983" y1="135" y2="135" stroke="black" stroke-width="5"/>
<line x1="379.4999999999983" x2="379.9999999999983" y1="135" y2="135" stroke="black" stroke-width="5"/>
<line x1="385.9999999999983" x2="386.4999999999983" y1="135" y2="135" stroke="black" stroke-width="5"/>
<line x1="386.4999999999983" x2="386.9999999999983" y1="135" y2="135" stroke="black" stroke-width="5"/>
<line x1="386.9999999999983" x2="387.4999999999983" y1="135" y2="135" stroke="black" stroke-width="5"/>
<line x1="387.4999999999983" x2="387.9999999999983" y1="135" y2="135" stroke="black" stroke-width="5"/>
<line x1="387.9999999999983" x2="388.4999999999983" y1="135" y2="135" stroke="black" stroke-width="5"/>
<line x1="388.4999999999983" x2="388.9999999999983" y1="135" y2="135" stroke="black" stroke-width="5"/>
<line x1="388.9999999999983" x2="389.4999999999983" y1="135" y2="135" stroke="black" stroke-width="5"/>
<line x1="389.49999999999824" x2="389.99999999999824" y1="135" y2="135" stroke="black" stroke-width="5"/>
<line x1="389.99999999999824" x2="390.49999999999824" y1="135" y2="135" stroke="black" stroke-width="5"/>
<line x1="390.49999999999824" x2="390.99999999999824" y1="135" y2="135" stroke="black" stroke-width="5"/>
<line x1="390.99999999999824" x2="391.49999999999824" y1="135" y2="135" stroke="black" stroke-width="5"/>
<line x1="391.49999999999824" x2="391.99999999999824" y1="135" y2="135" stroke="black" stroke-width="5"/>
<line x1="397.9999999999982" x2="398.4999999999982" y1="135" y2="135" stroke="black" stroke-width="5"/>
<line x1="398.4999999999982" x2="398.9999999999982" y1="135" y2="135" stroke="black" stroke-width="5"/>
<line x1="398.9999999999982" x2="399.4999999999982" y1="135" y2="135" stroke="black" stroke-width="5"/>
<line x1="399.4999999999982" x2="399.9999999999982" y1="135" y2="135" stroke="black" stroke-width="5"/>
<line x1="399.9999999999982" x2="400.4999999999982" y1="135" y2="135" stroke="black" stroke-width="5"/>
<line x1="400.4999999999982" x2="400.9999999999982" y1="135" y2="135" stroke="black" stroke-width="5"/>
<line x1="400.9999999999982" x2="401.4999999999982" y1="135" y2="135" stroke="black" stroke-width="5"/>
<line x1="401.4999999999982" x2="401.9999999999982" y1="135" y2="135" stroke="black" stroke-width="5"/>
<line x1="401.9999999999982" x2="402.4999999999982" y1="135" y2="135" stroke="black" stroke-width="5"/>
<line x1="402.4999999999982" x2="402.9999999999982" y1="135" y2="135" stroke="black" stroke-width="5"/>
<line x1="402.9999999999982" x2="403.4999999999982" y1="135" y2="135" stroke="black" stroke-width="5"/>
<line x1="403.4999999999982" x2="403.9999999999982" y1="135" y2="135" stroke="black" stroke-width="5"/>
<line x1="409.9999999999981" x2="410.4999999999981" y1="135" y2="135" stroke="black" stroke-width="5"/>
<line x1="410.4999999999981" x2="410.9999999999981" y1="135" y2="135" stroke="black" stroke-width="5"/>
<line x1="410.9999999999981" x2="411.4999999999981" y1="135" y2="135" stroke="black" stroke-width="5"/>
<line x1="411.4999999999981" x2="411.9999999999981" y1="135" y2="135" stroke="black" stroke-width="5"/>
<line x1="411.9999999999981" x2="412.4999999999981" y1="135" y2="135" stroke="black" stroke-width="5"/>
<line x1="412.4999999999981" x2="412.9999999999981" y1="135" y2="135" stroke="black" stroke-width="5"/>
<line x1="412.9999999999981" x2="413.4999999999981" y1="135" y2="135" stroke="black" stroke-width="5"/>
<line x1="413.4999999999981" x2="413.9999999999981" y1="135" y2="135" stroke="black" stroke-width="5"/>
<line x1="413.99999999999807" x2="414.49999999999807" y1="135" y2="135" stroke="black" stroke-width="5"/>
<line x1="414.49999999999807" x2="414.99999999999807" y1="135" y2="135" stroke="black" stroke-width="5"/>
<line x1="414.99999999999807" x2="415.49999999999807" y1="135" y2="135" stroke="black" stroke-width="5"/>
<line x1="415.49999999999807" x2="415.99999999999807" y1="135" y2="135" stroke="black" stroke-width="5"/>
<line x1="421.99999999999807" x2="422.49999999999807" y1="135" y2="135" stroke="black" stroke-width="5"/>
<line x1="422.49999999999807" x2="422.99999999999807" y1="135" y2="135" stroke="black" stroke-width="5"/>
<line x1="422.99999999999807" x2="423.49999999999807" y1="135" y2="135" stroke="black" stroke-width="5"/>
<line x1="423.49999999999807" x2="423.99999999999807" y1="135" y2="135" stroke="black" stroke-width="5"/>
<line x1="423.99999999999807" x2="424.49999999999807" y1="135" y2="135" stroke="black" stroke-width="5"/>
<line x1="424.49999999999807" x2="424.99999999999807" y1="135" y2="135" stroke="black" stroke-width="5"/>
<line x1="424.99999999999807" x2="425.49999999999807" y1="135" y2="135" stroke="black" stroke-width="5"/>
<line x1="425.49999999999807" x2="425.99999999999807" y1="135" y2="135" stroke="black" stroke-width="5"/>
<line x1="425.99999999999807" x2="426.49999999999807" y1="135" y2="135" stroke="black" stroke-width="5"/>
<line x1="426.49999999999807" x2="426.99999999999807" y1="135" y2="135" stroke="black" stroke-width="5"/>
<line x1="426.99999999999807" x2="427.49999999999807" y1="135" y2="135" stroke="black" stroke-width="5"/>
<line x1="427.49999999999807" x2="427.99999999999807" y1="135" y2="135" stroke="black" stroke-width="5"/>
<line x1="433.99999999999795" x2="434.49999999999795" y1="135" y2="135" stroke="black" stroke-width="5"/>
<line x1="434.49999999999795" x2="434.99999999999795" y1="135" y2="135" stroke="black" stroke-width="5"/>
<line x1="434.99999999999795" x2="435.49999999999795" y1="135" y2="135" stroke="black" stroke-width="5"/>
<line x1="435.49999999999795" x2="435.99999999999795" y1="135" y2="135" stroke="black" stroke-width="5"/>
<line x1="435.99999999999795" x2="436.49999999999795" y1="135" y2="135" stroke="black" stroke-width="5"/>
<line x1="436.49999999999795" x2="436.99999999999795" y1="135" y2="135" stroke="black" stroke-width="5"/>
<line x1="436.99999999999795" x2="437.49999999999795" y1="135" y2="135" stroke="black" stroke-width="5"/>
<line x1="437.49999999999795" x2="437.99999999999795" y1="135" y2="135" stroke="black" stroke-width="5"/>
<line x1="437.99999999999795" x2="438.49999999999795" y1="135" y2="135" stroke="black" stroke-width="5"/>
<line x1="438.49999999999795" x2="438.99999999999795" y1="135" y2="135" stroke="black" stroke-width="5"/>
<line x1="438.99999999999795" x2="439.49999999999795" y1="135" y2="135" stroke="black" stroke-width="5"/>
<line x1="439.49999999999795" x2="439.99999999999795" y1="135" y2="135" stroke="black" stroke-width="5"/>
<line x1="445.99999999999795" x2="446.49999999999795" y1="135" y2="135" stroke="black" stroke-width="5"/>
<line x1="446.49999999999795" x2="446.99999999999795" y1="135" y2="135" stroke="black" stroke-width="5"/>
<line x1="446.99999999999795" x2="447.49999999999795" y1="135" y2="135" stroke="black" stroke-width="5"/>
<line x1="447.49999999999795" x2="447.99999999999795" y1="135" y2="135" stroke="black" stroke-width="5"/>
<line x1="447.99999999999795" x2="448.49999999999795" y1="135" y2="135" stroke="black" stroke-width="5"/>
<line x1="448.4999999999979" x2="448.9999999999979" y1="135" y2="135" stroke="black" stroke-width="5"/>
<line x1="448.9999999999979" x2="449.4999999999979" y1="135" y2="135" stroke="black" stroke-width="5"/>
<line x1="449.4999999999979" x2="449.9999999999979" y1="135" y2="135" stroke="black" stroke-width="5"/>
<line x1="449.9999999999979" x2="450.4999999999979" y1="135" y2="135" stroke="black" stroke-width="5"/>
<line x1="450.4999999999979" x2="450.9999999999979" y1="135" y2="135" stroke="black" stroke-width="5"/>
<line x1="450.9999999999979" x2="451.4999999999979" y1="135" y2="135" stroke="black" stroke-width="5"/>
<line x1="451.4999999999979" x2="451.9999999999979" y1="135" y2="135" stroke="black" stroke-width="5"/>
<line x1="457.99999999999784" x2="458.49999999999784" y1="135" y2="135" stroke="black" stroke-width="5"/>
<line x1="458.49999999999784" x2="458.99999999999784" y1="135" y2="135" stroke="black" stroke-width="5"/>
<line x1="458.99999999999784" x2="459.49999999999784" y1="135" y2="135" stroke="black" stroke-width="5"/>
<line x1="459.49999999999784" x2="459.99999999999784" y1="135" y2="135" stroke="black" stroke-width="5"/>
<line x1="459.99999999999784" x2="460.49999999999784" y1="135" y2="135" stroke="black" stroke-width="5"/>
<line x1="460.49999999999784" x2="460.99999999999784" y1="135" y2="135" stroke="black" stroke-width="5"/>
<line x1="460.99999999999784" x2="461.49999999999784" y1="135" y2="135" stroke="black" stroke-width="5"/>
<line x1="461.49999999999784" x2="461.99999999999784" y1="135" y2="135" stroke="black" stroke-width="5"/>
<line x1="461.99999999999784" x2="462.49999999999784" y1="135" y2="135" stroke="black" stroke-width="5"/>
<line x1="462.49999999999784" x2="462.99999999999784" y1="135" y2="135" stroke="black" stroke-width="5"/>
<line x1="462.99999999999784" x2="463.49999999999784" y1="135" y2="135" stroke="black" stroke-width="5"/>
<line x1="463.49999999999784" x2="463.99999999999784" y1="135" y2="135" stroke="black" stroke-width="5"/>
<line x1="469.9999999999978" x2="470.4999999999978" y1="135" y2="135" stroke="black" stroke-width="5"/>
<line x1="470.4999999999978" x2="470.9999999999978" y1="135" y2="135" stroke="black" stroke-width="5"/>
<line x1="470.9999999999978" x2="471.4999999999978" y1="135" y2="135" stroke="black" stroke-width="5"/>
<line x1="471.4999999999978" x2="471.9999999999978" y1="135" y2="135" stroke="black" stroke-width="5"/>
<line x1="471.9999999999978" x2="472.4999999999978" y1="135" y2="135" stroke="black" stroke-width="5"/>
<line x1="472.4999999999978" x2="472.9999999999978" y1="135" y2="135" stroke="black" stroke-width="5"/>
<line x1="472.9999999999977" x2="473.4999999999977" y1="135" y2="135" stroke="black" stroke-width="5"/>
<line x1="473.4999999999977" x2="473.9999999999977" y1="135" y2="135" stroke="black" stroke-width="5"/>
<line x1="473.9999999999977" x2="474.4999999999977" y1="135" y2="135" stroke="black" stroke-width="5"/>
<line x1="474.4999999999977" x2="474.9999999999977" y1="135" y2="135" stroke="black" stroke-width="5"/>
<line x1="474.9999999999977" x2="475.4999999999977" y1="135" y2="135" stroke="black" stroke-width="5"/>
<line x1="475.4999999999977" x2="475.9999999999977" y1="135" y2="135" stroke="black" stroke-width="5"/>
</svg>

