<svg width="500" height="500" xmlns="http://www.w3.org/2000/svg" xmlns:xlink="http://www.w3.org/1999/xlink">
 <style> .axisLabel {font: bold 20px sans-serif;} </style>
 <rect x="10" y="10" rx="10" ry="10" width="480" height="480" style="fill:rgb(232,232,232);stroke-width:2;stroke:rgb(0,0,0)"/>
 <line x1="20" x2="480" y1="250" y2="250" stroke="black" stroke-width="4"/>
<line x1="480" x2="480" y1="240" y2="260" stroke="black" stroke-width="2"/>
<text x="475" y="285" class="axisLabel">1</text>
<line x1="20" x2="20" y1="20" y2="480" stroke="black" stroke-width="4"/>
<line x1="10" x2="30" y1="Infinity" y2="Infinity" stroke="black" stroke-width="2"/>
<text x="55" y="Infinity" class="axisLabel">-1</text>

<line x1="24" x2="24.5" y1="-210" y2="-210" stroke="black" stroke-width="5"/>
<line x1="24.5" x2="25" y1="-210" y2="-210" stroke="black" stroke-width="5"/>
<line x1="25" x2="25.5" y1="-210" y2="-210" stroke="black" stroke-width="5"/>
<line x1="25.5" x2="26" y1="-210" y2="-210" stroke="black" stroke-width="5"/>
<line x1="26" x2="26.5" y1="-210" y2="-210" stroke="black" stroke-width="5"/>
<line x1="26.5" x2="27" y1="-210" y2="-210" stroke="black" stroke-width="5"/>
<line x1="27" x2="27.5" y1="-210" y2="-210" stroke="black" stroke-width="5"/>
<line x1="27.5" x2="28" y1="-210" y2="-210" stroke="black" stroke-width="5"/>
<line x1="32" x2="32.5" y1="-210" y2="-210" stroke="black" stroke-width="5"/>
<line x1="32.5" x2="33" y1="-210" y2="-210" stroke="black" stroke-width="5"/>
<line x1="33.00000000000001" x2="33.50000000000001" y1="-210" y2="-210" stroke="black" stroke-width="5"/>
<line x1="33.50000000000001" x2="34.00000000000001" y1="-210" y2="-210" stroke="black" stroke-width="5"/>
<line x1="34.00000000000001" x2="34.50000000000001" y1="-210" y2="-210" stroke="black" stroke-width="5"/>
<line x1="34.50000000000001" x2="35.00000000000001" y1="-210" y2="-210" stroke="black" stroke-width="5"/>
<line x1="35.00000000000001" x2="35.50000000000001" y1="-210" y2="-210" stroke="black" stroke-width="5"/>
<line x1="35.50000000000001" x2="36.00000000000001" y1="-210" y2="-210" stroke="black" stroke-width="5"/>
<line x1="40.000000000000014" x2="40.500000000000014" y1="-210" y2="-210" stroke="black" stroke-width="5"/>
<line x1="40.500000000000014" x2="41.000000000000014" y1="-210" y2="-210" stroke="black" stroke-width="5"/>
<line x1="41.000000000000014" x2="41.500000000000014" y1="-210" y2="-210" stroke="black" stroke-width="5"/>
<line x1="41.500000000000014" x2="42.000000000000014" y1="-210" y2="-210" stroke="black" stroke-width="5"/>
<line x1="42.000000000000014" x2="42.500000000000014" y1="-210" y2="-210" stroke="black" stroke-width="5"/>
<line x1="42.500000000000014" x2="43.000000000000014" y1="-210" y2="-210" stroke="black" stroke-width="5"/>
<line x1="43.000000000000014" x2="43.500000000000014" y1="-210" y2="-210" stroke="black" stroke-width="5"/>
<line x1="43.500000000000014" x2="44.000000000000014" y1="-210" y2="-210" stroke="black" stroke-width="5"/>
<line x1="48.000000000000014" x2="48.500000000000014" y1="-210" y2="-210" stroke="black" stroke-width="5"/>
<line x1="48.500000000000014" x2="49.000000000000014" y1="-210" y2="-210" stroke="black" stroke-width="5"/>
<line x1="49.000000000000014" x2="49.500000000000014" y1="-210" y2="-210" stroke="black" stroke-width="5"/>
<line x1="49.50000000000001" x2="50.00000000000001" y1="-210" y2="-210" stroke="black" stroke-width="5"/>
<line x1="50.00000000000001" x2="50.50000000000001" y1="-210" y2="-210" stroke="black" stroke-width="5"/>
<line x1="50.5" x2="51" y1="-210" y2="-210" stroke="black" stroke-width="5"/>
<line x1="51" x2="51.5" y1="-210" y2="-210" stroke="black" stroke-width="5"/>
<line x1="51.5" x2="52" y1="-210" y2="-210" stroke="black" stroke-width="5"/>
<line x1="55.99999999999997" x2="56.49999999999997" y1="-210" y2="-210" stroke="black" stroke-width="5"/>
<line x1="56.49999999999997" x2="56.99999999999997" y1="-210" y2="-210" stroke="black" stroke-width="5"/>
<line x1="56.999999999999964" x2="57.499999999999964" y1="-210" y2="-210" stroke="black" stroke-width="5"/>
<line x1="57.499999999999964" x2="57.999999999999964" y1="-210" y2="-210" stroke="black" stroke-width="5"/>
<line x1="57.99999999999996" x2="58.49999999999996" y1="-210" y2="-210" stroke="black" stroke-width="5"/>
<line x1="58.49999999999996" x2="58.99999999999996" y1="-210" y2="-210" stroke="black" stroke-width="5"/>
<line x1="58.99999999999995" x2="59.49999999999995" y1="-210" y2="-210" stroke="black" stroke-width="5"/>
<line x1="59.49999999999995" x2="59.99999999999995" y1="-210" y2="-210" stroke="black" stroke-width="5"/>
<line x1="63.99999999999992" x2="64.49999999999991" y1="-210" y2="-210" stroke="black" stroke-width="5"/>
<line x1="64.49999999999991" x2="64.99999999999991" y1="-210" y2="-210" stroke="black" stroke-width="5"/>
<line x1="64.99999999999991" x2="65.49999999999991" y1="-210" y2="-210" stroke="black" stroke-width="5"/>
<line x1="65.49999999999991" x2="65.99999999999991" y1="-210" y2="-210" stroke="black" stroke-width="5"/>
<line x1="65.99999999999991" x2="66.49999999999991" y1="-210" y2="-210" stroke="black" stroke-width="5"/>
<line x1="66.49999999999991" x2="66.99999999999991" y1="-210" y2="-210" stroke="black" stroke-width="5"/>
<line x1="66.99999999999991" x2="67.49999999999991" y1="-210" y2="-210" stroke="black" stroke-width="5"/>
<line x1="67.49999999999991" x2="67.99999999999991" y1="-210" y2="-210" stroke="black" stroke-width="5"/>
<line x1="71.99999999999989" x2="72.49999999999989" y1="-210" y2="-210" stroke="black" stroke-width="5"/>
<line x1="72.49999999999987" x2="72.99999999999987" y1="-210" y2="-210" stroke="black" stroke-width="5"/>
<line x1="72.99999999999987" x2="73.49999999999987" y1="-210" y2="-210" stroke="black" stroke-width="5"/>
<line x1="73.49999999999987" x2="73.99999999999987" y1="-210" y2="-210" stroke="black" stroke-width="5"/>
<line x1="73.99999999999986" x2="74.49999999999986" y1="-210" y2="-210" stroke="black" stroke-width="5"/>
<line x1="74.49999999999986" x2="74.99999999999986" y1="-210" y2="-210" stroke="black" stroke-width="5"/>
<line x1="74.99999999999986" x2="75.49999999999986" y1="-210" y2="-210" stroke="black" stroke-width="5"/>
<line x1="75.49999999999986" x2="75.99999999999986" y1="-210" y2="-210" stroke="black" stroke-width="5"/>
<line x1="79.99999999999983" x2="80.49999999999983" y1="-210" y2="-210" stroke="black" stroke-width="5"/>
<line x1="80.49999999999983" x2="80.99999999999983" y1="-210" y2="-210" stroke="black" stroke-width="5"/>
<line x1="80.99999999999983" x2="81.49999999999983" y1="-210" y2="-210" stroke="black" stroke-width="5"/>
<line x1="81.49999999999983" x2="81.99999999999983" y1="-210" y2="-210" stroke="black" stroke-width="5"/>
<line x1="81.99999999999983" x2="82.49999999999983" y1="-210" y2="-210" stroke="black" stroke-width="5"/>
<line x1="82.49999999999982" x2="82.99999999999982" y1="-210" y2="-210" stroke="black" stroke-width="5"/>
<line x1="82.99999999999982" x2="83.49999999999982" y1="-210" y2="-210" stroke="black" stroke-width="5"/>
<line x1="83.49999999999982" x2="83.99999999999982" y1="-210" y2="-210" stroke="black" stroke-width="5"/>
<line x1="87.99999999999979" x2="88.49999999999979" y1="-210" y2="-210" stroke="black" stroke-width="5"/>
<line x1="88.49999999999979" x2="88.99999999999979" y1="-210" y2="-210" stroke="black" stroke-width="5"/>
<line x1="88.99999999999979" x2="89.49999999999979" y1="-210" y2="-210" stroke="black" stroke-width="5"/>
<line x1="89.49999999999977" x2="89.99999999999977" y1="-210" y2="-210" stroke="black" stroke-width="5"/>
<line x1="89.99999999999977" x2="90.49999999999977" y1="-210" y2="-210" stroke="black" stroke-width="5"/>
<line x1="90.49999999999977" x2="90.99999999999977" y1="-210" y2="-210" stroke="black" stroke-width="5"/>
<line x1="90.99999999999977" x2="91.49999999999977" y1="-210" y2="-210" stroke="black" stroke-width="5"/>
<line x1="91.49999999999977" x2="91.99999999999977" y1="-210" y2="-210" stroke="black" stroke-width="5"/>
<line x1="95.99999999999974" x2="96.49999999999974" y1="-210" y2="-210" stroke="black" stroke-width="5"/>
<line x1="96.49999999999974" x2="96.99999999999974" y1="-210" y2="-210" stroke="black" stroke-width="5"/>
<line x1="96.99999999999973" x2="97.49999999999973" y1="-210" y2="-210" stroke="black" stroke-width="5"/>
<line x1="97.49999999999973" x2="97.99999999999973" y1="-210" y2="-210" stroke="black" stroke-width="5"/>
<line x1="97.99999999999973" x2="98.49999999999973" y1="-210" y2="-210" stroke="black" stroke-width="5"/>
<line x1="98.49999999999973" x2="98.99999999999973" y1="-210" y2="-210" stroke="black" stroke-width="5"/>
<line x1="98.99999999999972" x2="99.49999999999972" y1="-210" y2="-210" stroke="black" stroke-width="5"/>
<line x1="99.49999999999972" x2="99.99999999999972" y1="-210" y2="-210" stroke="black" stroke-width="5"/>
<line x1="103.99999999999969" x2="104.49999999999969" y1="-210" y2="-210" stroke="black" stroke-width="5"/>
<line x1="104.49999999999969" x2="104.99999999999969" y1="-210" y2="-210" stroke="black" stroke-width="5"/>
<line x1="104.99999999999969" x2="105.49999999999969" y1="-210" y2="-210" stroke="black" stroke-width="5"/>
<line x1="105.49999999999969" x2="105.99999999999969" y1="-210" y2="-210" stroke="black" stroke-width="5"/>
<line x1="105.99999999999969" x2="106.49999999999969" y1="-210" y2="-210" stroke="black" stroke-width="5"/>
<line x1="106.49999999999967" x2="106.99999999999967" y1="-210" y2="-210" stroke="black" stroke-width="5"/>
<line x1="106.99999999999967" x2="107.49999999999967" y1="-210" y2="-210" stroke="black" stroke-width="5"/>
<line x1="107.49999999999967" x2="107.99999999999967" y1="-210" y2="-210" stroke="black" stroke-width="5"/>
<line x1="111.99999999999964" x2="112.49999999999964" y1="-210" y2="-210" stroke="black" stroke-width="5"/>
<line x1="112.49999999999964" x2="112.99999999999964" y1="-210" y2="-210" stroke="black" stroke-width="5"/>
<line x1="112.99999999999964" x2="113.49999999999964" y1="-210" y2="-210" stroke="black" stroke-width="5"/>
<line x1="113.49999999999964" x2="113.99999999999964" y1="-210" y2="-210" stroke="black" stroke-width="5"/>
<line x1="113.99999999999963" x2="114.49999999999963" y1="-210" y2="-210" stroke="black" stroke-width="5"/>
<line x1="114.49999999999963" x2="114.99999999999963" y1="-210" y2="-210" stroke="black" stroke-width="5"/>
<line x1="114.99999999999963" x2="115.49999999999963" y1="-210" y2="-210" stroke="black" stroke-width="5"/>
<line x1="115.49999999999963" x2="115.99999999999963" y1="-210" y2="-210" stroke="black" stroke-width="5"/>
<line x1="119.9999999999996" x2="120.4999999999996" y1="-210" y2="-210" stroke="black" stroke-width="5"/>
<line x1="120.4999999999996" x2="120.9999999999996" y1="-210" y2="-210" stroke="black" stroke-width="5"/>
<line x1="120.9999999999996" x2="121.4999999999996" y1="-210" y2="-210" stroke="black" stroke-width="5"/>
<line x1="121.49999999999959" x2="121.99999999999959" y1="-210" y2="-210" stroke="black" stroke-width="5"/>
<line x1="121.99999999999959" x2="122.49999999999959" y1="-210" y2="-210" stroke="black" stroke-width="5"/>
<line x1="122.49999999999959" x2="122.99999999999959" y1="-210" y2="-210" stroke="black" stroke-width="5"/>
<line x1="122.99999999999959" x2="123.49999999999959" y1="-210" y2="-210" stroke="black" stroke-width="5"/>
<line x1="123.49999999999959" x2="123.99999999999959" y1="-210" y2="-210" stroke="black" stroke-width="5"/>
<line x1="127.99999999999956" x2="128.49999999999955" y1="-210" y2="-210" stroke="black" stroke-width="5"/>
<line x1="128.49999999999955" x2="128.99999999999955" y1="-210" y2="-210" stroke="black" stroke-width="5"/>
<line x1="128.99999999999955" x2="129.49999999999955" y1="-210" y2="-210" stroke="black" stroke-width="5"/>
<line x1="129.49999999999955" x2="129.99999999999955" y1="-210" y2="-210" stroke="black" stroke-width="5"/>
<line x1="129.99999999999955" x2="130.49999999999955" y1="-210" y2="-210" stroke="black" stroke-width="5"/>
<line x1="130.49999999999955" x2="130.99999999999955" y1="-210" y2="-210" stroke="black" stroke-width="5"/>
<line x1="130.99999999999955" x2="131.49999999999955" y1="-210" y2="-210" stroke="black" stroke-width="5"/>
<line x1="131.49999999999955" x2="131.99999999999955" y1="-210" y2="-210" stroke="black" stroke-width="5"/>
<line x1="135.9999999999995" x2="136.4999999999995" y1="-210" y2="-210" stroke="black" stroke-width="5"/>
<line x1="136.4999999999995" x2="136.9999999999995" y1="-210" y2="-210" stroke="black" stroke-width="5"/>
<line x1="136.9999999999995" x2="137.4999999999995" y1="-210" y2="-210" stroke="black" stroke-width="5"/>
<line x1="137.4999999999995" x2="137.9999999999995" y1="-210" y2="-210" stroke="black" stroke-width="5"/>
<line x1="137.9999999999995" x2="138.4999999999995" y1="-210" y2="-210" stroke="black" stroke-width="5"/>
<line x1="138.4999999999995" x2="138.9999999999995" y1="-210" y2="-210" stroke="black" stroke-width="5"/>
<line x1="138.9999999999995" x2="139.4999999999995" y1="-210" y2="-210" stroke="black" stroke-width="5"/>
<line x1="139.4999999999995" x2="139.9999999999995" y1="-210" y2="-210" stroke="black" stroke-width="5"/>
<line x1="143.99999999999946" x2="144.49999999999946" y1="-210" y2="-210" stroke="black" stroke-width="5"/>
<line x1="144.49999999999946" x2="144.99999999999946" y1="-210" y2="-210" stroke="black" stroke-width="5"/>
<line x1="144.99999999999946" x2="145.49999999999946" y1="-210" y2="-210" stroke="black" stroke-width="5"/>
<line x1="145.49999999999946" x2="145.99999999999946" y1="-210" y2="-210" stroke="black" stroke-width="5"/>
<line x1="145.99999999999943" x2="146.49999999999943" y1="-210" y2="-210" stroke="black" stroke-width="5"/>
<line x1="146.49999999999943" x2="146.99999999999943" y1="-210" y2="-210" stroke="black" stroke-width="5"/>
<line x1="146.99999999999943" x2="147.49999999999943" y1="-210" y2="-210" stroke="black" stroke-width="5"/>
<line x1="147.49999999999943" x2="147.99999999999943" y1="-210" y2="-210" stroke="black" stroke-width="5"/>
<line x1="151.9999999999994" x2="152.4999999999994" y1="-210" y2="-210" stroke="black" stroke-width="5"/>
<line x1="152.4999999999994" x2="152.9999999999994" y1="-210" y2="-210" stroke="black" stroke-width="5"/>
<line x1="152.9999999999994" x2="153.4999999999994" y1="-210" y2="-210" stroke="black" stroke-width="5"/>
<line x1="153.4999999999994" x2="153.9999999999994" y1="-210" y2="-210" stroke="black" stroke-width="5"/>
<line x1="153.9999999999994" x2="154.4999999999994" y1="-210" y2="-210" stroke="black" stroke-width="5"/>
<line x1="154.4999999999994" x2="154.9999999999994" y1="-210" y2="-210" stroke="black" stroke-width="5"/>
<line x1="154.9999999999994" x2="155.4999999999994" y1="-210" y2="-210" stroke="black" stroke-width="5"/>
<line x1="155.4999999999994" x2="155.9999999999994" y1="-210" y2="-210" stroke="black" stroke-width="5"/>
<line x1="159.99999999999937" x2="160.49999999999937" y1="-210" y2="-210" stroke="black" stroke-width="5"/>
<line x1="160.49999999999937" x2="160.99999999999937" y1="-210" y2="-210" stroke="black" stroke-width="5"/>
<line x1="160.99999999999937" x2="161.49999999999937" y1="-210" y2="-210" stroke="black" stroke-width="5"/>
<line x1="161.49999999999937" x2="161.99999999999937" y1="-210" y2="-210" stroke="black" stroke-width="5"/>
<line x1="161.99999999999935" x2="162.49999999999935" y1="-210" y2="-210" stroke="black" stroke-width="5"/>
<line x1="162.49999999999935" x2="162.99999999999935" y1="-210" y2="-210" stroke="black" stroke-width="5"/>
<line x1="162.99999999999935" x2="163.49999999999935" y1="-210" y2="-210" stroke="black" stroke-width="5"/>
<line x1="163.49999999999935" x2="163.99999999999935" y1="-210" y2="-210" stroke="black" stroke-width="5"/>
<line x1="167.99999999999932" x2="168.49999999999932" y1="-210" y2="-210" stroke="black" stroke-width="5"/>
<line x1="168.49999999999932" x2="168.99999999999932" y1="-210" y2="-210" stroke="black" stroke-width="5"/>
<line x1="168.99999999999932" x2="169.49999999999932" y1="-210" y2="-210" stroke="black" stroke-width="5"/>
<line x1="169.49999999999932" x2="169.99999999999932" y1="-210" y2="-210" stroke="black" stroke-width="5"/>
<line x1="169.99999999999932" x2="170.49999999999932" y1="-210" y2="-210" stroke="black" stroke-width="5"/>
<line x1="170.49999999999932" x2="170.99999999999932" y1="-210" y2="-210" stroke="black" stroke-width="5"/>
<line x1="170.99999999999932" x2="171.49999999999932" y1="-210" y2="-210" stroke="black" stroke-width="5"/>
<line x1="171.49999999999932" x2="171.99999999999932" y1="-210" y2="-210" stroke="black" stroke-width="5"/>
<line x1="175.9999999999993" x2="176.4999999999993" y1="-210" y2="-210" stroke="black" stroke-width="5"/>
<line x1="176.49999999999926" x2="176.99999999999926" y1="-210" y2="-210" stroke="black" stroke-width="5"/>
<line x1="176.99999999999926" x2="177.49999999999926" y1="-210" y2="-210" stroke="black" stroke-width="5"/>
<line x1="177.49999999999926" x2="177.99999999999926" y1="-210" y2="-210" stroke="black" stroke-width="5"/>
<line x1="177.99999999999926" x2="178.49999999999926" y1="-210" y2="-210" stroke="black" stroke-width="5"/>
<line x1="178.49999999999926" x2="178.99999999999926" y1="-210" y2="-210" stroke="black" stroke-width="5"/>
<line x1="178.99999999999926" x2="179.49999999999926" y1="-210" y2="-210" stroke="black" stroke-width="5"/>
<line x1="179.49999999999926" x2="179.99999999999926" y1="-210" y2="-210" stroke="black" stroke-width="5"/>
<line x1="183.99999999999923" x2="184.49999999999923" y1="-210" y2="-210" stroke="black" stroke-width="5"/>
<line x1="184.49999999999923" x2="184.99999999999923" y1="-210" y2="-210" stroke="black" stroke-width="5"/>
<line x1="184.99999999999923" x2="185.49999999999923" y1="-210" y2="-210" stroke="black" stroke-width="5"/>
<line x1="185.49999999999923" x2="185.99999999999923" y1="-210" y2="-210" stroke="black" stroke-width="5"/>
<line x1="185.99999999999923" x2="186.49999999999923" y1="-210" y2="-210" stroke="black" stroke-width="5"/>
<line x1="186.4999999999992" x2="186.9999999999992" y1="-210" y2="-210" stroke="black" stroke-width="5"/>
<line x1="186.9999999999992" x2="187.4999999999992" y1="-210" y2="-210" stroke="black" stroke-width="5"/>
<line x1="187.4999999999992" x2="187.9999999999992" y1="-210" y2="-210" stroke="black" stroke-width="5"/>
<line x1="191.99999999999918" x2="192.49999999999918" y1="-210" y2="-210" stroke="black" stroke-width="5"/>
<line x1="192.49999999999918" x2="192.99999999999918" y1="-210" y2="-210" stroke="black" stroke-width="5"/>
<line x1="192.99999999999918" x2="193.49999999999918" y1="-210" y2="-210" stroke="black" stroke-width="5"/>
<line x1="193.49999999999918" x2="193.99999999999918" y1="-210" y2="-210" stroke="black" stroke-width="5"/>
<line x1="193.99999999999918" x2="194.49999999999918" y1="-210" y2="-210" stroke="black" stroke-width="5"/>
<line x1="194.49999999999918" x2="194.99999999999918" y1="-210" y2="-210" stroke="black" stroke-width="5"/>
<line x1="194.99999999999918" x2="195.49999999999918" y1="-210" y2="-210" stroke="black" stroke-width="5"/>
<line x1="195.49999999999918" x2="195.99999999999918" y1="-210" y2="-210" stroke="black" stroke-width="5"/>
<line x1="199.99999999999915" x2="200.49999999999915" y1="-210" y2="-210" stroke="black" stroke-width="5"/>
<line x1="200.49999999999915" x2="200.99999999999915" y1="-210" y2="-210" stroke="black" stroke-width="5"/>
<line x1="200.99999999999915" x2="201.49999999999915" y1="-210" y2="-210" stroke="black" stroke-width="5"/>
<line x1="201.49999999999912" x2="201.99999999999912" y1="-210" y2="-210" stroke="black" stroke-width="5"/>
<line x1="201.99999999999912" x2="202.49999999999912" y1="-210" y2="-210" stroke="black" stroke-width="5"/>
<line x1="202.49999999999912" x2="202.99999999999912" y1="-210" y2="-210" stroke="black" stroke-width="5"/>
<line x1="202.99999999999912" x2="203.49999999999912" y1="-210" y2="-210" stroke="black" stroke-width="5"/>
<line x1="203.49999999999912" x2="203.99999999999912" y1="-210" y2="-210" stroke="black" stroke-width="5"/>
<line x1="207.9999999999991" x2="208.4999999999991" y1="-210" y2="-210" stroke="black" stroke-width="5"/>
<line x1="208.4999999999991" x2="208.9999999999991" y1="-210" y2="-210" stroke="black" stroke-width="5"/>
<line x1="208.9999999999991" x2="209.4999999999991" y1="-210" y2="-210" stroke="black" stroke-width="5"/>
<line x1="209.4999999999991" x2="209.9999999999991" y1="-210" y2="-210" stroke="black" stroke-width="5"/>
<line x1="209.9999999999991" x2="210.4999999999991" y1="-210" y2="-210" stroke="black" stroke-width="5"/>
<line x1="210.4999999999991" x2="210.9999999999991" y1="-210" y2="-210" stroke="black" stroke-width="5"/>
<line x1="210.99999999999906" x2="211.49999999999906" y1="-210" y2="-210" stroke="black" stroke-width="5"/>
<line x1="211.49999999999906" x2="211.99999999999906" y1="-210" y2="-210" stroke="black" stroke-width="5"/>
<line x1="215.99999999999903" x2="216.49999999999903" y1="-210" y2="-210" stroke="black" stroke-width="5"/>
<line x1="216.49999999999903" x2="216.99999999999903" y1="-210" y2="-210" stroke="black" stroke-width="5"/>
<line x1="216.99999999999903" x2="217.49999999999903" y1="-210" y2="-210" stroke="black" stroke-width="5"/>
<line x1="217.49999999999903" x2="217.99999999999903" y1="-210" y2="-210" stroke="black" stroke-width="5"/>
<line x1="217.99999999999903" x2="218.49999999999903" y1="-210" y2="-210" stroke="black" stroke-width="5"/>
<line x1="218.49999999999903" x2="218.99999999999903" y1="-210" y2="-210" stroke="black" stroke-width="5"/>
<line x1="218.99999999999903" x2="219.49999999999903" y1="-210" y2="-210" stroke="black" stroke-width="5"/>
<line x1="219.49999999999903" x2="219.99999999999903" y1="-210" y2="-210" stroke="black" stroke-width="5"/>
<line x1="223.999999999999" x2="224.499999999999" y1="-210" y2="-210" stroke="black" stroke-width="5"/>
<line x1="224.499999999999" x2="224.999999999999" y1="-210" y2="-210" stroke="black" stroke-width="5"/>
<line x1="224.999999999999" x2="225.499999999999" y1="-210" y2="-210" stroke="black" stroke-width="5"/>
<line x1="225.499999999999" x2="225.999999999999" y1="-210" y2="-210" stroke="black" stroke-width="5"/>
<line x1="225.99999999999898" x2="226.49999999999898" y1="-210" y2="-210" stroke="black" stroke-width="5"/>
<line x1="226.49999999999898" x2="226.99999999999898" y1="-210" y2="-210" stroke="black" stroke-width="5"/>
<line x1="226.99999999999898" x2="227.49999999999898" y1="-210" y2="-210" stroke="black" stroke-width="5"/>
<line x1="227.49999999999898" x2="227.99999999999898" y1="-210" y2="-210" stroke="black" stroke-width="5"/>
<line x1="231.99999999999895" x2="232.49999999999895" y1="-210" y2="-210" stroke="black" stroke-width="5"/>
<line x1="232.49999999999895" x2="232.99999999999895" y1="-210" y2="-210" stroke="black" stroke-width="5"/>
<line x1="232.99999999999895" x2="233.49999999999895" y1="-210" y2="-210" stroke="black" stroke-width="5"/>
<line x1="233.49999999999895" x2="233.99999999999895" y1="-210" y2="-210" stroke="black" stroke-width="5"/>
<line x1="233.99999999999895" x2="234.49999999999895" y1="-210" y2="-210" stroke="black" stroke-width="5"/>
<line x1="234.49999999999895" x2="234.99999999999895" y1="-210" y2="-210" stroke="black" stroke-width="5"/>
<line x1="234.99999999999895" x2="235.49999999999895" y1="-210" y2="-210" stroke="black" stroke-width="5"/>
<line x1="235.49999999999895" x2="235.99999999999895" y1="-210" y2="-210" stroke="black" stroke-width="5"/>
<line x1="239.99999999999892" x2="240.49999999999892" y1="-210" y2="-210" stroke="black" stroke-width="5"/>
<line x1="240.49999999999892" x2="240.99999999999892" y1="-210" y2="-210" stroke="black" stroke-width="5"/>
<line x1="240.9999999999989" x2="241.4999999999989" y1="-210" y2="-210" stroke="black" stroke-width="5"/>
<line x1="241.4999999999989" x2="241.9999999999989" y1="-210" y2="-210" stroke="black" stroke-width="5"/>
<line x1="241.9999999999989" x2="242.4999999999989" y1="-210" y2="-210" stroke="black" stroke-width="5"/>
<line x1="242.4999999999989" x2="242.9999999999989" y1="-210" y2="-210" stroke="black" stroke-width="5"/>
<line x1="242.9999999999989" x2="243.4999999999989" y1="-210" y2="-210" stroke="black" stroke-width="5"/>
<line x1="243.4999999999989" x2="243.9999999999989" y1="-210" y2="-210" stroke="black" stroke-width="5"/>
<line x1="247.99999999999886" x2="248.49999999999886" y1="-210" y2="-210" stroke="black" stroke-width="5"/>
<line x1="248.49999999999886" x2="248.99999999999886" y1="-210" y2="-210" stroke="black" stroke-width="5"/>
<line x1="248.99999999999886" x2="249.49999999999886" y1="-210" y2="-210" stroke="black" stroke-width="5"/>
<line x1="249.49999999999886" x2="249.99999999999886" y1="-210" y2="-210" stroke="black" stroke-width="5"/>
<line x1="249.99999999999886" x2="250.49999999999886" y1="-210" y2="-210" stroke="black" stroke-width="5"/>
<line x1="250.49999999999883" x2="250.99999999999883" y1="-210" y2="-210" stroke="black" stroke-width="5"/>
<line x1="250.99999999999886" x2="251.49999999999886" y1="-210" y2="-210" stroke="black" stroke-width="5"/>
<line x1="251.4999999999989" x2="251.9999999999989" y1="-210" y2="-210" stroke="black" stroke-width="5"/>
<line x1="255.9999999999991" x2="256.4999999999991" y1="-210" y2="-210" stroke="black" stroke-width="5"/>
<line x1="256.4999999999991" x2="256.9999999999991" y1="-210" y2="-210" stroke="black" stroke-width="5"/>
<line x1="256.99999999999915" x2="257.49999999999915" y1="-210" y2="-210" stroke="black" stroke-width="5"/>
<line x1="257.4999999999992" x2="257.9999999999992" y1="-210" y2="-210" stroke="black" stroke-width="5"/>
<line x1="257.9999999999992" x2="258.4999999999992" y1="-210" y2="-210" stroke="black" stroke-width="5"/>
<line x1="258.4999999999992" x2="258.9999999999992" y1="-210" y2="-210" stroke="black" stroke-width="5"/>
<line x1="258.9999999999992" x2="259.4999999999992" y1="-210" y2="-210" stroke="black" stroke-width="5"/>
<line x1="259.49999999999926" x2="259.99999999999926" y1="-210" y2="-210" stroke="black" stroke-width="5"/>
<line x1="263.99999999999943" x2="264.49999999999943" y1="-210" y2="-210" stroke="black" stroke-width="5"/>
<line x1="264.4999999999995" x2="264.9999999999995" y1="-210" y2="-210" stroke="black" stroke-width="5"/>
<line x1="264.99999999999955" x2="265.49999999999955" y1="-210" y2="-210" stroke="black" stroke-width="5"/>
<line x1="265.49999999999955" x2="265.99999999999955" y1="-210" y2="-210" stroke="black" stroke-width="5"/>
<line x1="265.99999999999955" x2="266.49999999999955" y1="-210" y2="-210" stroke="black" stroke-width="5"/>
<line x1="266.49999999999955" x2="266.99999999999955" y1="-210" y2="-210" stroke="black" stroke-width="5"/>
<line x1="266.9999999999996" x2="267.4999999999996" y1="-210" y2="-210" stroke="black" stroke-width="5"/>
<line x1="267.49999999999966" x2="267.99999999999966" y1="-210" y2="-210" stroke="black" stroke-width="5"/>
<line x1="271.99999999999983" x2="272.49999999999983" y1="-210" y2="-210" stroke="black" stroke-width="5"/>
<line x1="272.4999999999999" x2="272.9999999999999" y1="-210" y2="-210" stroke="black" stroke-width="5"/>
<line x1="272.9999999999999" x2="273.4999999999999" y1="-210" y2="-210" stroke="black" stroke-width="5"/>
<line x1="273.4999999999999" x2="273.9999999999999" y1="-210" y2="-210" stroke="black" stroke-width="5"/>
<line x1="273.9999999999999" x2="274.4999999999999" y1="-210" y2="-210" stroke="black" stroke-width="5"/>
<line x1="274.49999999999994" x2="274.99999999999994" y1="-210" y2="-210" stroke="black" stroke-width="5"/>
<line x1="275" x2="275.5" y1="-210" y2="-210" stroke="black" stroke-width="5"/>
<line x1="275.5" x2="276" y1="-210" y2="-210" stroke="black" stroke-width="5"/>
<line x1="280.00000000000017" x2="280.50000000000017" y1="-210" y2="-210" stroke="black" stroke-width="5"/>
<line x1="280.5000000000002" x2="281.0000000000002" y1="-210" y2="-210" stroke="black" stroke-width="5"/>
<line x1="281.0000000000002" x2="281.5000000000002" y1="-210" y2="-210" stroke="black" stroke-width="5"/>
<line x1="281.5000000000002" x2="282.0000000000002" y1="-210" y2="-210" stroke="black" stroke-width="5"/>
<line x1="282.0000000000003" x2="282.5000000000003" y1="-210" y2="-210" stroke="black" stroke-width="5"/>
<line x1="282.5000000000003" x2="283.0000000000003" y1="-210" y2="-210" stroke="black" stroke-width="5"/>
<line x1="283.00000000000034" x2="283.50000000000034" y1="-210" y2="-210" stroke="black" stroke-width="5"/>
<line x1="283.50000000000034" x2="284.00000000000034" y1="-210" y2="-210" stroke="black" stroke-width="5"/>
<line x1="288.00000000000057" x2="288.50000000000057" y1="-210" y2="-210" stroke="black" stroke-width="5"/>
<line x1="288.50000000000057" x2="289.00000000000057" y1="-210" y2="-210" stroke="black" stroke-width="5"/>
<line x1="289.00000000000057" x2="289.50000000000057" y1="-210" y2="-210" stroke="black" stroke-width="5"/>
<line x1="289.5000000000006" x2="290.0000000000006" y1="-210" y2="-210" stroke="black" stroke-width="5"/>
<line x1="290.0000000000006" x2="290.5000000000006" y1="-210" y2="-210" stroke="black" stroke-width="5"/>
<line x1="290.5000000000007" x2="291.0000000000007" y1="-210" y2="-210" stroke="black" stroke-width="5"/>
<line x1="291.0000000000007" x2="291.5000000000007" y1="-210" y2="-210" stroke="black" stroke-width="5"/>
<line x1="291.5000000000007" x2="292.0000000000007" y1="-210" y2="-210" stroke="black" stroke-width="5"/>
<line x1="296.0000000000009" x2="296.5000000000009" y1="-210" y2="-210" stroke="black" stroke-width="5"/>
<line x1="296.5000000000009" x2="297.0000000000009" y1="-210" y2="-210" stroke="black" stroke-width="5"/>
<line x1="297.00000000000097" x2="297.50000000000097" y1="-210" y2="-210" stroke="black" stroke-width="5"/>
<line x1="297.50000000000097" x2="298.00000000000097" y1="-210" y2="-210" stroke="black" stroke-width="5"/>
<line x1="298.000000000001" x2="298.500000000001" y1="-210" y2="-210" stroke="black" stroke-width="5"/>
<line x1="298.500000000001" x2="299.000000000001" y1="-210" y2="-210" stroke="black" stroke-width="5"/>
<line x1="299.000000000001" x2="299.500000000001" y1="-210" y2="-210" stroke="black" stroke-width="5"/>
<line x1="299.5000000000011" x2="300.0000000000011" y1="-210" y2="-210" stroke="black" stroke-width="5"/>
<line x1="304.00000000000125" x2="304.50000000000125" y1="-210" y2="-210" stroke="black" stroke-width="5"/>
<line x1="304.5000000000013" x2="305.0000000000013" y1="-210" y2="-210" stroke="black" stroke-width="5"/>
<line x1="305.0000000000013" x2="305.5000000000013" y1="-210" y2="-210" stroke="black" stroke-width="5"/>
<line x1="305.50000000000136" x2="306.00000000000136" y1="-210" y2="-210" stroke="black" stroke-width="5"/>
<line x1="306.00000000000136" x2="306.50000000000136" y1="-210" y2="-210" stroke="black" stroke-width="5"/>
<line x1="306.50000000000136" x2="307.00000000000136" y1="-210" y2="-210" stroke="black" stroke-width="5"/>
<line x1="307.0000000000014" x2="307.5000000000014" y1="-210" y2="-210" stroke="black" stroke-width="5"/>
<line x1="307.5000000000014" x2="308.0000000000014" y1="-210" y2="-210" stroke="black" stroke-width="5"/>
<line x1="312.00000000000165" x2="312.50000000000165" y1="-210" y2="-210" stroke="black" stroke-width="5"/>
<line x1="312.50000000000165" x2="313.00000000000165" y1="-210" y2="-210" stroke="black" stroke-width="5"/>
<line x1="313.0000000000017" x2="313.5000000000017" y1="-210" y2="-210" stroke="black" stroke-width="5"/>
<line x1="313.5000000000017" x2="314.0000000000017" y1="-210" y2="-210" stroke="black" stroke-width="5"/>
<line x1="314.0000000000017" x2="314.5000000000017" y1="-210" y2="-210" stroke="black" stroke-width="5"/>
<line x1="314.50000000000176" x2="315.00000000000176" y1="-210" y2="-210" stroke="black" stroke-width="5"/>
<line x1="315.00000000000176" x2="315.50000000000176" y1="-210" y2="-210" stroke="black" stroke-width="5"/>
<line x1="315.5000000000018" x2="316.0000000000018" y1="-210" y2="-210" stroke="black" stroke-width="5"/>
<line x1="320.000000000002" x2="320.500000000002" y1="-210" y2="-210" stroke="black" stroke-width="5"/>
<line x1="320.50000000000205" x2="321.00000000000205" y1="-210" y2="-210" stroke="black" stroke-width="5"/>
<line x1="321.00000000000205" x2="321.50000000000205" y1="-210" y2="-210" stroke="black" stroke-width="5"/>
<line x1="321.50000000000205" x2="322.00000000000205" y1="-210" y2="-210" stroke="black" stroke-width="5"/>
<line x1="322.0000000000021" x2="322.5000000000021" y1="-210" y2="-210" stroke="black" stroke-width="5"/>
<line x1="322.5000000000021" x2="323.0000000000021" y1="-210" y2="-210" stroke="black" stroke-width="5"/>
<line x1="323.00000000000216" x2="323.50000000000216" y1="-210" y2="-210" stroke="black" stroke-width="5"/>
<line x1="323.50000000000216" x2="324.00000000000216" y1="-210" y2="-210" stroke="black" stroke-width="5"/>
<line x1="328.00000000000233" x2="328.50000000000233" y1="-210" y2="-210" stroke="black" stroke-width="5"/>
<line x1="328.5000000000024" x2="329.0000000000024" y1="-210" y2="-210" stroke="black" stroke-width="5"/>
<line x1="329.0000000000024" x2="329.5000000000024" y1="-210" y2="-210" stroke="black" stroke-width="5"/>
<line x1="329.50000000000244" x2="330.00000000000244" y1="-210" y2="-210" stroke="black" stroke-width="5"/>
<line x1="330.00000000000244" x2="330.50000000000244" y1="-210" y2="-210" stroke="black" stroke-width="5"/>
<line x1="330.50000000000244" x2="331.00000000000244" y1="-210" y2="-210" stroke="black" stroke-width="5"/>
<line x1="331.0000000000025" x2="331.5000000000025" y1="-210" y2="-210" stroke="black" stroke-width="5"/>
<line x1="331.5000000000025" x2="332.0000000000025" y1="-210" y2="-210" stroke="black" stroke-width="5"/>
<line x1="336.00000000000273" x2="336.50000000000273" y1="-210" y2="-210" stroke="black" stroke-width="5"/>
<line x1="336.50000000000273" x2="337.00000000000273" y1="-210" y2="-210" stroke="black" stroke-width="5"/>
<line x1="337.0000000000028" x2="337.5000000000028" y1="-210" y2="-210" stroke="black" stroke-width="5"/>
<line x1="337.5000000000028" x2="338.0000000000028" y1="-210" y2="-210" stroke="black" stroke-width="5"/>
<line x1="338.0000000000028" x2="338.5000000000028" y1="-210" y2="-210" stroke="black" stroke-width="5"/>
<line x1="338.50000000000284" x2="339.00000000000284" y1="-210" y2="-210" stroke="black" stroke-width="5"/>
<line x1="339.00000000000284" x2="339.50000000000284" y1="-210" y2="-210" stroke="black" stroke-width="5"/>
<line x1="339.5000000000029" x2="340.0000000000029" y1="-210" y2="-210" stroke="black" stroke-width="5"/>
<line x1="344.00000000000307" x2="344.50000000000307" y1="-210" y2="-210" stroke="black" stroke-width="5"/>
<line x1="344.5000000000031" x2="345.0000000000031" y1="-210" y2="-210" stroke="black" stroke-width="5"/>
<line x1="345.0000000000031" x2="345.5000000000031" y1="-210" y2="-210" stroke="black" stroke-width="5"/>
<line x1="345.5000000000031" x2="346.0000000000031" y1="-210" y2="-210" stroke="black" stroke-width="5"/>
<line x1="346.0000000000032" x2="346.5000000000032" y1="-210" y2="-210" stroke="black" stroke-width="5"/>
<line x1="346.5000000000032" x2="347.0000000000032" y1="-210" y2="-210" stroke="black" stroke-width="5"/>
<line x1="347.00000000000324" x2="347.50000000000324" y1="-210" y2="-210" stroke="black" stroke-width="5"/>
<line x1="347.50000000000324" x2="348.00000000000324" y1="-210" y2="-210" stroke="black" stroke-width="5"/>
<line x1="352.00000000000347" x2="352.50000000000347" y1="-210" y2="-210" stroke="black" stroke-width="5"/>
<line x1="352.50000000000347" x2="353.00000000000347" y1="-210" y2="-210" stroke="black" stroke-width="5"/>
<line x1="353.00000000000347" x2="353.50000000000347" y1="-210" y2="-210" stroke="black" stroke-width="5"/>
<line x1="353.5000000000035" x2="354.0000000000035" y1="-210" y2="-210" stroke="black" stroke-width="5"/>
<line x1="354.0000000000035" x2="354.5000000000035" y1="-210" y2="-210" stroke="black" stroke-width="5"/>
<line x1="354.5000000000036" x2="355.0000000000036" y1="-210" y2="-210" stroke="black" stroke-width="5"/>
<line x1="355.0000000000036" x2="355.5000000000036" y1="-210" y2="-210" stroke="black" stroke-width="5"/>
<line x1="355.5000000000036" x2="356.0000000000036" y1="-210" y2="-210" stroke="black" stroke-width="5"/>
<line x1="360.0000000000038" x2="360.5000000000038" y1="-210" y2="-210" stroke="black" stroke-width="5"/>
<line x1="360.5000000000038" x2="361.0000000000038" y1="-210" y2="-210" stroke="black" stroke-width="5"/>
<line x1="361.00000000000387" x2="361.50000000000387" y1="-210" y2="-210" stroke="black" stroke-width="5"/>
<line x1="361.50000000000387" x2="362.00000000000387" y1="-210" y2="-210" stroke="black" stroke-width="5"/>
<line x1="362.0000000000039" x2="362.5000000000039" y1="-210" y2="-210" stroke="black" stroke-width="5"/>
<line x1="362.5000000000039" x2="363.0000000000039" y1="-210" y2="-210" stroke="black" stroke-width="5"/>
<line x1="363.0000000000039" x2="363.5000000000039" y1="-210" y2="-210" stroke="black" stroke-width="5"/>
<line x1="363.500000000004" x2="364.000000000004" y1="-210" y2="-210" stroke="black" stroke-width="5"/>
<line x1="368.00000000000415" x2="368.50000000000415" y1="-210" y2="-210" stroke="black" stroke-width="5"/>
<line x1="368.5000000000042" x2="369.0000000000042" y1="-210" y2="-210" stroke="black" stroke-width="5"/>
<line x1="369.0000000000042" x2="369.5000000000042" y1="-210" y2="-210" stroke="black" stroke-width="5"/>
<line x1="369.50000000000426" x2="370.00000000000426" y1="-210" y2="-210" stroke="black" stroke-width="5"/>
<line x1="370.00000000000426" x2="370.50000000000426" y1="-210" y2="-210" stroke="black" stroke-width="5"/>
<line x1="370.50000000000426" x2="371.00000000000426" y1="-210" y2="-210" stroke="black" stroke-width="5"/>
<line x1="371.0000000000043" x2="371.5000000000043" y1="-210" y2="-210" stroke="black" stroke-width="5"/>
<line x1="371.5000000000043" x2="372.0000000000043" y1="-210" y2="-210" stroke="black" stroke-width="5"/>
<line x1="376.00000000000455" x2="376.50000000000455" y1="-210" y2="-210" stroke="black" stroke-width="5"/>
<line x1="376.50000000000455" x2="377.00000000000455" y1="-210" y2="-210" stroke="black" stroke-width="5"/>
<line x1="377.0000000000046" x2="377.5000000000046" y1="-210" y2="-210" stroke="black" stroke-width="5"/>
<line x1="377.5000000000046" x2="378.0000000000046" y1="-210" y2="-210" stroke="black" stroke-width="5"/>
<line x1="378.0000000000046" x2="378.5000000000046" y1="-210" y2="-210" stroke="black" stroke-width="5"/>
<line x1="378.50000000000466" x2="379.00000000000466" y1="-210" y2="-210" stroke="black" stroke-width="5"/>
<line x1="379.00000000000466" x2="379.50000000000466" y1="-210" y2="-210" stroke="black" stroke-width="5"/>
<line x1="379.5000000000047" x2="380.0000000000047" y1="-210" y2="-210" stroke="black" stroke-width="5"/>
<line x1="384.0000000000049" x2="384.5000000000049" y1="-210" y2="-210" stroke="black" stroke-width="5"/>
<line x1="384.50000000000495" x2="385.00000000000495" y1="-210" y2="-210" stroke="black" stroke-width="5"/>
<line x1="385.00000000000495" x2="385.50000000000495" y1="-210" y2="-210" stroke="black" stroke-width="5"/>
<line x1="385.50000000000495" x2="386.00000000000495" y1="-210" y2="-210" stroke="black" stroke-width="5"/>
<line x1="386.000000000005" x2="386.500000000005" y1="-210" y2="-210" stroke="black" stroke-width="5"/>
<line x1="386.500000000005" x2="387.000000000005" y1="-210" y2="-210" stroke="black" stroke-width="5"/>
<line x1="387.00000000000506" x2="387.50000000000506" y1="-210" y2="-210" stroke="black" stroke-width="5"/>
<line x1="387.50000000000506" x2="388.00000000000506" y1="-210" y2="-210" stroke="black" stroke-width="5"/>
<line x1="392.00000000000523" x2="392.50000000000523" y1="-210" y2="-210" stroke="black" stroke-width="5"/>
<line x1="392.5000000000053" x2="393.0000000000053" y1="-210" y2="-210" stroke="black" stroke-width="5"/>
<line x1="393.0000000000053" x2="393.5000000000053" y1="-210" y2="-210" stroke="black" stroke-width="5"/>
<line x1="393.50000000000534" x2="394.00000000000534" y1="-210" y2="-210" stroke="black" stroke-width="5"/>
<line x1="394.00000000000534" x2="394.50000000000534" y1="-210" y2="-210" stroke="black" stroke-width="5"/>
<line x1="394.50000000000534" x2="395.00000000000534" y1="-210" y2="-210" stroke="black" stroke-width="5"/>
<line x1="395.0000000000054" x2="395.5000000000054" y1="-210" y2="-210" stroke="black" stroke-width="5"/>
<line x1="395.5000000000054" x2="396.0000000000054" y1="-210" y2="-210" stroke="black" stroke-width="5"/>
<line x1="400.0000000000056" x2="400.5000000000056" y1="-210" y2="-210" stroke="black" stroke-width="5"/>
<line x1="400.5000000000056" x2="401.0000000000056" y1="-210" y2="-210" stroke="black" stroke-width="5"/>
<line x1="401.0000000000057" x2="401.5000000000057" y1="-210" y2="-210" stroke="black" stroke-width="5"/>
<line x1="401.5000000000057" x2="402.0000000000057" y1="-210" y2="-210" stroke="black" stroke-width="5"/>
<line x1="402.0000000000057" x2="402.5000000000057" y1="-210" y2="-210" stroke="black" stroke-width="5"/>
<line x1="402.50000000000574" x2="403.00000000000574" y1="-210" y2="-210" stroke="black" stroke-width="5"/>
<line x1="403.00000000000574" x2="403.50000000000574" y1="-210" y2="-210" stroke="black" stroke-width="5"/>
<line x1="403.5000000000058" x2="404.0000000000058" y1="-210" y2="-210" stroke="black" stroke-width="5"/>
<line x1="408.00000000000597" x2="408.50000000000597" y1="-210" y2="-210" stroke="black" stroke-width="5"/>
<line x1="408.500000000006" x2="409.000000000006" y1="-210" y2="-210" stroke="black" stroke-width="5"/>
<line x1="409.000000000006" x2="409.500000000006" y1="-210" y2="-210" stroke="black" stroke-width="5"/>
<line x1="409.500000000006" x2="410.000000000006" y1="-210" y2="-210" stroke="black" stroke-width="5"/>
<line x1="410.0000000000061" x2="410.5000000000061" y1="-210" y2="-210" stroke="black" stroke-width="5"/>
<line x1="410.5000000000061" x2="411.0000000000061" y1="-210" y2="-210" stroke="black" stroke-width="5"/>
<line x1="411.00000000000614" x2="411.50000000000614" y1="-210" y2="-210" stroke="black" stroke-width="5"/>
<line x1="411.50000000000614" x2="412.00000000000614" y1="-210" y2="-210" stroke="black" stroke-width="5"/>
<line x1="416.00000000000637" x2="416.50000000000637" y1="-210" y2="-210" stroke="black" stroke-width="5"/>
<line x1="416.50000000000637" x2="417.00000000000637" y1="-210" y2="-210" stroke="black" stroke-width="5"/>
<line x1="417.00000000000637" x2="417.50000000000637" y1="-210" y2="-210" stroke="black" stroke-width="5"/>
<line x1="417.5000000000064" x2="418.0000000000064" y1="-210" y2="-210" stroke="black" stroke-width="5"/>
<line x1="418.0000000000064" x2="418.5000000000064" y1="-210" y2="-210" stroke="black" stroke-width="5"/>
<line x1="418.5000000000065" x2="419.0000000000065" y1="-210" y2="-210" stroke="black" stroke-width="5"/>
<line x1="419.0000000000065" x2="419.5000000000065" y1="-210" y2="-210" stroke="black" stroke-width="5"/>
<line x1="419.5000000000065" x2="420.0000000000065" y1="-210" y2="-210" stroke="black" stroke-width="5"/>
<line x1="424.0000000000067" x2="424.5000000000067" y1="-210" y2="-210" stroke="black" stroke-width="5"/>
<line x1="424.5000000000067" x2="425.0000000000067" y1="-210" y2="-210" stroke="black" stroke-width="5"/>
<line x1="425.00000000000676" x2="425.50000000000676" y1="-210" y2="-210" stroke="black" stroke-width="5"/>
<line x1="425.50000000000676" x2="426.00000000000676" y1="-210" y2="-210" stroke="black" stroke-width="5"/>
<line x1="426.0000000000068" x2="426.5000000000068" y1="-210" y2="-210" stroke="black" stroke-width="5"/>
<line x1="426.5000000000068" x2="427.0000000000068" y1="-210" y2="-210" stroke="black" stroke-width="5"/>
<line x1="427.0000000000068" x2="427.5000000000068" y1="-210" y2="-210" stroke="black" stroke-width="5"/>
<line x1="427.5000000000069" x2="428.0000000000069" y1="-210" y2="-210" stroke="black" stroke-width="5"/>
<line x1="432.00000000000705" x2="432.50000000000705" y1="-210" y2="-210" stroke="black" stroke-width="5"/>
<line x1="432.5000000000071" x2="433.0000000000071" y1="-210" y2="-210" stroke="black" stroke-width="5"/>
<line x1="433.0000000000071" x2="433.5000000000071" y1="-210" y2="-210" stroke="black" stroke-width="5"/>
<line x1="433.50000000000716" x2="434.00000000000716" y1="-210" y2="-210" stroke="black" stroke-width="5"/>
<line x1="434.00000000000716" x2="434.50000000000716" y1="-210" y2="-210" stroke="black" stroke-width="5"/>
<line x1="434.50000000000716" x2="435.00000000000716" y1="-210" y2="-210" stroke="black" stroke-width="5"/>
<line x1="435.0000000000072" x2="435.5000000000072" y1="-210" y2="-210" stroke="black" stroke-width="5"/>
<line x1="435.5000000000072" x2="436.0000000000072" y1="-210" y2="-210" stroke="black" stroke-width="5"/>
<line x1="440.00000000000745" x2="440.50000000000745" y1="-210" y2="-210" stroke="black" stroke-width="5"/>
<line x1="440.50000000000745" x2="441.00000000000745" y1="-210" y2="-210" stroke="black" stroke-width="5"/>
<line x1="441.0000000000075" x2="441.5000000000075" y1="-210" y2="-210" stroke="black" stroke-width="5"/>
<line x1="441.5000000000075" x2="442.0000000000075" y1="-210" y2="-210" stroke="black" stroke-width="5"/>
<line x1="442.0000000000075" x2="442.5000000000075" y1="-210" y2="-210" stroke="black" stroke-width="5"/>
<line x1="442.50000000000756" x2="443.00000000000756" y1="-210" y2="-210" stroke="black" stroke-width="5"/>
<line x1="443.00000000000756" x2="443.50000000000756" y1="-210" y2="-210" stroke="black" stroke-width="5"/>
<line x1="443.5000000000076" x2="444.0000000000076" y1="-210" y2="-210" stroke="black" stroke-width="5"/>
<line x1="448.0000000000078" x2="448.5000000000078" y1="-210" y2="-210" stroke="black" stroke-width="5"/>
<line x1="448.50000000000784" x2="449.00000000000784" y1="-210" y2="-210" stroke="black" stroke-width="5"/>
<line x1="449.00000000000784" x2="449.50000000000784" y1="-210" y2="-210" stroke="black" stroke-width="5"/>
<line x1="449.50000000000784" x2="450.00000000000784" y1="-210" y2="-210" stroke="black" stroke-width="5"/>
<line x1="450.0000000000079" x2="450.5000000000079" y1="-210" y2="-210" stroke="black" stroke-width="5"/>
<line x1="450.5000000000079" x2="451.0000000000079" y1="-210" y2="-210" stroke="black" stroke-width="5"/>
<line x1="451.00000000000796" x2="451.50000000000796" y1="-210" y2="-210" stroke="black" stroke-width="5"/>
<line x1="451.50000000000796" x2="452.00000000000796" y1="-210" y2="-210" stroke="black" stroke-width="5"/>
<line x1="456.00000000000813" x2="456.50000000000813" y1="-210" y2="-210" stroke="black" stroke-width="5"/>
<line x1="456.5000000000082" x2="457.0000000000082" y1="-210" y2="-210" stroke="black" stroke-width="5"/>
<line x1="457.0000000000082" x2="457.5000000000082" y1="-210" y2="-210" stroke="black" stroke-width="5"/>
<line x1="457.50000000000824" x2="458.00000000000824" y1="-210" y2="-210" stroke="black" stroke-width="5"/>
<line x1="458.00000000000824" x2="458.50000000000824" y1="-210" y2="-210" stroke="black" stroke-width="5"/>
<line x1="458.50000000000824" x2="459.00000000000824" y1="-210" y2="-210" stroke="black" stroke-width="5"/>
<line x1="459.0000000000083" x2="459.5000000000083" y1="-210" y2="-210" stroke="black" stroke-width="5"/>
<line x1="459.5000000000083" x2="460.0000000000083" y1="-210" y2="-210" stroke="black" stroke-width="5"/>
<line x1="464.0000000000085" x2="464.5000000000085" y1="-210" y2="-210" stroke="black" stroke-width="5"/>
<line x1="464.5000000000085" x2="465.0000000000085" y1="-210" y2="-210" stroke="black" stroke-width="5"/>
<line x1="465.0000000000086" x2="465.5000000000086" y1="-210" y2="-210" stroke="black" stroke-width="5"/>
<line x1="465.5000000000086" x2="466.0000000000086" y1="-210" y2="-210" stroke="black" stroke-width="5"/>
<line x1="466.0000000000086" x2="466.5000000000086" y1="-210" y2="-210" stroke="black" stroke-width="5"/>
<line x1="466.50000000000864" x2="467.00000000000864" y1="-210" y2="-210" stroke="black" stroke-width="5"/>
<line x1="467.00000000000864" x2="467.50000000000864" y1="-210" y2="-210" stroke="black" stroke-width="5"/>
<line x1="467.5000000000087" x2="468.0000000000087" y1="-210" y2="-210" stroke="black" stroke-width="5"/>
<line x1="472.00000000000887" x2="472.50000000000887" y1="-210" y2="-210" stroke="black" stroke-width="5"/>
<line x1="472.5000000000089" x2="473.0000000000089" y1="-210" y2="-210" stroke="black" stroke-width="5"/>
<line x1="473.0000000000089" x2="473.5000000000089" y1="-210" y2="-210" stroke="black" stroke-width="5"/>
<line x1="473.5000000000089" x2="474.0000000000089" y1="-210" y2="-210" stroke="black" stroke-width="5"/>
<line x1="474.000000000009" x2="474.500000000009" y1="-210" y2="-210" stroke="black" stroke-width="5"/>
<line x1="474.500000000009" x2="475.000000000009" y1="-210" y2="-210" stroke="black" stroke-width="5"/>
<line x1="475.00000000000904" x2="475.50000000000904" y1="-210" y2="-210" stroke="black" stroke-width="5"/>
<line x1="475.50000000000904" x2="476.00000000000904" y1="-210" y2="-210" stroke="black" stroke-width="5"/>
</svg>

