<svg width="500" height="500" xmlns="http://www.w3.org/2000/svg" xmlns:xlink="http://www.w3.org/1999/xlink">
 <style> .axisLabel {font: bold 20px sans-serif;} </style>
 <rect x="10" y="10" rx="10" ry="10" width="480" height="480" style="fill:rgb(232,232,232);stroke-width:2;stroke:rgb(0,0,0)"/>
 <line x1="20" x2="480" y1="250" y2="250" stroke="black" stroke-width="4"/>
<line x1="480" x2="480" y1="240" y2="260" stroke="black" stroke-width="2"/>
<text x="475" y="285" class="axisLabel">8</text>
<line x1="451.25" x2="451.25" y1="240" y2="260" stroke="black" stroke-width="2"/>
<text x="446.25" y="285" class="axisLabel">7</text>
<line x1="422.5" x2="422.5" y1="240" y2="260" stroke="black" stroke-width="2"/>
<text x="417.5" y="285" class="axisLabel">6</text>
<line x1="393.75" x2="393.75" y1="240" y2="260" stroke="black" stroke-width="2"/>
<text x="388.75" y="285" class="axisLabel">5</text>
<line x1="365" x2="365" y1="240" y2="260" stroke="black" stroke-width="2"/>
<text x="360" y="285" class="axisLabel">4</text>
<line x1="336.25" x2="336.25" y1="240" y2="260" stroke="black" stroke-width="2"/>
<text x="331.25" y="285" class="axisLabel">3</text>
<line x1="307.5" x2="307.5" y1="240" y2="260" stroke="black" stroke-width="2"/>
<text x="302.5" y="285" class="axisLabel">2</text>
<line x1="278.75" x2="278.75" y1="240" y2="260" stroke="black" stroke-width="2"/>
<text x="273.75" y="285" class="axisLabel">1</text>
<line x1="250" x2="250" y1="20" y2="480" stroke="black" stroke-width="4"/>
<line x1="221.25" x2="221.25" y1="240" y2="260" stroke="black" stroke-width="2"/>
<text x="216.25" y="285" class="axisLabel">-1</text>
<line x1="192.5" x2="192.5" y1="240" y2="260" stroke="black" stroke-width="2"/>
<text x="187.5" y="285" class="axisLabel">-2</text>
<line x1="163.75" x2="163.75" y1="240" y2="260" stroke="black" stroke-width="2"/>
<text x="158.75" y="285" class="axisLabel">-3</text>
<line x1="135" x2="135" y1="240" y2="260" stroke="black" stroke-width="2"/>
<text x="130" y="285" class="axisLabel">-4</text>
<line x1="106.25" x2="106.25" y1="240" y2="260" stroke="black" stroke-width="2"/>
<text x="101.25" y="285" class="axisLabel">-5</text>
<line x1="77.5" x2="77.5" y1="240" y2="260" stroke="black" stroke-width="2"/>
<text x="72.5" y="285" class="axisLabel">-6</text>
<line x1="48.75" x2="48.75" y1="240" y2="260" stroke="black" stroke-width="2"/>
<text x="43.75" y="285" class="axisLabel">-7</text>
<line x1="20" x2="20" y1="240" y2="260" stroke="black" stroke-width="2"/>
<text x="15" y="285" class="axisLabel">-8</text>
<line x1="240" x2="260" y1="480" y2="480" stroke="black" stroke-width="2"/>
<text x="285" y="485" class="axisLabel">-8</text>
<line x1="240" x2="260" y1="451.25" y2="451.25" stroke="black" stroke-width="2"/>
<text x="285" y="456.25" class="axisLabel">-7</text>
<line x1="240" x2="260" y1="422.5" y2="422.5" stroke="black" stroke-width="2"/>
<text x="285" y="427.5" class="axisLabel">-6</text>
<line x1="240" x2="260" y1="393.75" y2="393.75" stroke="black" stroke-width="2"/>
<text x="285" y="398.75" class="axisLabel">-5</text>
<line x1="240" x2="260" y1="365" y2="365" stroke="black" stroke-width="2"/>
<text x="285" y="370" class="axisLabel">-4</text>
<line x1="240" x2="260" y1="336.25" y2="336.25" stroke="black" stroke-width="2"/>
<text x="285" y="341.25" class="axisLabel">-3</text>
<line x1="240" x2="260" y1="307.5" y2="307.5" stroke="black" stroke-width="2"/>
<text x="285" y="312.5" class="axisLabel">-2</text>
<line x1="240" x2="260" y1="278.75" y2="278.75" stroke="black" stroke-width="2"/>
<text x="285" y="283.75" class="axisLabel">-1</text>
<line x1="240" x2="260" y1="221.25" y2="221.25" stroke="black" stroke-width="2"/>
<text x="285" y="226.25" class="axisLabel">1</text>
<line x1="240" x2="260" y1="192.5" y2="192.5" stroke="black" stroke-width="2"/>
<text x="285" y="197.5" class="axisLabel">2</text>
<line x1="240" x2="260" y1="163.75" y2="163.75" stroke="black" stroke-width="2"/>
<text x="285" y="168.75" class="axisLabel">3</text>
<line x1="240" x2="260" y1="135" y2="135" stroke="black" stroke-width="2"/>
<text x="285" y="140" class="axisLabel">4</text>
<line x1="240" x2="260" y1="106.25" y2="106.25" stroke="black" stroke-width="2"/>
<text x="285" y="111.25" class="axisLabel">5</text>
<line x1="240" x2="260" y1="77.5" y2="77.5" stroke="black" stroke-width="2"/>
<text x="285" y="82.5" class="axisLabel">6</text>
<line x1="240" x2="260" y1="48.75" y2="48.75" stroke="black" stroke-width="2"/>
<text x="285" y="53.75" class="axisLabel">7</text>
<line x1="240" x2="260" y1="20" y2="20" stroke="black" stroke-width="2"/>
<text x="285" y="25" class="axisLabel">8</text>
<line x1="20" x2="21" y1="192.19404959042222" y2="192.32231579189602" stroke="blue" stroke-width="5"/>
<line x1="21" x2="22" y1="192.32231579189602" y2="192.41601783727594" stroke="blue" stroke-width="5"/>
<line x1="22" x2="23" y1="192.41601783727594" y2="192.47504237445767" stroke="blue" stroke-width="5"/>
<line x1="22.99999999999997" x2="23.99999999999997" y1="192.47504237445767" y2="192.49931800099228" stroke="blue" stroke-width="5"/>
<line x1="23.99999999999997" x2="24.99999999999997" y1="192.49931800099228" y2="192.48881535046266" stroke="blue" stroke-width="5"/>
<line x1="24.99999999999997" x2="25.99999999999997" y1="192.48881535046266" y2="192.4435471280081" stroke="blue" stroke-width="5"/>
<line x1="25.99999999999997" x2="26.99999999999997" y1="192.4435471280081" y2="192.36356809495487" stroke="blue" stroke-width="5"/>
<line x1="26.99999999999997" x2="27.99999999999997" y1="192.36356809495487" y2="192.24897500257094" stroke="blue" stroke-width="5"/>
<line x1="27.999999999999943" x2="28.999999999999943" y1="192.24897500257094" y2="192.0999064750253" stroke="blue" stroke-width="5"/>
<line x1="28.999999999999943" x2="29.999999999999943" y1="192.0999064750253" y2="191.9165428416932" stroke="blue" stroke-width="5"/>
<line x1="29.999999999999943" x2="30.999999999999943" y1="191.9165428416932" y2="191.69910591901015" stroke="blue" stroke-width="5"/>
<line x1="30.999999999999943" x2="31.999999999999943" y1="191.69910591901015" y2="191.44785874213892" stroke="blue" stroke-width="5"/>
<line x1="31.999999999999943" x2="32.99999999999994" y1="191.44785874213892" y2="191.1631052467739" stroke="blue" stroke-width="5"/>
<line x1="32.999999999999915" x2="33.999999999999915" y1="191.16310524677394" y2="190.84518990146765" stroke="blue" stroke-width="5"/>
<line x1="33.999999999999915" x2="34.999999999999915" y1="190.84518990146765" y2="190.49449729092436" stroke="blue" stroke-width="5"/>
<line x1="34.999999999999915" x2="35.999999999999915" y1="190.49449729092436" y2="190.111451650765" stroke="blue" stroke-width="5"/>
<line x1="35.999999999999915" x2="36.999999999999915" y1="190.111451650765" y2="189.69651635432598" stroke="blue" stroke-width="5"/>
<line x1="36.999999999999915" x2="37.999999999999915" y1="189.696516354326" y2="189.25019335211283" stroke="blue" stroke-width="5"/>
<line x1="37.999999999999886" x2="38.999999999999886" y1="189.25019335211286" y2="188.77302256458663" stroke="blue" stroke-width="5"/>
<line x1="38.999999999999886" x2="39.999999999999886" y1="188.77302256458663" y2="188.265581229018" stroke="blue" stroke-width="5"/>
<line x1="39.999999999999886" x2="40.999999999999886" y1="188.265581229018" y2="187.72848320119863" stroke="blue" stroke-width="5"/>
<line x1="40.999999999999886" x2="41.999999999999886" y1="187.72848320119863" y2="187.1623782128551" stroke="blue" stroke-width="5"/>
<line x1="41.999999999999886" x2="42.999999999999886" y1="187.16237821285512" y2="186.56795108566322" stroke="blue" stroke-width="5"/>
<line x1="42.99999999999986" x2="43.99999999999986" y1="186.56795108566322" y2="185.9459209028139" stroke="blue" stroke-width="5"/>
<line x1="43.99999999999986" x2="44.99999999999986" y1="185.9459209028139" y2="185.29704013913243" stroke="blue" stroke-width="5"/>
<line x1="44.99999999999986" x2="45.99999999999986" y1="185.29704013913243" y2="184.62209375080388" stroke="blue" stroke-width="5"/>
<line x1="45.99999999999986" x2="46.99999999999986" y1="184.62209375080388" y2="183.9218982258053" stroke="blue" stroke-width="5"/>
<line x1="46.99999999999986" x2="47.99999999999986" y1="183.92189822580536" y2="183.19730059619394" stroke="blue" stroke-width="5"/>
<line x1="47.99999999999983" x2="48.99999999999983" y1="183.19730059619394" y2="182.4491774134455" stroke="blue" stroke-width="5"/>
<line x1="48.99999999999983" x2="49.99999999999983" y1="182.4491774134455" y2="181.67843368808332" stroke="blue" stroke-width="5"/>
<line x1="49.99999999999983" x2="50.99999999999983" y1="181.67843368808332" y2="180.88600179487966" stroke="blue" stroke-width="5"/>
<line x1="50.99999999999983" x2="51.99999999999983" y1="180.88600179487966" y2="180.07284034495487" stroke="blue" stroke-width="5"/>
<line x1="51.99999999999983" x2="52.99999999999983" y1="180.0728403449549" y2="179.23993302613775" stroke="blue" stroke-width="5"/>
<line x1="52.9999999999998" x2="53.9999999999998" y1="179.23993302613775" y2="178.38828741299062" stroke="blue" stroke-width="5"/>
<line x1="53.9999999999998" x2="54.9999999999998" y1="178.38828741299062" y2="177.5189337479385" stroke="blue" stroke-width="5"/>
<line x1="54.9999999999998" x2="55.9999999999998" y1="177.5189337479385" y2="176.6329236949766" stroke="blue" stroke-width="5"/>
<line x1="55.9999999999998" x2="56.9999999999998" y1="176.6329236949766" y2="175.73132906746423" stroke="blue" stroke-width="5"/>
<line x1="56.99999999999977" x2="57.99999999999977" y1="175.73132906746426" y2="174.81524053154365" stroke="blue" stroke-width="5"/>
<line x1="57.99999999999977" x2="58.99999999999977" y1="174.81524053154365" y2="173.8857662867525" stroke="blue" stroke-width="5"/>
<line x1="58.99999999999977" x2="59.99999999999977" y1="173.8857662867525" y2="172.94403072542622" stroke="blue" stroke-width="5"/>
<line x1="59.99999999999977" x2="60.99999999999977" y1="172.94403072542622" y2="171.9911730725117" stroke="blue" stroke-width="5"/>
<line x1="60.99999999999977" x2="61.99999999999977" y1="171.9911730725117" y2="171.0283460074379" stroke="blue" stroke-width="5"/>
<line x1="61.999999999999744" x2="62.999999999999744" y1="171.02834600743793" y2="170.05671426971043" stroke="blue" stroke-width="5"/>
<line x1="62.999999999999744" x2="63.999999999999744" y1="170.05671426971043" y2="169.07745324991686" stroke="blue" stroke-width="5"/>
<line x1="63.999999999999744" x2="64.99999999999974" y1="169.07745324991686" y2="168.09174756784762" stroke="blue" stroke-width="5"/>
<line x1="64.99999999999974" x2="65.99999999999974" y1="168.09174756784762" y2="167.10078963945193" stroke="blue" stroke-width="5"/>
<line x1="65.99999999999974" x2="66.99999999999974" y1="167.10078963945193" y2="166.10577823436296" stroke="blue" stroke-width="5"/>
<line x1="66.99999999999972" x2="67.99999999999972" y1="166.10577823436302" y2="165.10791702573667" stroke="blue" stroke-width="5"/>
<line x1="67.99999999999972" x2="68.99999999999972" y1="165.10791702573667" y2="164.1084131341587" stroke="blue" stroke-width="5"/>
<line x1="68.99999999999972" x2="69.99999999999972" y1="164.1084131341587" y2="163.10847566738138" stroke="blue" stroke-width="5"/>
<line x1="69.99999999999972" x2="70.99999999999972" y1="163.10847566738138" y2="162.10931425765637" stroke="blue" stroke-width="5"/>
<line x1="70.99999999999972" x2="71.99999999999972" y1="162.10931425765637" y2="161.11213759843292" stroke="blue" stroke-width="5"/>
<line x1="71.99999999999969" x2="72.99999999999969" y1="161.11213759843292" y2="160.11815198219202" stroke="blue" stroke-width="5"/>
<line x1="72.99999999999969" x2="73.99999999999969" y1="160.11815198219202" y2="159.12855984118463" stroke="blue" stroke-width="5"/>
<line x1="73.99999999999969" x2="74.99999999999969" y1="159.12855984118463" y2="158.14455829284012" stroke="blue" stroke-width="5"/>
<line x1="74.99999999999969" x2="75.99999999999969" y1="158.14455829284012" y2="157.16733769160373" stroke="blue" stroke-width="5"/>
<line x1="75.99999999999969" x2="76.99999999999969" y1="157.16733769160373" y2="156.19808018895537" stroke="blue" stroke-width="5"/>
<line x1="76.99999999999966" x2="77.99999999999966" y1="156.1980801889554" y2="155.23795830335186" stroke="blue" stroke-width="5"/>
<line x1="77.99999999999966" x2="78.99999999999966" y1="155.23795830335186" y2="154.28813350182168" stroke="blue" stroke-width="5"/>
<line x1="78.99999999999966" x2="79.99999999999966" y1="154.28813350182168" y2="153.34975479492957" stroke="blue" stroke-width="5"/>
<line x1="79.99999999999966" x2="80.99999999999966" y1="153.34975479492957" y2="152.42395734680906" stroke="blue" stroke-width="5"/>
<line x1="80.99999999999966" x2="81.99999999999966" y1="152.42395734680906" y2="151.5118611019456" stroke="blue" stroke-width="5"/>
<line x1="81.99999999999963" x2="82.99999999999963" y1="151.5118611019456" y2="150.61456943037092" stroke="blue" stroke-width="5"/>
<line x1="82.99999999999963" x2="83.99999999999963" y1="150.61456943037092" y2="149.7331677929074" stroke="blue" stroke-width="5"/>
<line x1="83.99999999999963" x2="84.99999999999963" y1="149.7331677929074" y2="148.86872242807772" stroke="blue" stroke-width="5"/>
<line x1="84.99999999999963" x2="85.99999999999963" y1="148.86872242807772" y2="148.02227906226756" stroke="blue" stroke-width="5"/>
<line x1="85.99999999999963" x2="86.99999999999963" y1="148.02227906226756" y2="147.19486164470226" stroke="blue" stroke-width="5"/>
<line x1="86.9999999999996" x2="87.9999999999996" y1="147.19486164470226" y2="146.38747110876724" stroke="blue" stroke-width="5"/>
<line x1="87.9999999999996" x2="88.9999999999996" y1="146.38747110876724" y2="145.60108416117106" stroke="blue" stroke-width="5"/>
<line x1="88.9999999999996" x2="89.9999999999996" y1="145.60108416117106" y2="144.83665210041556" stroke="blue" stroke-width="5"/>
<line x1="89.9999999999996" x2="90.9999999999996" y1="144.83665210041556" y2="144.09509966600257" stroke="blue" stroke-width="5"/>
<line x1="90.9999999999996" x2="91.9999999999996" y1="144.09509966600257" y2="143.37732391976914" stroke="blue" stroke-width="5"/>
<line x1="91.99999999999957" x2="92.99999999999957" y1="143.37732391976914" y2="142.68419316070495" stroke="blue" stroke-width="5"/>
<line x1="92.99999999999957" x2="93.99999999999957" y1="142.68419316070495" y2="142.01654587456397" stroke="blue" stroke-width="5"/>
<line x1="93.99999999999957" x2="94.99999999999957" y1="142.01654587456397" y2="141.37518971954168" stroke="blue" stroke-width="5"/>
<line x1="94.99999999999957" x2="95.99999999999957" y1="141.37518971954168" y2="140.76090054924464" stroke="blue" stroke-width="5"/>
<line x1="95.99999999999957" x2="96.99999999999957" y1="140.76090054924464" y2="140.17442147413408" stroke="blue" stroke-width="5"/>
<line x1="96.99999999999955" x2="97.99999999999955" y1="140.17442147413414" y2="139.61646196257965" stroke="blue" stroke-width="5"/>
<line x1="97.99999999999955" x2="98.99999999999955" y1="139.61646196257965" y2="139.08769698260943" stroke="blue" stroke-width="5"/>
<line x1="98.99999999999955" x2="99.99999999999955" y1="139.08769698260943" y2="138.58876618539625" stroke="blue" stroke-width="5"/>
<line x1="99.99999999999955" x2="100.99999999999955" y1="138.58876618539625" y2="138.1202731314663" stroke="blue" stroke-width="5"/>
<line x1="100.99999999999955" x2="101.99999999999955" y1="138.1202731314663" y2="137.68278456056734" stroke="blue" stroke-width="5"/>
<line x1="101.99999999999952" x2="102.99999999999952" y1="137.68278456056737" y2="137.27682970607916" stroke="blue" stroke-width="5"/>
<line x1="102.99999999999952" x2="103.99999999999952" y1="137.27682970607916" y2="136.90289965479565" stroke="blue" stroke-width="5"/>
<line x1="103.99999999999952" x2="104.99999999999952" y1="136.90289965479565" y2="136.56144675285339" stroke="blue" stroke-width="5"/>
<line x1="104.99999999999952" x2="105.99999999999952" y1="136.56144675285339" y2="136.25288405852484" stroke="blue" stroke-width="5"/>
<line x1="105.99999999999952" x2="106.99999999999952" y1="136.25288405852484" y2="135.9775848425385" stroke="blue" stroke-width="5"/>
<line x1="106.99999999999949" x2="107.99999999999949" y1="135.97758484253853" y2="135.7358821365305" stroke="blue" stroke-width="5"/>
<line x1="107.99999999999949" x2="108.99999999999949" y1="135.7358821365305" y2="135.5280683301733" stroke="blue" stroke-width="5"/>
<line x1="108.99999999999949" x2="109.99999999999949" y1="135.5280683301733" y2="135.35439481746997" stroke="blue" stroke-width="5"/>
<line x1="109.99999999999949" x2="110.99999999999949" y1="135.35439481746997" y2="135.21507169264055" stroke="blue" stroke-width="5"/>
<line x1="110.99999999999949" x2="111.99999999999949" y1="135.21507169264055" y2="135.11026749596965" stroke="blue" stroke-width="5"/>
<line x1="111.99999999999946" x2="112.99999999999946" y1="135.11026749596965" y2="135.0401090099217" stroke="blue" stroke-width="5"/>
<line x1="112.99999999999946" x2="113.99999999999946" y1="135.0401090099217" y2="135.00468110577148" stroke="blue" stroke-width="5"/>
<line x1="113.99999999999946" x2="114.99999999999946" y1="135.00468110577148" y2="135.00402664093446" stroke="blue" stroke-width="5"/>
<line x1="114.99999999999946" x2="115.99999999999946" y1="135.00402664093446" y2="135.03814640712193" stroke="blue" stroke-width="5"/>
<line x1="115.99999999999943" x2="116.99999999999943" y1="135.03814640712193" y2="135.10699912938327" stroke="blue" stroke-width="5"/>
<line x1="116.99999999999943" x2="117.99999999999943" y1="135.10699912938327" y2="135.2105015160364" stroke="blue" stroke-width="5"/>
<line x1="117.99999999999943" x2="118.99999999999943" y1="135.2105015160364" y2="135.34852835942684" stroke="blue" stroke-width="5"/>
<line x1="118.99999999999943" x2="119.99999999999943" y1="135.34852835942684" y2="135.52091268739179" stroke="blue" stroke-width="5"/>
<line x1="119.99999999999943" x2="120.99999999999943" y1="135.52091268739179" y2="135.72744596524814" stroke="blue" stroke-width="5"/>
<line x1="120.9999999999994" x2="121.9999999999994" y1="135.72744596524814" y2="135.96787834805843" stroke="blue" stroke-width="5"/>
<line x1="121.9999999999994" x2="122.9999999999994" y1="135.96787834805843" y2="136.24191898287" stroke="blue" stroke-width="5"/>
<line x1="122.9999999999994" x2="123.9999999999994" y1="136.24191898287" y2="136.54923636056247" stroke="blue" stroke-width="5"/>
<line x1="123.9999999999994" x2="124.9999999999994" y1="136.54923636056247" y2="136.88945871687665" stroke="blue" stroke-width="5"/>
<line x1="124.99999999999939" x2="125.99999999999939" y1="136.88945871687665" y2="137.2621744821408" stroke="blue" stroke-width="5"/>
<line x1="125.99999999999939" x2="126.99999999999939" y1="137.2621744821408" y2="137.66693277914982" stroke="blue" stroke-width="5"/>
<line x1="126.99999999999939" x2="127.99999999999939" y1="137.66693277914982" y2="138.1032439685948" stroke="blue" stroke-width="5"/>
<line x1="127.99999999999937" x2="128.99999999999937" y1="138.1032439685948" y2="138.5705802413836" stroke="blue" stroke-width="5"/>
<line x1="128.99999999999937" x2="129.99999999999937" y1="138.5705802413836" y2="139.06837625713575" stroke="blue" stroke-width="5"/>
<line x1="129.99999999999937" x2="130.99999999999937" y1="139.06837625713575" y2="139.5960298280791" stroke="blue" stroke-width="5"/>
<line x1="130.99999999999937" x2="131.99999999999937" y1="139.5960298280791" y2="140.15290264752124" stroke="blue" stroke-width="5"/>
<line x1="131.99999999999935" x2="132.99999999999935" y1="140.15290264752122" y2="140.73832106201394" stroke="blue" stroke-width="5"/>
<line x1="132.99999999999935" x2="133.99999999999935" y1="140.73832106201394" y2="141.3515768862772" stroke="blue" stroke-width="5"/>
<line x1="133.99999999999935" x2="134.99999999999935" y1="141.3515768862772" y2="141.9919282598966" stroke="blue" stroke-width="5"/>
<line x1="134.99999999999932" x2="135.99999999999932" y1="141.9919282598966" y2="142.65860054475763" stroke="blue" stroke-width="5"/>
<line x1="135.99999999999932" x2="136.99999999999932" y1="142.65860054475766" y2="143.35078726213155" stroke="blue" stroke-width="5"/>
<line x1="136.99999999999932" x2="137.99999999999932" y1="143.35078726213158" y2="144.06765106827902" stroke="blue" stroke-width="5"/>
<line x1="137.99999999999932" x2="138.99999999999932" y1="144.06765106827902" y2="144.80832476739153" stroke="blue" stroke-width="5"/>
<line x1="138.99999999999932" x2="139.99999999999932" y1="144.80832476739153" y2="145.57191236064506" stroke="blue" stroke-width="5"/>
<line x1="139.99999999999932" x2="140.99999999999932" y1="145.57191236064506" y2="146.35749013009678" stroke="blue" stroke-width="5"/>
<line x1="140.99999999999932" x2="141.99999999999932" y1="146.35749013009678" y2="147.16410775611405" stroke="blue" stroke-width="5"/>
<line x1="141.9999999999993" x2="142.9999999999993" y1="147.16410775611402" y2="147.99078946698353" stroke="blue" stroke-width="5"/>
<line x1="142.9999999999993" x2="143.9999999999993" y1="147.99078946698353" y2="148.83653521930998" stroke="blue" stroke-width="5"/>
<line x1="143.9999999999993" x2="144.9999999999993" y1="148.83653521930998" y2="149.70032190777667" stroke="blue" stroke-width="5"/>
<line x1="144.99999999999926" x2="145.99999999999926" y1="149.70032190777664" y2="150.58110460280383" stroke="blue" stroke-width="5"/>
<line x1="145.99999999999926" x2="146.99999999999926" y1="150.58110460280386" y2="151.47781781460844" stroke="blue" stroke-width="5"/>
<line x1="146.99999999999926" x2="147.99999999999926" y1="151.47781781460844" y2="152.38937678213534" stroke="blue" stroke-width="5"/>
<line x1="147.99999999999926" x2="148.99999999999926" y1="152.38937678213534" y2="153.31467878530157" stroke="blue" stroke-width="5"/>
<line x1="148.99999999999926" x2="149.99999999999926" y1="153.31467878530157" y2="154.2526044789653" stroke="blue" stroke-width="5"/>
<line x1="149.99999999999926" x2="150.99999999999926" y1="154.25260447896528" y2="155.20201924700666" stroke="blue" stroke-width="5"/>
<line x1="150.99999999999926" x2="151.99999999999926" y1="155.20201924700666" y2="156.16177457488175" stroke="blue" stroke-width="5"/>
<line x1="151.99999999999923" x2="152.99999999999923" y1="156.16177457488172" y2="157.13070943898967" stroke="blue" stroke-width="5"/>
<line x1="152.99999999999923" x2="153.99999999999923" y1="157.13070943898967" y2="158.10765171117217" stroke="blue" stroke-width="5"/>
<line x1="153.99999999999923" x2="154.99999999999923" y1="158.10765171117217" y2="159.09141957664616" stroke="blue" stroke-width="5"/>
<line x1="154.9999999999992" x2="155.9999999999992" y1="159.09141957664616" y2="160.08082296365436" stroke="blue" stroke-width="5"/>
<line x1="155.9999999999992" x2="156.9999999999992" y1="160.08082296365438" y2="161.0746649831047" stroke="blue" stroke-width="5"/>
<line x1="156.9999999999992" x2="157.9999999999992" y1="161.0746649831047" y2="162.07174337645628" stroke="blue" stroke-width="5"/>
<line x1="157.9999999999992" x2="158.9999999999992" y1="162.07174337645628" y2="163.07085197010122" stroke="blue" stroke-width="5"/>
<line x1="158.9999999999992" x2="159.9999999999992" y1="163.0708519701012" y2="164.0707821344822" stroke="blue" stroke-width="5"/>
<line x1="159.9999999999992" x2="160.9999999999992" y1="164.07078213448216" y2="165.07032424618137" stroke="blue" stroke-width="5"/>
<line x1="160.9999999999992" x2="161.9999999999992" y1="165.07032424618134" y2="166.06826915121127" stroke="blue" stroke-width="5"/>
<line x1="161.99999999999918" x2="162.99999999999918" y1="166.06826915121124" y2="167.0634096277379" stroke="blue" stroke-width="5"/>
<line x1="162.99999999999918" x2="163.99999999999918" y1="167.0634096277379" y2="168.05454184646672" stroke="blue" stroke-width="5"/>
<line x1="163.99999999999918" x2="164.99999999999918" y1="168.05454184646672" y2="169.04046682692416" stroke="blue" stroke-width="5"/>
<line x1="164.99999999999915" x2="165.99999999999915" y1="169.04046682692413" y2="170.0199918878739" stroke="blue" stroke-width="5"/>
<line x1="165.99999999999915" x2="166.99999999999915" y1="170.0199918878739" y2="170.99193209011298" stroke="blue" stroke-width="5"/>
<line x1="166.99999999999915" x2="167.99999999999915" y1="170.99193209011298" y2="171.95511166990173" stroke="blue" stroke-width="5"/>
<line x1="167.99999999999915" x2="168.99999999999915" y1="171.95511166990173" y2="172.90836546129478" stroke="blue" stroke-width="5"/>
<line x1="168.99999999999915" x2="169.99999999999915" y1="172.90836546129475" y2="173.85054030565132" stroke="blue" stroke-width="5"/>
<line x1="169.99999999999915" x2="170.99999999999915" y1="173.8505403056513" y2="174.7804964466203" stroke="blue" stroke-width="5"/>
<line x1="170.99999999999915" x2="171.99999999999915" y1="174.7804964466203" y2="175.6971089089127" stroke="blue" stroke-width="5"/>
<line x1="171.99999999999912" x2="172.99999999999912" y1="175.6971089089127" y2="176.59926885919293" stroke="blue" stroke-width="5"/>
<line x1="172.99999999999912" x2="173.99999999999912" y1="176.59926885919293" y2="177.48588494744337" stroke="blue" stroke-width="5"/>
<line x1="173.9999999999991" x2="174.9999999999991" y1="177.48588494744337" y2="178.35588462717905" stroke="blue" stroke-width="5"/>
<line x1="174.9999999999991" x2="175.9999999999991" y1="178.35588462717905" y2="179.20821545291568" stroke="blue" stroke-width="5"/>
<line x1="175.9999999999991" x2="176.9999999999991" y1="179.20821545291568" y2="180.04184635332115" stroke="blue" stroke-width="5"/>
<line x1="176.9999999999991" x2="177.9999999999991" y1="180.04184635332115" y2="180.85576887851076" stroke="blue" stroke-width="5"/>
<line x1="177.9999999999991" x2="178.9999999999991" y1="180.85576887851076" y2="181.64899841997698" stroke="blue" stroke-width="5"/>
<line x1="178.9999999999991" x2="179.9999999999991" y1="181.64899841997695" y2="182.42057540167804" stroke="blue" stroke-width="5"/>
<line x1="179.9999999999991" x2="180.9999999999991" y1="182.42057540167804" y2="183.1695664408449" stroke="blue" stroke-width="5"/>
<line x1="180.9999999999991" x2="181.9999999999991" y1="183.1695664408449" y2="183.89506547710153" stroke="blue" stroke-width="5"/>
<line x1="181.99999999999906" x2="182.99999999999906" y1="183.89506547710153" y2="184.5961948685333" stroke="blue" stroke-width="5"/>
<line x1="182.99999999999906" x2="183.99999999999906" y1="184.5961948685333" y2="185.27210645337757" stroke="blue" stroke-width="5"/>
<line x1="183.99999999999903" x2="184.99999999999903" y1="185.27210645337755" y2="185.92198257605133" stroke="blue" stroke-width="5"/>
<line x1="184.99999999999903" x2="185.99999999999903" y1="185.92198257605133" y2="186.54503707627595" stroke="blue" stroke-width="5"/>
<line x1="185.99999999999903" x2="186.99999999999903" y1="186.54503707627595" y2="187.14051624010125" stroke="blue" stroke-width="5"/>
<line x1="186.99999999999903" x2="187.99999999999903" y1="187.14051624010125" y2="187.7076997116793" stroke="blue" stroke-width="5"/>
<line x1="187.99999999999903" x2="188.99999999999903" y1="187.7076997116793" y2="188.24590136468464" stroke="blue" stroke-width="5"/>
<line x1="188.99999999999903" x2="189.99999999999903" y1="188.24590136468464" y2="188.75447013232656" stroke="blue" stroke-width="5"/>
<line x1="189.99999999999903" x2="190.99999999999903" y1="188.75447013232656" y2="189.23279079494992" stroke="blue" stroke-width="5"/>
<line x1="190.999999999999" x2="191.999999999999" y1="189.2327907949499" y2="189.68028472427105" stroke="blue" stroke-width="5"/>
<line x1="191.999999999999" x2="192.999999999999" y1="189.68028472427105" y2="190.0964105833491" stroke="blue" stroke-width="5"/>
<line x1="192.999999999999" x2="193.999999999999" y1="190.0964105833491" y2="190.4806649814456" stroke="blue" stroke-width="5"/>
<line x1="193.999999999999" x2="194.999999999999" y1="190.4806649814456" y2="190.83258308298005" stroke="blue" stroke-width="5"/>
<line x1="194.999999999999" x2="195.999999999999" y1="190.83258308298005" y2="191.1517391698454" stroke="blue" stroke-width="5"/>
<line x1="195.999999999999" x2="196.999999999999" y1="191.1517391698454" y2="191.43774715640248" stroke="blue" stroke-width="5"/>
<line x1="196.999999999999" x2="197.999999999999" y1="191.43774715640248" y2="191.69026105653094" stroke="blue" stroke-width="5"/>
<line x1="197.999999999999" x2="198.999999999999" y1="191.69026105653094" y2="191.90897540217122" stroke="blue" stroke-width="5"/>
<line x1="198.999999999999" x2="199.999999999999" y1="191.90897540217122" y2="192.09362561285195" stroke="blue" stroke-width="5"/>
<line x1="199.999999999999" x2="200.999999999999" y1="192.09362561285195" y2="192.24398831575473" stroke="blue" stroke-width="5"/>
<line x1="200.999999999999" x2="201.999999999999" y1="192.24398831575473" y2="192.35988161593025" stroke="blue" stroke-width="5"/>
<line x1="201.999999999999" x2="202.999999999999" y1="192.35988161593025" y2="192.4411653163379" stroke="blue" stroke-width="5"/>
<line x1="202.999999999999" x2="203.999999999999" y1="192.4411653163379" y2="192.48774108744323" stroke="blue" stroke-width="5"/>
<line x1="203.999999999999" x2="204.999999999999" y1="192.48774108744323" y2="192.4995525861681" stroke="blue" stroke-width="5"/>
<line x1="204.999999999999" x2="205.999999999999" y1="192.4995525861681" y2="192.4765855240492" stroke="blue" stroke-width="5"/>
<line x1="205.999999999999" x2="206.999999999999" y1="192.4765855240492" y2="192.41886768452295" stroke="blue" stroke-width="5"/>
<line x1="206.99999999999903" x2="207.99999999999903" y1="192.41886768452295" y2="192.32646888931572" stroke="blue" stroke-width="5"/>
<line x1="207.99999999999903" x2="208.99999999999903" y1="192.32646888931572" y2="192.19950091397993" stroke="blue" stroke-width="5"/>
<line x1="208.99999999999903" x2="209.99999999999903" y1="192.19950091397993" y2="192.03811735267817" stroke="blue" stroke-width="5"/>
<line x1="209.99999999999903" x2="210.99999999999903" y1="192.03811735267817" y2="191.84251343237923" stroke="blue" stroke-width="5"/>
<line x1="210.99999999999903" x2="211.99999999999903" y1="191.84251343237926" y2="191.61292577669056" stroke="blue" stroke-width="5"/>
<line x1="211.99999999999903" x2="212.99999999999903" y1="191.61292577669056" y2="191.3496321196126" stroke="blue" stroke-width="5"/>
<line x1="212.99999999999903" x2="213.99999999999903" y1="191.3496321196126" y2="191.05295096956195" stroke="blue" stroke-width="5"/>
<line x1="213.99999999999903" x2="214.99999999999903" y1="191.05295096956198" y2="190.72324122406926" stroke="blue" stroke-width="5"/>
<line x1="214.99999999999903" x2="215.99999999999903" y1="190.72324122406926" y2="190.36090173561777" stroke="blue" stroke-width="5"/>
<line x1="215.99999999999903" x2="216.99999999999903" y1="190.3609017356178" y2="189.96637082914873" stroke="blue" stroke-width="5"/>
<line x1="216.99999999999903" x2="217.99999999999903" y1="189.96637082914873" y2="189.5401257718159" stroke="blue" stroke-width="5"/>
<line x1="217.99999999999903" x2="218.99999999999903" y1="189.5401257718159" y2="189.0826821956318" stroke="blue" stroke-width="5"/>
<line x1="218.99999999999903" x2="219.99999999999903" y1="189.0826821956318" y2="188.59459347370375" stroke="blue" stroke-width="5"/>
<line x1="219.99999999999903" x2="220.99999999999903" y1="188.59459347370375" y2="188.07645005081386" stroke="blue" stroke-width="5"/>
<line x1="220.99999999999903" x2="221.99999999999903" y1="188.07645005081386" y2="187.52887872915338" stroke="blue" stroke-width="5"/>
<line x1="221.99999999999903" x2="222.99999999999903" y1="187.52887872915338" y2="186.95254191007513" stroke="blue" stroke-width="5"/>
<line x1="222.99999999999903" x2="223.99999999999903" y1="186.95254191007513" y2="186.34813679278142" stroke="blue" stroke-width="5"/>
<line x1="223.99999999999903" x2="224.99999999999903" y1="186.34813679278142" y2="185.71639453091655" stroke="blue" stroke-width="5"/>
<line x1="224.99999999999903" x2="225.99999999999903" y1="185.71639453091655" y2="185.05807934808462" stroke="blue" stroke-width="5"/>
<line x1="225.99999999999903" x2="226.99999999999903" y1="185.05807934808462" y2="184.37398761336195" stroke="blue" stroke-width="5"/>
<line x1="226.99999999999903" x2="227.99999999999903" y1="184.37398761336195" y2="183.66494687792346" stroke="blue" stroke-width="5"/>
<line x1="227.99999999999903" x2="228.99999999999903" y1="183.66494687792346" y2="182.93181487394716" stroke="blue" stroke-width="5"/>
<line x1="228.99999999999903" x2="229.99999999999903" y1="182.93181487394716" y2="182.175478477009" stroke="blue" stroke-width="5"/>
<line x1="229.99999999999903" x2="230.99999999999903" y1="182.175478477009" y2="181.3968526332223" stroke="blue" stroke-width="5"/>
<line x1="230.99999999999903" x2="231.99999999999903" y1="181.3968526332223" y2="180.5968792524203" stroke="blue" stroke-width="5"/>
<line x1="231.99999999999903" x2="232.99999999999903" y1="180.5968792524203" y2="179.77652606872044" stroke="blue" stroke-width="5"/>
<line x1="232.99999999999903" x2="233.99999999999903" y1="179.77652606872044" y2="178.93678546984867" stroke="blue" stroke-width="5"/>
<line x1="233.99999999999903" x2="234.99999999999903" y1="178.93678546984867" y2="178.07867329664015" stroke="blue" stroke-width="5"/>
<line x1="234.99999999999903" x2="235.99999999999903" y1="178.07867329664015" y2="177.20322761416867" stroke="blue" stroke-width="5"/>
<line x1="235.99999999999903" x2="236.99999999999903" y1="177.20322761416867" y2="176.31150745599112" stroke="blue" stroke-width="5"/>
<line x1="236.99999999999903" x2="237.99999999999903" y1="176.31150745599112" y2="175.40459154302613" stroke="blue" stroke-width="5"/>
<line x1="237.99999999999903" x2="238.99999999999903" y1="175.40459154302613" y2="174.48357697861695" stroke="blue" stroke-width="5"/>
<line x1="238.99999999999903" x2="239.99999999999903" y1="174.48357697861695" y2="173.54957792135687" stroke="blue" stroke-width="5"/>
<line x1="239.99999999999903" x2="240.99999999999903" y1="173.54957792135684" y2="172.60372423728268" stroke="blue" stroke-width="5"/>
<line x1="240.99999999999903" x2="241.99999999999903" y1="172.60372423728268" y2="171.6471601330669" stroke="blue" stroke-width="5"/>
<line x1="241.99999999999903" x2="242.99999999999903" y1="171.6471601330669" y2="170.68104277186188" stroke="blue" stroke-width="5"/>
<line x1="242.99999999999903" x2="243.99999999999903" y1="170.68104277186188" y2="169.7065408734705" stroke="blue" stroke-width="5"/>
<line x1="243.99999999999903" x2="244.99999999999903" y1="169.7065408734705" y2="168.72483330053626" stroke="blue" stroke-width="5"/>
<line x1="244.99999999999903" x2="245.99999999999903" y1="168.72483330053626" y2="167.7371076324643" stroke="blue" stroke-width="5"/>
<line x1="245.99999999999903" x2="246.99999999999903" y1="167.7371076324643" y2="166.74455872879696" stroke="blue" stroke-width="5"/>
<line x1="246.99999999999903" x2="247.99999999999903" y1="166.74455872879696" y2="165.74838728378265" stroke="blue" stroke-width="5"/>
<line x1="247.99999999999903" x2="248.99999999999903" y1="165.74838728378265" y2="164.74979837388673" stroke="blue" stroke-width="5"/>
<line x1="248.99999999999903" x2="249.99999999999903" y1="164.74979837388673" y2="163.75000000000097" stroke="blue" stroke-width="5"/>
<line x1="249.99999999999903" x2="250.99999999999903" y1="163.75000000000097" y2="162.7502016261152" stroke="blue" stroke-width="5"/>
<line x1="250.99999999999903" x2="251.99999999999903" y1="162.7502016261152" y2="161.75161271621928" stroke="blue" stroke-width="5"/>
<line x1="251.99999999999903" x2="252.99999999999903" y1="161.75161271621928" y2="160.75544127120497" stroke="blue" stroke-width="5"/>
<line x1="252.99999999999903" x2="253.99999999999903" y1="160.75544127120497" y2="159.76289236753757" stroke="blue" stroke-width="5"/>
<line x1="253.99999999999903" x2="254.99999999999903" y1="159.76289236753757" y2="158.77516669946564" stroke="blue" stroke-width="5"/>
<line x1="254.99999999999903" x2="255.99999999999903" y1="158.77516669946564" y2="157.79345912653142" stroke="blue" stroke-width="5"/>
<line x1="255.99999999999903" x2="256.99999999999903" y1="157.79345912653142" y2="156.81895722814" stroke="blue" stroke-width="5"/>
<line x1="256.99999999999903" x2="257.99999999999903" y1="156.81895722813996" y2="155.85283986693497" stroke="blue" stroke-width="5"/>
<line x1="257.99999999999903" x2="258.99999999999903" y1="155.85283986693497" y2="154.89627576271914" stroke="blue" stroke-width="5"/>
<line x1="258.99999999999903" x2="259.99999999999903" y1="154.89627576271914" y2="153.95042207864495" stroke="blue" stroke-width="5"/>
<line x1="259.99999999999903" x2="260.99999999999903" y1="153.95042207864495" y2="153.0164230213848" stroke="blue" stroke-width="5"/>
<line x1="260.99999999999903" x2="261.99999999999903" y1="153.0164230213848" y2="152.09540845697563" stroke="blue" stroke-width="5"/>
<line x1="261.99999999999903" x2="262.99999999999903" y1="152.09540845697563" y2="151.18849254401061" stroke="blue" stroke-width="5"/>
<line x1="262.99999999999903" x2="263.99999999999903" y1="151.18849254401061" y2="150.29677238583304" stroke="blue" stroke-width="5"/>
<line x1="263.99999999999903" x2="264.99999999999903" y1="150.296772385833" y2="149.42132670336153" stroke="blue" stroke-width="5"/>
<line x1="264.99999999999903" x2="265.99999999999903" y1="149.4213267033615" y2="148.56321453015298" stroke="blue" stroke-width="5"/>
<line x1="265.99999999999903" x2="266.99999999999903" y1="148.56321453015298" y2="147.72347393128115" stroke="blue" stroke-width="5"/>
<line x1="266.99999999999903" x2="267.99999999999903" y1="147.72347393128115" y2="146.90312074758126" stroke="blue" stroke-width="5"/>
<line x1="267.99999999999903" x2="268.99999999999903" y1="146.90312074758126" y2="146.10314736677924" stroke="blue" stroke-width="5"/>
<line x1="268.99999999999903" x2="269.99999999999903" y1="146.10314736677924" y2="145.32452152299248" stroke="blue" stroke-width="5"/>
<line x1="269.99999999999903" x2="270.99999999999903" y1="145.32452152299248" y2="144.5681851260543" stroke="blue" stroke-width="5"/>
<line x1="270.99999999999903" x2="271.99999999999903" y1="144.5681851260543" y2="143.83505312207794" stroke="blue" stroke-width="5"/>
<line x1="271.99999999999903" x2="272.99999999999903" y1="143.83505312207794" y2="143.1260123866394" stroke="blue" stroke-width="5"/>
<line x1="272.99999999999903" x2="273.99999999999903" y1="143.1260123866394" y2="142.4419206519167" stroke="blue" stroke-width="5"/>
<line x1="273.99999999999903" x2="274.99999999999903" y1="142.4419206519167" y2="141.7836054690847" stroke="blue" stroke-width="5"/>
<line x1="274.99999999999903" x2="275.99999999999903" y1="141.78360546908468" y2="141.15186320721978" stroke="blue" stroke-width="5"/>
<line x1="275.99999999999903" x2="276.99999999999903" y1="141.15186320721978" y2="140.547458089926" stroke="blue" stroke-width="5"/>
<line x1="276.99999999999903" x2="277.99999999999903" y1="140.547458089926" y2="139.97112127084773" stroke="blue" stroke-width="5"/>
<line x1="277.99999999999903" x2="278.99999999999903" y1="139.97112127084773" y2="139.4235499491872" stroke="blue" stroke-width="5"/>
<line x1="278.99999999999903" x2="279.99999999999903" y1="139.4235499491872" y2="138.9054065262972" stroke="blue" stroke-width="5"/>
<line x1="279.99999999999903" x2="280.99999999999903" y1="138.9054065262972" y2="138.41731780436913" stroke="blue" stroke-width="5"/>
<line x1="280.99999999999903" x2="281.99999999999903" y1="138.4173178043691" y2="137.95987422818496" stroke="blue" stroke-width="5"/>
<line x1="281.99999999999903" x2="282.99999999999903" y1="137.95987422818496" y2="137.53362917085207" stroke="blue" stroke-width="5"/>
<line x1="282.99999999999903" x2="283.99999999999903" y1="137.53362917085204" y2="137.13909826438294" stroke="blue" stroke-width="5"/>
<line x1="283.99999999999903" x2="284.99999999999903" y1="137.13909826438294" y2="136.77675877593143" stroke="blue" stroke-width="5"/>
<line x1="284.99999999999903" x2="285.99999999999903" y1="136.7767587759314" y2="136.44704903043862" stroke="blue" stroke-width="5"/>
<line x1="285.99999999999903" x2="286.99999999999903" y1="136.44704903043862" y2="136.15036788038793" stroke="blue" stroke-width="5"/>
<line x1="286.99999999999903" x2="287.99999999999903" y1="136.15036788038793" y2="135.88707422330992" stroke="blue" stroke-width="5"/>
<line x1="287.99999999999903" x2="288.99999999999903" y1="135.88707422330992" y2="135.65748656762116" stroke="blue" stroke-width="5"/>
<line x1="288.99999999999903" x2="289.99999999999903" y1="135.65748656762116" y2="135.4618826473222" stroke="blue" stroke-width="5"/>
<line x1="289.99999999999903" x2="290.99999999999903" y1="135.46188264732217" y2="135.30049908602035" stroke="blue" stroke-width="5"/>
<line x1="290.99999999999903" x2="291.99999999999903" y1="135.30049908602035" y2="135.17353111068448" stroke="blue" stroke-width="5"/>
<line x1="291.99999999999903" x2="292.99999999999903" y1="135.17353111068448" y2="135.0811323154772" stroke="blue" stroke-width="5"/>
<line x1="292.99999999999903" x2="293.99999999999903" y1="135.0811323154772" y2="135.0234144759509" stroke="blue" stroke-width="5"/>
<line x1="293.99999999999903" x2="294.99999999999903" y1="135.0234144759509" y2="135.00044741383192" stroke="blue" stroke-width="5"/>
<line x1="294.99999999999903" x2="295.99999999999903" y1="135.00044741383192" y2="135.0122589125567" stroke="blue" stroke-width="5"/>
<line x1="295.99999999999903" x2="296.99999999999903" y1="135.0122589125567" y2="135.05883468366198" stroke="blue" stroke-width="5"/>
<line x1="296.99999999999903" x2="297.99999999999903" y1="135.05883468366198" y2="135.14011838406952" stroke="blue" stroke-width="5"/>
<line x1="297.9999999999991" x2="298.9999999999991" y1="135.14011838406952" y2="135.25601168424498" stroke="blue" stroke-width="5"/>
<line x1="298.9999999999991" x2="299.9999999999991" y1="135.25601168424498" y2="135.40637438714774" stroke="blue" stroke-width="5"/>
<line x1="299.9999999999991" x2="300.9999999999991" y1="135.40637438714774" y2="135.59102459782838" stroke="blue" stroke-width="5"/>
<line x1="300.9999999999991" x2="301.9999999999991" y1="135.59102459782838" y2="135.80973894346863" stroke="blue" stroke-width="5"/>
<line x1="301.9999999999991" x2="302.9999999999991" y1="135.80973894346863" y2="136.06225284359698" stroke="blue" stroke-width="5"/>
<line x1="302.9999999999991" x2="303.9999999999991" y1="136.06225284359698" y2="136.348260830154" stroke="blue" stroke-width="5"/>
<line x1="303.9999999999991" x2="304.9999999999991" y1="136.348260830154" y2="136.6674169170193" stroke="blue" stroke-width="5"/>
<line x1="304.9999999999991" x2="305.9999999999991" y1="136.6674169170193" y2="137.0193350185537" stroke="blue" stroke-width="5"/>
<line x1="305.9999999999991" x2="306.9999999999991" y1="137.0193350185537" y2="137.4035894166501" stroke="blue" stroke-width="5"/>
<line x1="306.9999999999991" x2="307.9999999999991" y1="137.4035894166501" y2="137.81971527572813" stroke="blue" stroke-width="5"/>
<line x1="307.9999999999991" x2="308.9999999999991" y1="137.81971527572813" y2="138.2672092050492" stroke="blue" stroke-width="5"/>
<line x1="308.9999999999991" x2="309.9999999999991" y1="138.2672092050492" y2="138.7455298676725" stroke="blue" stroke-width="5"/>
<line x1="309.99999999999903" x2="310.99999999999903" y1="138.74552986767247" y2="139.25409863531434" stroke="blue" stroke-width="5"/>
<line x1="310.99999999999903" x2="311.99999999999903" y1="139.25409863531436" y2="139.7923002883196" stroke="blue" stroke-width="5"/>
<line x1="311.99999999999903" x2="312.99999999999903" y1="139.7923002883196" y2="140.3594837598976" stroke="blue" stroke-width="5"/>
<line x1="312.99999999999903" x2="313.99999999999903" y1="140.3594837598976" y2="140.95496292372286" stroke="blue" stroke-width="5"/>
<line x1="313.99999999999903" x2="314.99999999999903" y1="140.95496292372286" y2="141.57801742394744" stroke="blue" stroke-width="5"/>
<line x1="314.99999999999903" x2="315.99999999999903" y1="141.57801742394741" y2="142.22789354662117" stroke="blue" stroke-width="5"/>
<line x1="315.99999999999903" x2="316.99999999999903" y1="142.22789354662115" y2="142.9038051314654" stroke="blue" stroke-width="5"/>
<line x1="316.99999999999903" x2="317.99999999999903" y1="142.90380513146533" y2="143.6049345228971" stroke="blue" stroke-width="5"/>
<line x1="317.999999999999" x2="318.999999999999" y1="143.6049345228971" y2="144.33043355915365" stroke="blue" stroke-width="5"/>
<line x1="318.999999999999" x2="319.999999999999" y1="144.33043355915368" y2="145.0794245983205" stroke="blue" stroke-width="5"/>
<line x1="319.999999999999" x2="320.999999999999" y1="145.0794245983205" y2="145.85100158002155" stroke="blue" stroke-width="5"/>
<line x1="320.999999999999" x2="321.999999999999" y1="145.85100158002155" y2="146.64423112148768" stroke="blue" stroke-width="5"/>
<line x1="321.999999999999" x2="322.999999999999" y1="146.64423112148768" y2="147.45815364667726" stroke="blue" stroke-width="5"/>
<line x1="322.999999999999" x2="323.999999999999" y1="147.45815364667726" y2="148.29178454708267" stroke="blue" stroke-width="5"/>
<line x1="323.999999999999" x2="324.999999999999" y1="148.29178454708267" y2="149.1441153728193" stroke="blue" stroke-width="5"/>
<line x1="324.999999999999" x2="325.999999999999" y1="149.14411537281927" y2="150.01411505255496" stroke="blue" stroke-width="5"/>
<line x1="325.999999999999" x2="326.999999999999" y1="150.01411505255493" y2="150.90073114080536" stroke="blue" stroke-width="5"/>
<line x1="326.999999999999" x2="327.999999999999" y1="150.90073114080536" y2="151.80289109108557" stroke="blue" stroke-width="5"/>
<line x1="327.999999999999" x2="328.999999999999" y1="151.80289109108554" y2="152.71950355337793" stroke="blue" stroke-width="5"/>
<line x1="328.999999999999" x2="329.999999999999" y1="152.71950355337793" y2="153.64945969434692" stroke="blue" stroke-width="5"/>
<line x1="329.9999999999989" x2="330.9999999999989" y1="153.6494596943469" y2="154.59163453870337" stroke="blue" stroke-width="5"/>
<line x1="330.9999999999989" x2="331.9999999999989" y1="154.5916345387034" y2="155.5448883300964" stroke="blue" stroke-width="5"/>
<line x1="331.9999999999989" x2="332.9999999999989" y1="155.54488833009643" y2="156.50806790988517" stroke="blue" stroke-width="5"/>
<line x1="332.9999999999989" x2="333.9999999999989" y1="156.50806790988517" y2="157.4800081121242" stroke="blue" stroke-width="5"/>
<line x1="333.9999999999989" x2="334.9999999999989" y1="157.4800081121242" y2="158.45953317307396" stroke="blue" stroke-width="5"/>
<line x1="334.9999999999989" x2="335.9999999999989" y1="158.45953317307396" y2="159.44545815353138" stroke="blue" stroke-width="5"/>
<line x1="335.9999999999989" x2="336.9999999999989" y1="159.44545815353138" y2="160.43659037226018" stroke="blue" stroke-width="5"/>
<line x1="336.99999999999886" x2="337.99999999999886" y1="160.43659037226018" y2="161.4317308487868" stroke="blue" stroke-width="5"/>
<line x1="337.99999999999886" x2="338.99999999999886" y1="161.43173084878686" y2="162.4296757538167" stroke="blue" stroke-width="5"/>
<line x1="338.99999999999886" x2="339.99999999999886" y1="162.42967575381672" y2="163.42921786551588" stroke="blue" stroke-width="5"/>
<line x1="339.99999999999886" x2="340.99999999999886" y1="163.4292178655159" y2="164.42914802989685" stroke="blue" stroke-width="5"/>
<line x1="340.99999999999886" x2="341.99999999999886" y1="164.42914802989688" y2="165.4282566235418" stroke="blue" stroke-width="5"/>
<line x1="341.99999999999886" x2="342.99999999999886" y1="165.4282566235418" y2="166.42533501689337" stroke="blue" stroke-width="5"/>
<line x1="342.99999999999886" x2="343.99999999999886" y1="166.42533501689337" y2="167.41917703634374" stroke="blue" stroke-width="5"/>
<line x1="343.99999999999886" x2="344.99999999999886" y1="167.41917703634374" y2="168.40858042335196" stroke="blue" stroke-width="5"/>
<line x1="344.99999999999886" x2="345.99999999999886" y1="168.40858042335196" y2="169.39234828882596" stroke="blue" stroke-width="5"/>
<line x1="345.99999999999886" x2="346.99999999999886" y1="169.39234828882593" y2="170.36929056100848" stroke="blue" stroke-width="5"/>
<line x1="346.99999999999886" x2="347.99999999999886" y1="170.36929056100846" y2="171.33822542511643" stroke="blue" stroke-width="5"/>
<line x1="347.99999999999886" x2="348.99999999999886" y1="171.33822542511643" y2="172.29798075299152" stroke="blue" stroke-width="5"/>
<line x1="348.99999999999886" x2="349.99999999999886" y1="172.29798075299152" y2="173.2473955210329" stroke="blue" stroke-width="5"/>
<line x1="349.9999999999988" x2="350.9999999999988" y1="173.24739552103287" y2="174.18532121469661" stroke="blue" stroke-width="5"/>
<line x1="350.9999999999988" x2="351.9999999999988" y1="174.18532121469664" y2="175.1106232178629" stroke="blue" stroke-width="5"/>
<line x1="351.9999999999988" x2="352.9999999999988" y1="175.1106232178629" y2="176.02218218538985" stroke="blue" stroke-width="5"/>
<line x1="352.9999999999988" x2="353.9999999999988" y1="176.02218218538985" y2="176.91889539719446" stroke="blue" stroke-width="5"/>
<line x1="353.9999999999988" x2="354.9999999999988" y1="176.91889539719443" y2="177.79967809222165" stroke="blue" stroke-width="5"/>
<line x1="354.9999999999988" x2="355.9999999999988" y1="177.79967809222165" y2="178.66346478068837" stroke="blue" stroke-width="5"/>
<line x1="355.9999999999988" x2="356.9999999999988" y1="178.66346478068837" y2="179.50921053301488" stroke="blue" stroke-width="5"/>
<line x1="356.99999999999875" x2="357.99999999999875" y1="179.50921053301488" y2="180.33589224388436" stroke="blue" stroke-width="5"/>
<line x1="357.99999999999875" x2="358.99999999999875" y1="180.3358922438844" y2="181.14250986990166" stroke="blue" stroke-width="5"/>
<line x1="358.99999999999875" x2="359.99999999999875" y1="181.1425098699017" y2="181.92808763935344" stroke="blue" stroke-width="5"/>
<line x1="359.99999999999875" x2="360.99999999999875" y1="181.92808763935346" y2="182.691675232607" stroke="blue" stroke-width="5"/>
<line x1="360.99999999999875" x2="361.99999999999875" y1="182.691675232607" y2="183.4323489317196" stroke="blue" stroke-width="5"/>
<line x1="361.99999999999875" x2="362.99999999999875" y1="183.4323489317196" y2="184.1492127378671" stroke="blue" stroke-width="5"/>
<line x1="362.99999999999875" x2="363.99999999999875" y1="184.1492127378671" y2="184.84139945524106" stroke="blue" stroke-width="5"/>
<line x1="363.99999999999875" x2="364.99999999999875" y1="184.84139945524103" y2="185.50807174010214" stroke="blue" stroke-width="5"/>
<line x1="364.99999999999875" x2="365.99999999999875" y1="185.5080717401021" y2="186.1484231137216" stroke="blue" stroke-width="5"/>
<line x1="365.99999999999875" x2="366.99999999999875" y1="186.1484231137216" y2="186.76167893798493" stroke="blue" stroke-width="5"/>
<line x1="366.99999999999875" x2="367.99999999999875" y1="186.76167893798493" y2="187.3470973524777" stroke="blue" stroke-width="5"/>
<line x1="367.99999999999875" x2="368.99999999999875" y1="187.34709735247768" y2="187.90397017191987" stroke="blue" stroke-width="5"/>
<line x1="368.99999999999875" x2="369.99999999999875" y1="187.90397017191987" y2="188.43162374286328" stroke="blue" stroke-width="5"/>
<line x1="369.99999999999875" x2="370.99999999999875" y1="188.43162374286328" y2="188.9294197586155" stroke="blue" stroke-width="5"/>
<line x1="370.99999999999875" x2="371.99999999999875" y1="188.9294197586155" y2="189.39675603140435" stroke="blue" stroke-width="5"/>
<line x1="371.9999999999987" x2="372.9999999999987" y1="189.39675603140435" y2="189.8330672208494" stroke="blue" stroke-width="5"/>
<line x1="372.9999999999987" x2="373.9999999999987" y1="189.8330672208494" y2="190.23782551785843" stroke="blue" stroke-width="5"/>
<line x1="373.9999999999987" x2="374.9999999999987" y1="190.23782551785843" y2="190.61054128312267" stroke="blue" stroke-width="5"/>
<line x1="374.9999999999987" x2="375.9999999999987" y1="190.61054128312267" y2="190.9507636394369" stroke="blue" stroke-width="5"/>
<line x1="375.9999999999987" x2="376.9999999999987" y1="190.9507636394369" y2="191.25808101712943" stroke="blue" stroke-width="5"/>
<line x1="376.9999999999987" x2="377.9999999999987" y1="191.25808101712943" y2="191.53212165194108" stroke="blue" stroke-width="5"/>
<line x1="377.9999999999987" x2="378.9999999999987" y1="191.53212165194108" y2="191.7725540347514" stroke="blue" stroke-width="5"/>
<line x1="378.99999999999864" x2="379.99999999999864" y1="191.7725540347514" y2="191.97908731260787" stroke="blue" stroke-width="5"/>
<line x1="379.99999999999864" x2="380.99999999999864" y1="191.97908731260787" y2="192.15147164057288" stroke="blue" stroke-width="5"/>
<line x1="380.99999999999864" x2="381.99999999999864" y1="192.15147164057288" y2="192.28949848396334" stroke="blue" stroke-width="5"/>
<line x1="381.99999999999864" x2="382.99999999999864" y1="192.28949848396334" y2="192.3930008706166" stroke="blue" stroke-width="5"/>
<line x1="382.99999999999864" x2="383.99999999999864" y1="192.3930008706166" y2="192.46185359287796" stroke="blue" stroke-width="5"/>
<line x1="383.99999999999864" x2="384.99999999999864" y1="192.46185359287796" y2="192.4959733590655" stroke="blue" stroke-width="5"/>
<line x1="384.99999999999864" x2="385.99999999999864" y1="192.4959733590655" y2="192.49531889422855" stroke="blue" stroke-width="5"/>
<line x1="385.99999999999864" x2="386.99999999999864" y1="192.49531889422855" y2="192.4598909900784" stroke="blue" stroke-width="5"/>
<line x1="386.99999999999864" x2="387.99999999999864" y1="192.4598909900784" y2="192.38973250403052" stroke="blue" stroke-width="5"/>
<line x1="387.99999999999864" x2="388.99999999999864" y1="192.38973250403055" y2="192.28492830735968" stroke="blue" stroke-width="5"/>
<line x1="388.99999999999864" x2="389.99999999999864" y1="192.28492830735968" y2="192.14560518253032" stroke="blue" stroke-width="5"/>
<line x1="389.99999999999864" x2="390.99999999999864" y1="192.14560518253032" y2="191.97193166982703" stroke="blue" stroke-width="5"/>
<line x1="390.99999999999864" x2="391.99999999999864" y1="191.97193166982706" y2="191.76411786346992" stroke="blue" stroke-width="5"/>
<line x1="391.9999999999986" x2="392.9999999999986" y1="191.76411786346995" y2="191.52241515746198" stroke="blue" stroke-width="5"/>
<line x1="392.9999999999986" x2="393.9999999999986" y1="191.52241515746198" y2="191.24711594147573" stroke="blue" stroke-width="5"/>
<line x1="393.9999999999986" x2="394.9999999999986" y1="191.24711594147573" y2="190.93855324714724" stroke="blue" stroke-width="5"/>
<line x1="394.9999999999986" x2="395.9999999999986" y1="190.93855324714724" y2="190.59710034520504" stroke="blue" stroke-width="5"/>
<line x1="395.9999999999986" x2="396.9999999999986" y1="190.59710034520504" y2="190.22317029392158" stroke="blue" stroke-width="5"/>
<line x1="396.9999999999985" x2="397.9999999999985" y1="190.22317029392158" y2="189.81721543943348" stroke="blue" stroke-width="5"/>
<line x1="397.9999999999985" x2="398.9999999999985" y1="189.81721543943345" y2="189.3797268685346" stroke="blue" stroke-width="5"/>
<line x1="398.9999999999985" x2="399.9999999999985" y1="189.37972686853456" y2="188.91123381460469" stroke="blue" stroke-width="5"/>
<line x1="399.9999999999985" x2="400.9999999999985" y1="188.91123381460469" y2="188.41230301739154" stroke="blue" stroke-width="5"/>
<line x1="400.9999999999985" x2="401.9999999999985" y1="188.41230301739154" y2="187.8835380374214" stroke="blue" stroke-width="5"/>
<line x1="401.9999999999985" x2="402.9999999999985" y1="187.88353803742137" y2="187.32557852586697" stroke="blue" stroke-width="5"/>
<line x1="402.9999999999985" x2="403.9999999999985" y1="187.32557852586697" y2="186.73909945075653" stroke="blue" stroke-width="5"/>
<line x1="403.9999999999985" x2="404.9999999999985" y1="186.73909945075653" y2="186.12481028045954" stroke="blue" stroke-width="5"/>
<line x1="404.9999999999985" x2="405.9999999999985" y1="186.12481028045954" y2="185.48345412543728" stroke="blue" stroke-width="5"/>
<line x1="405.9999999999985" x2="406.9999999999985" y1="185.48345412543728" y2="184.81580683929633" stroke="blue" stroke-width="5"/>
<line x1="406.9999999999985" x2="407.9999999999985" y1="184.81580683929636" y2="184.1226760802322" stroke="blue" stroke-width="5"/>
<line x1="407.9999999999985" x2="408.9999999999985" y1="184.12267608023222" y2="183.40490033399882" stroke="blue" stroke-width="5"/>
<line x1="408.9999999999985" x2="409.9999999999985" y1="183.40490033399885" y2="182.66334789958586" stroke="blue" stroke-width="5"/>
<line x1="409.9999999999985" x2="410.9999999999985" y1="182.66334789958586" y2="181.89891583883036" stroke="blue" stroke-width="5"/>
<line x1="410.9999999999985" x2="411.9999999999985" y1="181.89891583883042" y2="181.11252889123423" stroke="blue" stroke-width="5"/>
<line x1="411.99999999999847" x2="412.99999999999847" y1="181.11252889123426" y2="180.30513835529928" stroke="blue" stroke-width="5"/>
<line x1="412.99999999999847" x2="413.99999999999847" y1="180.30513835529928" y2="179.47772093773403" stroke="blue" stroke-width="5"/>
<line x1="413.99999999999847" x2="414.99999999999847" y1="179.47772093773403" y2="178.63127757192393" stroke="blue" stroke-width="5"/>
<line x1="414.99999999999847" x2="415.99999999999847" y1="178.63127757192393" y2="177.76683220709424" stroke="blue" stroke-width="5"/>
<line x1="415.99999999999847" x2="416.99999999999847" y1="177.76683220709424" y2="176.88543056963073" stroke="blue" stroke-width="5"/>
<line x1="416.9999999999984" x2="417.9999999999984" y1="176.88543056963078" y2="175.98813889805615" stroke="blue" stroke-width="5"/>
<line x1="417.9999999999984" x2="418.9999999999984" y1="175.98813889805612" y2="175.07604265319276" stroke="blue" stroke-width="5"/>
<line x1="418.9999999999984" x2="419.9999999999984" y1="175.0760426531927" y2="174.15024520507225" stroke="blue" stroke-width="5"/>
<line x1="419.9999999999984" x2="420.9999999999984" y1="174.15024520507222" y2="173.21186649818014" stroke="blue" stroke-width="5"/>
<line x1="420.9999999999984" x2="421.9999999999984" y1="173.21186649818011" y2="172.26204169664996" stroke="blue" stroke-width="5"/>
<line x1="421.9999999999984" x2="422.9999999999984" y1="172.26204169664996" y2="171.30191981104645" stroke="blue" stroke-width="5"/>
<line x1="422.9999999999984" x2="423.9999999999984" y1="171.30191981104645" y2="170.33266230839814" stroke="blue" stroke-width="5"/>
<line x1="423.9999999999984" x2="424.9999999999984" y1="170.33266230839814" y2="169.35544170716176" stroke="blue" stroke-width="5"/>
<line x1="424.9999999999984" x2="425.9999999999984" y1="169.35544170716176" y2="168.37144015881728" stroke="blue" stroke-width="5"/>
<line x1="425.9999999999984" x2="426.9999999999984" y1="168.37144015881728" y2="167.38184801780986" stroke="blue" stroke-width="5"/>
<line x1="426.9999999999984" x2="427.9999999999984" y1="167.3818480178099" y2="166.38786240156895" stroke="blue" stroke-width="5"/>
<line x1="427.9999999999984" x2="428.9999999999984" y1="166.38786240156895" y2="165.3906857423455" stroke="blue" stroke-width="5"/>
<line x1="428.9999999999984" x2="429.9999999999984" y1="165.39068574234554" y2="164.39152433262052" stroke="blue" stroke-width="5"/>
<line x1="429.9999999999984" x2="430.9999999999984" y1="164.39152433262052" y2="163.39158686584318" stroke="blue" stroke-width="5"/>
<line x1="430.9999999999984" x2="431.9999999999984" y1="163.3915868658432" y2="162.3920829742652" stroke="blue" stroke-width="5"/>
<line x1="431.99999999999835" x2="432.99999999999835" y1="162.39208297426524" y2="161.39422176563892" stroke="blue" stroke-width="5"/>
<line x1="432.99999999999835" x2="433.99999999999835" y1="161.39422176563892" y2="160.39921036054994" stroke="blue" stroke-width="5"/>
<line x1="433.99999999999835" x2="434.99999999999835" y1="160.39921036054994" y2="159.40825243215428" stroke="blue" stroke-width="5"/>
<line x1="434.99999999999835" x2="435.99999999999835" y1="159.40825243215428" y2="158.42254675008502" stroke="blue" stroke-width="5"/>
<line x1="435.99999999999835" x2="436.99999999999835" y1="158.42254675008502" y2="157.4432857302914" stroke="blue" stroke-width="5"/>
<line x1="436.9999999999983" x2="437.9999999999983" y1="157.44328573029145" y2="156.47165399256394" stroke="blue" stroke-width="5"/>
<line x1="437.9999999999983" x2="438.9999999999983" y1="156.47165399256392" y2="155.50882692749013" stroke="blue" stroke-width="5"/>
<line x1="438.9999999999983" x2="439.9999999999983" y1="155.5088269274901" y2="154.5559692745756" stroke="blue" stroke-width="5"/>
<line x1="439.9999999999983" x2="440.9999999999983" y1="154.5559692745756" y2="153.6142337132493" stroke="blue" stroke-width="5"/>
<line x1="440.9999999999983" x2="441.9999999999983" y1="153.6142337132493" y2="152.6847594684581" stroke="blue" stroke-width="5"/>
<line x1="441.9999999999983" x2="442.9999999999983" y1="152.6847594684581" y2="151.76867093253747" stroke="blue" stroke-width="5"/>
<line x1="442.9999999999983" x2="443.9999999999983" y1="151.76867093253747" y2="150.8670763050251" stroke="blue" stroke-width="5"/>
<line x1="443.9999999999983" x2="444.9999999999983" y1="150.8670763050251" y2="149.98106625206321" stroke="blue" stroke-width="5"/>
<line x1="444.9999999999983" x2="445.9999999999983" y1="149.98106625206321" y2="149.11171258701103" stroke="blue" stroke-width="5"/>
<line x1="445.9999999999983" x2="446.9999999999983" y1="149.11171258701103" y2="148.26006697386384" stroke="blue" stroke-width="5"/>
<line x1="446.9999999999983" x2="447.9999999999983" y1="148.26006697386384" y2="147.42715965504667" stroke="blue" stroke-width="5"/>
<line x1="447.9999999999983" x2="448.9999999999983" y1="147.4271596550467" y2="146.61399820512185" stroke="blue" stroke-width="5"/>
<line x1="448.9999999999983" x2="449.9999999999983" y1="146.61399820512187" y2="145.8215663119182" stroke="blue" stroke-width="5"/>
<line x1="449.9999999999983" x2="450.9999999999983" y1="145.82156631191822" y2="145.0508225865559" stroke="blue" stroke-width="5"/>
<line x1="450.9999999999983" x2="451.9999999999983" y1="145.05082258655597" y2="144.30269940380742" stroke="blue" stroke-width="5"/>
<line x1="451.99999999999824" x2="452.99999999999824" y1="144.30269940380748" y2="143.57810177419603" stroke="blue" stroke-width="5"/>
<line x1="452.99999999999824" x2="453.99999999999824" y1="143.57810177419603" y2="142.87790624919745" stroke="blue" stroke-width="5"/>
<line x1="453.99999999999824" x2="454.99999999999824" y1="142.87790624919745" y2="142.20295986086887" stroke="blue" stroke-width="5"/>
<line x1="454.99999999999824" x2="455.99999999999824" y1="142.20295986086887" y2="141.5540790971873" stroke="blue" stroke-width="5"/>
<line x1="455.9999999999982" x2="456.9999999999982" y1="141.55407909718733" y2="140.93204891433794" stroke="blue" stroke-width="5"/>
<line x1="456.9999999999982" x2="457.9999999999982" y1="140.93204891433794" y2="140.33762178714602" stroke="blue" stroke-width="5"/>
<line x1="457.9999999999982" x2="458.9999999999982" y1="140.33762178714602" y2="139.77151679880245" stroke="blue" stroke-width="5"/>
<line x1="458.9999999999982" x2="459.9999999999982" y1="139.77151679880242" y2="139.234418770983" stroke="blue" stroke-width="5"/>
<line x1="459.9999999999982" x2="460.9999999999982" y1="139.23441877098298" y2="138.7269774354143" stroke="blue" stroke-width="5"/>
<line x1="460.9999999999982" x2="461.9999999999982" y1="138.7269774354143" y2="138.24980664788802" stroke="blue" stroke-width="5"/>
<line x1="461.9999999999982" x2="462.9999999999982" y1="138.24980664788802" y2="137.80348364567482" stroke="blue" stroke-width="5"/>
<line x1="462.9999999999982" x2="463.9999999999982" y1="137.80348364567482" y2="137.38854834923575" stroke="blue" stroke-width="5"/>
<line x1="463.9999999999982" x2="464.9999999999982" y1="137.38854834923575" y2="137.00550270907635" stroke="blue" stroke-width="5"/>
<line x1="464.9999999999982" x2="465.9999999999982" y1="137.00550270907635" y2="136.654810098533" stroke="blue" stroke-width="5"/>
<line x1="465.9999999999982" x2="466.9999999999982" y1="136.654810098533" y2="136.33689475322663" stroke="blue" stroke-width="5"/>
<line x1="466.9999999999982" x2="467.9999999999982" y1="136.33689475322666" y2="136.0521412578616" stroke="blue" stroke-width="5"/>
<line x1="467.9999999999982" x2="468.9999999999982" y1="136.0521412578616" y2="135.8008940809903" stroke="blue" stroke-width="5"/>
<line x1="468.9999999999982" x2="469.9999999999982" y1="135.8008940809903" y2="135.58345715830717" stroke="blue" stroke-width="5"/>
<line x1="469.9999999999982" x2="470.9999999999982" y1="135.58345715830717" y2="135.40009352497498" stroke="blue" stroke-width="5"/>
<line x1="470.9999999999981" x2="471.9999999999981" y1="135.40009352497498" y2="135.2510249974293" stroke="blue" stroke-width="5"/>
<line x1="471.9999999999981" x2="472.9999999999981" y1="135.2510249974293" y2="135.13643190504533" stroke="blue" stroke-width="5"/>
<line x1="472.9999999999981" x2="473.9999999999981" y1="135.13643190504533" y2="135.056452871992" stroke="blue" stroke-width="5"/>
<line x1="473.9999999999981" x2="474.9999999999981" y1="135.056452871992" y2="135.01118464953737" stroke="blue" stroke-width="5"/>
<line x1="474.9999999999981" x2="475.9999999999981" y1="135.01118464953737" y2="135.0006819990077" stroke="blue" stroke-width="5"/>
<line x1="475.99999999999807" x2="476.99999999999807" y1="135.0006819990077" y2="135.02495762554224" stroke="blue" stroke-width="5"/>
<line x1="476.99999999999807" x2="477.99999999999807" y1="135.02495762554224" y2="135.08398216272388" stroke="blue" stroke-width="5"/>
<line x1="477.99999999999807" x2="478.99999999999807" y1="135.08398216272388" y2="135.17768420810376" stroke="blue" stroke-width="5"/>
<line x1="478.99999999999807" x2="479.99999999999807" y1="135.17768420810378" y2="135.3059504095775" stroke="blue" stroke-width="5"/>
</svg>

