<svg width="500" height="500" xmlns="http://www.w3.org/2000/svg" xmlns:xlink="http://www.w3.org/1999/xlink">
 <style> .axisLabel {font: bold 20px sans-serif;} </style>
 <rect x="10" y="10" rx="10" ry="10" width="480" height="480" style="fill:rgb(232,232,232);stroke-width:2;stroke:rgb(0,0,0)"/>
 <line x1="20" x2="480" y1="250" y2="250" stroke="black" stroke-width="4"/>
<line x1="480" x2="480" y1="240" y2="260" stroke="black" stroke-width="2"/>
<text x="475" y="285" class="axisLabel">1</text>
<line x1="388" x2="388" y1="20" y2="480" stroke="black" stroke-width="4"/>
<line x1="296" x2="296" y1="240" y2="260" stroke="black" stroke-width="2"/>
<text x="291" y="285" class="axisLabel">-1</text>
<line x1="204" x2="204" y1="240" y2="260" stroke="black" stroke-width="2"/>
<text x="199" y="285" class="axisLabel">-2</text>
<line x1="112" x2="112" y1="240" y2="260" stroke="black" stroke-width="2"/>
<text x="107" y="285" class="axisLabel">-3</text>
<line x1="20" x2="20" y1="240" y2="260" stroke="black" stroke-width="2"/>
<text x="15" y="285" class="axisLabel">-4</text>
<line x1="378" x2="398" y1="595" y2="595" stroke="black" stroke-width="2"/>
<text x="423" y="600" class="axisLabel">-3</text>
<line x1="378" x2="398" y1="480" y2="480" stroke="black" stroke-width="2"/>
<text x="423" y="485" class="axisLabel">-2</text>
<line x1="378" x2="398" y1="365" y2="365" stroke="black" stroke-width="2"/>
<text x="423" y="370" class="axisLabel">-1</text>
<line x1="378" x2="398" y1="135" y2="135" stroke="black" stroke-width="2"/>
<text x="423" y="140" class="axisLabel">1</text>
<line x1="378" x2="398" y1="20" y2="20" stroke="black" stroke-width="2"/>
<text x="423" y="25" class="axisLabel">2</text>
</svg>

